<svg xmlns="http://www.w3.org/2000/svg" viewBox="0 0 3000 3000" width="3000" height="3000"><g transform="translate(754.0 1020.0) rotate(0.0 106.0 106.0) scale(0.999368323795337 0.9923374696330691)"><svg width="212.134" height="213.637" viewBox="0 0 212.134 213.637"><path d="M145.419 189.88a2.5 2.5 0 0 1-2.406-1.826l-25.904-92.376a2.502 2.502 0 0 1 .609-2.412l67.864-70.249a2.5 2.5 0 0 1 3.596 3.474L122.31 95.709l25.518 90.996a2.499 2.499 0 0 1-2.408 3.176z" fill="#111"/><path d="M119.518 97.504c-.201 0-.404-.024-.608-.075l-94.762-23.68a2.501 2.501 0 0 1 1.213-4.851l94.762 23.68a2.501 2.501 0 0 1-.605 4.926z" fill="#111"/><circle cx="119.516" cy="95.003" fill="#ff6996" r="40.717"/><path d="M119.504 138.221c-11.386 0-22.116-4.383-30.255-12.369-8.241-8.085-12.839-18.894-12.949-30.438-.227-23.829 18.976-43.4 42.805-43.627 23.786-.209 43.398 18.976 43.627 42.804.227 23.829-18.976 43.4-42.805 43.627l-.423.002zm.017-81.435c-.123 0-.245 0-.369.002-21.071.2-38.052 17.507-37.852 38.58.097 10.208 4.163 19.767 11.45 26.916s16.881 11.029 27.13 10.936c21.07-.2 38.05-17.509 37.852-38.579-.2-20.949-17.307-37.854-38.211-37.854z" fill="#111"/><circle cx="146.467" cy="188.887" fill="#fff" r="22.25"/><path d="M146.463 213.637c-13.538 0-24.615-10.947-24.745-24.514a24.587 24.587 0 0 1 7.082-17.569c4.631-4.719 10.821-7.352 17.432-7.415h.239c13.538 0 24.615 10.947 24.745 24.514.063 6.611-2.452 12.85-7.082 17.569s-10.82 7.352-17.432 7.415h-.239zm.007-44.5h-.191c-5.274.05-10.215 2.152-13.909 5.917s-5.702 8.745-5.651 14.02c.104 10.826 8.943 19.562 19.746 19.562h.191a19.62 19.62 0 0 0 13.909-5.917 19.621 19.621 0 0 0 5.651-14.02c-.104-10.826-8.943-19.562-19.746-19.562z" fill="#111"/><circle cx="24.754" cy="71.323" fill="#fff" r="22.25"/><path d="M24.715 96.084a24.605 24.605 0 0 1-12.15-3.22C.688 86.143-3.507 71.012 3.213 59.135c3.255-5.754 8.557-9.895 14.927-11.662a24.587 24.587 0 0 1 18.803 2.309c11.877 6.721 16.072 21.852 9.352 33.729-3.255 5.754-8.557 9.895-14.927 11.662a24.9 24.9 0 0 1-6.652.911zm-9.688-7.572a19.622 19.622 0 0 0 15.003 1.843 19.623 19.623 0 0 0 11.912-9.306c5.363-9.478 2.016-21.552-7.463-26.915a19.623 19.623 0 0 0-15.003-1.843 19.623 19.623 0 0 0-11.912 9.306c-5.363 9.478-2.016 21.552 7.463 26.915z" fill="#111"/><circle cx="187.38" cy="24.753" fill="#fff" r="22.25"/><path d="M187.422 49.498c-8.482 0-16.753-4.356-21.363-12.177-6.93-11.757-3.003-26.96 8.753-33.889 11.751-6.929 26.96-3.004 33.89 8.753 3.357 5.695 4.296 12.357 2.643 18.758s-5.7 11.775-11.396 15.132a24.6 24.6 0 0 1-12.526 3.423zM177.351 7.739c-9.381 5.53-12.515 17.661-6.985 27.043 5.529 9.381 17.662 12.514 27.044 6.985a19.623 19.623 0 0 0 9.094-12.075 19.625 19.625 0 0 0-2.108-14.968c-5.531-9.382-17.665-12.515-27.044-6.985z" fill="#111"/></svg></g><g transform="translate(868.0 1408.0) rotate(0.0 777.5 599.5) scale(1.09356253841534 1.0933107437157428)"><svg width="1421.958" height="1096.669" viewBox="0 0 1421.958 1096.669"><path d="M672.234 1094.169h-62.908l73.159-285.648h62.908z" fill="#fff"/><path d="M672.234 1096.669h-62.908a2.502 2.502 0 0 1-2.422-3.12l73.159-285.648a2.5 2.5 0 0 1 2.422-1.88h62.907a2.502 2.502 0 0 1 2.422 3.12l-73.158 285.648a2.499 2.499 0 0 1-2.422 1.88zm-59.687-5h57.747l71.878-280.648h-57.746z"/><path d="M118.084 1094.169H55.176l73.159-285.648h62.908z" fill="#fff"/><path d="M118.085 1096.669H55.177a2.502 2.502 0 0 1-2.422-3.12l73.158-285.648a2.5 2.5 0 0 1 2.422-1.88h62.908a2.502 2.502 0 0 1 2.422 3.12l-73.158 285.648a2.5 2.5 0 0 1-2.422 1.88zm-59.688-5h57.747l71.878-280.648h-57.747z"/><path d="M1174.751 1094.169h62.908L1164.5 808.521h-62.908z" fill="#fff"/><path d="M1237.659 1096.669h-62.908a2.499 2.499 0 0 1-2.422-1.88l-73.158-285.648a2.5 2.5 0 0 1 2.422-3.12h62.907c1.142 0 2.139.773 2.422 1.88l73.159 285.648a2.502 2.502 0 0 1-2.422 3.12zm-60.968-5h57.747l-71.879-280.648h-57.746z"/><path d="M1307.79 2.554H846.621l-.013.034c-99.948-3.315-156.43 144.333-156.43 144.333L425.549 837.122h281.258l268.166-64.123 104.539-38.175z" fill="#cad5f3"/><path d="M706.806 839.622H425.549a2.5 2.5 0 0 1-2.334-3.395l264.63-690.202c.142-.371 14.545-37.641 41.048-73.987 15.618-21.418 32.335-38.359 49.686-50.353C800.305 6.667 823.087-.599 846.29.077c.108-.015.22-.023.331-.023h461.169a2.5 2.5 0 0 1 2.387 3.245l-228.278 732.27a2.496 2.496 0 0 1-1.529 1.604l-104.538 38.175c-.09.033-.183.061-.276.083l-268.167 64.123a2.545 2.545 0 0 1-.583.068zm-277.622-5h277.327l267.739-64.021 103.242-37.701L1304.391 5.054H847.008c-.157.027-.32.038-.483.033-22.234-.734-44.154 6.23-65.103 20.711-16.889 11.674-33.202 28.223-48.489 49.186-26.115 35.814-40.279 72.464-40.419 72.83z"/><path d="M1154.641 146.921s70.201-183.584 192.591-136.783 52.188 230.385 52.188 230.385l-228.15 596.6H890.012z" fill="#cad5f3"/><path d="M1043.566 837.122H198.885S2.337 836.876 2.501 705.844c.164-131.032 196.713-130.786 196.713-130.786h771.051" fill="#cad5f3"/><path d="M1043.566 839.622H198.885c-.498 0-50.112-.251-99.048-16.631-28.889-9.67-51.933-22.99-68.491-39.59C10.508 762.511-.038 736.416 0 705.841s10.649-56.644 31.54-77.481c16.601-16.559 39.678-29.821 68.591-39.418 48.883-16.227 98.402-16.383 99.082-16.383h771.053a2.5 2.5 0 1 1 0 5H199.21c-.655 0-49.476.163-97.607 16.163-28.145 9.355-50.541 22.213-66.569 38.217C15.14 651.798 5.036 676.665 5 705.847s10.006 54.074 29.848 73.984c15.988 16.043 38.354 28.957 66.474 38.383 48.174 16.148 97.078 16.406 97.567 16.407h844.678a2.5 2.5 0 1 1-.001 5.001z"/><path d="M1171.269 839.622H890.012a2.5 2.5 0 1 1 0-5h279.537l227.536-594.993c.174-.456 17.457-46.205 19.644-96.967 1.277-29.63-2.766-55.137-12.014-75.813-11.479-25.659-31.119-43.954-58.376-54.377-12.952-4.953-25.922-7.467-38.55-7.473l-31.896.114h-.009a2.5 2.5 0 0 1-.009-5L1307.781 0c13.25.006 26.819 2.631 40.343 7.803 28.559 10.92 49.142 30.117 61.178 57.057 9.564 21.408 13.742 47.694 12.418 78.13-2.243 51.555-19.788 97.963-19.965 98.426l-228.15 596.6a2.503 2.503 0 0 1-2.336 1.606z"/></svg></g><g transform="translate(576.0 869.0) rotate(0.0 828.0 869.0) scale(0.9999480703296809 0.9999102497129142)"><svg width="1656.086" height="1738.156" viewBox="0 0 1656.086 1738.156"><path d="M807.001 381.227s17.405 45.481 33.982 85.087c23.224 55.486-67.305 96.021-92.341 46.491-14.282-28.256-39.636-81.002-39.636-81.002l97.995-50.575z" fill="#ffaac3"/><path d="M786.506 537.655c-3.581 0-7.093-.344-10.478-1.041-13.255-2.729-23.497-10.572-29.618-22.681-14.13-27.955-39.404-80.519-39.657-81.047a2.5 2.5 0 0 1 1.106-3.305l97.995-50.575a2.498 2.498 0 0 1 3.481 1.328c.174.454 17.582 45.9 33.953 85.016 12.615 30.139-6.735 55.443-30.053 66.199-8.739 4.031-17.94 6.107-26.73 6.107zm-74.193-104.746c4.945 10.267 26.1 54.116 38.561 78.768 12.146 24.032 39.76 24.794 60.269 15.331 21.208-9.783 38.87-32.647 27.535-59.729-14.147-33.802-29.063-72.312-33.008-82.552l-93.356 48.181z"/><path d="M813.255 450.887c52.668-48.965 20.583-118.692 22.884-164.637 1.898-37.891 6.95-61.773-13.616-69.132-20.567-7.36-34.702 26.546-37.11 53.412-1.726 19.253-6.99 54.606-6.99 54.606-12.033-17.795-65.997-112.356-72.875-123.799-47.855-79.625-41.272 122.737-83.098 154.64 35.512 50.755 42.565 77.576 71.816 106.579 29.25 29.003 56.781 23.553 56.781 23.553l62.208-35.223z" fill="#ffaac3"/><path d="M773.753 358.478a2.5 2.5 0 0 1-2.434-3.078c.045-.188 4.474-18.95 4.604-30.291a2.5 2.5 0 0 1 2.499-2.471h.03a2.501 2.501 0 0 1 2.471 2.529c-.138 11.901-4.552 30.6-4.739 31.39a2.501 2.501 0 0 1-2.431 1.922z"/><path d="M745.239 489.043c-10.091 0-30.918-3.08-52.732-24.711-17.294-17.147-28.334-35.933-41.117-57.685-9.192-15.641-19.611-33.37-34.253-53.888a2.5 2.5 0 0 1 .519-3.44c16.592-12.655 26.852-53.156 35.904-88.888 9.603-37.903 17.896-70.637 32.984-72.864 7.706-1.14 15.537 5.358 24.605 20.446 1.601 2.663 5.462 9.223 10.807 18.303 15.441 26.231 42.795 72.699 54.949 91.893 1.599-11.146 4.766-33.924 6.019-47.901 1.759-19.629 9.908-44.757 23.646-53.54 5.332-3.409 10.982-4.083 16.797-2.003 19.416 6.948 18.131 26.596 16.187 56.337-.318 4.869-.647 9.903-.916 15.274-.622 12.422 1.339 26.78 3.415 41.982 5.633 41.247 12.019 87.998-27.094 124.36a2.5 2.5 0 0 1-3.404-3.662c37.211-34.595 31.013-79.98 25.544-120.022-2.108-15.439-4.101-30.021-3.455-42.909.271-5.409.602-10.463.921-15.35 1.86-28.452 2.983-45.626-12.883-51.303-4.338-1.553-8.4-1.06-12.418 1.508-11.769 7.525-19.652 30.735-21.358 49.774-1.714 19.104-6.955 54.397-7.008 54.751a2.5 2.5 0 0 1-4.544 1.033c-9.287-13.734-41.435-68.346-58.705-97.685-5.338-9.068-9.194-15.62-10.783-18.263-7.571-12.598-14.338-18.851-19.591-18.076-11.791 1.74-20.472 36.007-28.867 69.146-9.363 36.963-19.035 75.139-35.851 90.094 14.063 19.893 24.184 37.113 33.145 52.361 13.127 22.336 23.495 39.978 40.326 56.668 27.985 27.749 54.272 22.928 54.536 22.876a2.5 2.5 0 1 1 .971 4.905c-.316.063-2.577.481-6.294.481z"/><path d="M762.664 428.972a2.5 2.5 0 0 1-2.283-1.481c-7.592-16.993 4.738-45.178 5.267-46.369a2.5 2.5 0 0 1 4.57 2.027c-.12.272-11.955 27.343-5.272 42.303a2.5 2.5 0 0 1-2.282 3.52z"/><path d="M1071.523 633.289c-20.235 22.35-180.889 141.779-99.927 251.005 0 0 12.395 38.116 48.838 42.457 34.52 4.112 53.001-21.963 68.831-29.628 15.83-7.666 77.682-31.319 101.244-84.011s26.242-87.551 39.574-110.233c44.23-75.245 67.256-93.194 89.609-152.034 10.788-28.396 12.618-76.26-29.7-98.594-44.633-23.556-92.106 5.555-128.745 49.084-36.934 43.879-62.96 102.393-89.725 131.954z" fill="#92acef"/><path d="M1027.764 929.694c-2.453 0-4.993-.147-7.625-.46-35.517-4.231-49.258-39.531-50.777-43.757-71.495-96.994 43.364-201.544 86.631-240.93 6.241-5.681 11.171-10.169 13.677-12.937 12.707-14.034 25.525-35.137 39.097-57.48 14.655-24.127 31.267-51.473 50.569-74.406 19.988-23.747 41.521-41.166 62.273-50.374 24.6-10.916 48.001-10.685 69.551.689 19.471 10.276 31.938 27.14 36.054 48.767 3.164 16.632 1.275 35.923-5.184 52.926-13.896 36.579-27.882 57.223-47.237 85.795-12.025 17.751-25.655 37.871-42.554 66.618-6.171 10.5-10.03 23.773-14.915 40.578-5.385 18.523-12.087 41.576-24.532 69.408-21.688 48.503-74.283 72.403-96.742 82.609-2.255 1.025-4.203 1.91-5.693 2.632-4.164 2.016-8.562 5.408-13.652 9.335-12.257 9.454-27.208 20.986-48.939 20.986zm45.612-294.728c-2.668 2.947-7.429 7.28-14.018 13.278-21.195 19.294-60.647 55.207-85.362 97.493-29.836 51.05-29.969 97.166-.392 137.068.16.217.285.459.369.715.118.364 12.375 36.653 46.757 40.748 23.918 2.849 39.999-9.554 52.919-19.52 5.09-3.926 9.897-7.634 14.526-9.876 1.546-.748 3.52-1.645 5.805-2.684 21.943-9.971 73.33-33.322 94.246-80.098 12.305-27.517 18.953-50.387 24.295-68.763 4.983-17.14 8.919-30.678 15.406-41.716 16.979-28.885 30.657-49.076 42.725-66.889 19.166-28.291 33.014-48.732 46.703-84.766 9.454-24.887 14.083-73.005-28.53-95.496-20.127-10.623-42.062-10.804-65.188-.541-20.063 8.902-40.975 25.854-60.476 49.023-19.056 22.639-35.561 49.81-50.122 73.782-13.697 22.551-26.638 43.853-39.663 58.24z"/><path d="M1074.077 719.88c-58.699-97.619-111.898-106.394-125.121-143.139-11.919-33.121-34.337-128.995-89.214-141.103-34.134-7.531-57.751 26.924-63.697 31.843 0 0-49.593 1.231-71.296 24.573s-40.835 66.416 16.347 142.76c46.746 62.411 51.731 78.059 67.074 128.152 27.026 88.238 111.732 149.687 168.088 149.687 29.533 0 55.152-6.986 60.526-11.521" fill="#92acef"/><path d="M991.148 915.931c-31.836 0-65.254-10.57-94.097-29.762-35.606-23.693-63.975-59.298-84.315-105.825-5.077-11.615-9.313-22.47-13.408-32.969-12.834-32.894-24.955-63.963-60.232-111.061-44.967-60.036-50.409-109.144-16.177-145.961 20.761-22.328 64.917-25.042 72.128-25.338.831-.806 1.995-2.084 3.3-3.517 9.521-10.457 31.812-34.945 61.935-28.3 21.199 4.677 40.12 22.094 56.236 51.768 13.458 24.778 22.546 53.203 29.182 73.959 2.129 6.659 3.968 12.409 5.609 16.971 5.333 14.819 17.608 25.025 34.598 39.15 23.673 19.682 56.093 46.636 90.314 103.547a2.5 2.5 0 0 1-4.285 2.577c-33.784-56.185-65.828-82.826-89.226-102.279-17.598-14.631-30.313-25.201-36.106-41.302-1.672-4.646-3.523-10.437-5.667-17.141-12.542-39.23-35.889-112.252-81.733-122.367-27.287-6.02-47.466 16.135-57.159 26.784-1.929 2.119-3.322 3.649-4.404 4.544a2.502 2.502 0 0 1-1.531.573c-.485.012-48.802 1.485-69.527 23.776-32.346 34.787-26.788 81.742 16.517 139.559 35.686 47.643 47.928 79.021 60.889 112.241 4.077 10.452 8.294 21.26 13.332 32.783 53.786 123.029 146.649 132.59 173.83 132.59 19.792 0 39.181-7.622 44.024-11.708a2.5 2.5 0 1 1 3.224 3.822c-6.379 5.381-27.439 12.886-47.249 12.886z"/><path d="M1161.142 920.844c-8.76-65.405 13.088-30.591-44.496-136.138C945.759 471.487 782.143 310.042 673.807 354.08c-135.589 55.115 3.702 812.25 362.886 812.25 117.501 0 135.823-160.558 124.449-245.486z" fill="#6f5490"/><path d="M1041.892 1168.869c-1.729 0-3.473-.013-5.237-.039-52.264 0-102.582-16.057-149.519-47.724-42.266-28.517-81.749-69.597-117.354-122.099-61.383-90.515-110.424-215.692-134.547-343.433-14.087-74.592-18.592-145.496-12.687-199.653 6.293-57.712 23.703-93.732 50.347-104.167 34.173-13.382 73.328-7.936 116.39 16.19 37.414 20.961 78.232 56.261 121.322 104.92 91.047 102.815 169.55 238.769 208.24 310.659 29.078 54.028 40.397 104.317 44.772 136.991a2.5 2.5 0 1 1-4.956.664c-4.32-32.262-15.499-81.921-44.22-135.285-38.589-71.699-116.869-207.277-207.581-309.714-42.718-48.238-83.1-83.186-120.023-103.873-41.691-23.358-79.417-28.707-112.121-15.896-49.83 19.516-64.047 142.156-34.571 298.238 24.001 127.094 72.759 251.585 133.772 341.555 74.37 109.665 165.235 167.63 262.772 167.63 16.003.241 30.444-.684 45.064-1.737a2.491 2.491 0 0 1 2.673 2.314 2.5 2.5 0 0 1-2.313 2.673c-13.126.946-26.118 1.789-40.225 1.789z"/><path d="M800.199 958.838c5.114-83.368 8.735-233.462 2.521-360.074-3.128-63.76 34.466-218.121-52.536-245.128-91.809-28.5-161.353 12.026-198.346 106.646-28.929 73.993-124.896 466.906-124.896 466.906 133.055 100.285 259.702 103.643 373.258 31.65z" fill="#6f5490"/><path d="M639.878 1010.783c-6.383 0-12.767-.224-19.171-.672-64.301-4.503-129.999-31.73-195.271-80.926a2.502 2.502 0 0 1-.925-2.585c.939-3.879 94.295-388.793 122.948-462.097 20.928-53.539 49.467-90.04 84.826-108.49 33.399-17.428 73.318-19.03 118.649-4.761l1.63.552c11.703 3.951 28.1 9.731 35.347 14.284a2.5 2.5 0 0 1-2.66 4.234c-7.584-4.765-27.682-11.551-34.286-13.781l-1.592-.539c-91.051-28.66-157.437 8.451-197.258 110.322-27.591 70.587-115.729 432.566-122.357 459.855 126.535 94.805 250.336 105.308 368.034 31.223 1.111-16.392 12.239-188.52 2.432-358.493a2.502 2.502 0 0 1 2.353-2.64 2.49 2.49 0 0 1 2.64 2.352c10.278 178.13-2.394 358.594-2.523 360.396a2.5 2.5 0 0 1-1.154 1.933c-52.226 33.11-106.525 49.832-161.66 49.834z"/><path d="M759.689 1052.952c-26.536 0-48.124-21.588-48.124-48.124s21.588-48.136 48.124-48.136 48.124 21.594 48.124 48.136-21.588 48.124-48.124 48.124zm0-91.26c-23.778 0-43.124 19.351-43.124 43.136s19.346 43.124 43.124 43.124 43.124-19.345 43.124-43.124-19.346-43.136-43.124-43.136z"/><path d="m224.141 1167.176 589.675-.335s27.108-130.835-13.617-208.003c-142.479 13.962-266.89-95.903-420.392-35.961-104.854 40.945-149.612 119.531-155.666 244.299z" fill="#fff"/><path d="M235.032 1082.72c-5.896 23.643-9.757 53.902-10.892 84.456l589.675-.335s5.447-33.313 7.951-84.121z" fill="#ef4910"/><path d="M224.14 1169.676a2.5 2.5 0 0 1-2.498-2.621c6.332-130.485 54.831-206.511 157.255-246.507 89.808-35.069 170.485-12.312 248.51 9.697 55.64 15.695 113.176 31.922 172.547 26.104a2.496 2.496 0 0 1 2.455 1.321c21.297 40.354 23.919 95.255 22.368 134.206-1.676 42.074-8.445 75.142-8.514 75.472a2.5 2.5 0 0 1-2.447 1.993zm252.049-262.241c-30.86 0-62.58 4.926-95.473 17.771-99.65 38.913-147.203 112.825-153.945 239.469l584.983-.332c3.121-16.588 23.067-132.369-12.997-202.857-59.705 5.446-117.146-10.755-172.707-26.427-48.442-13.665-97.928-27.623-149.861-27.623z"/><path d="M821.767 1085.22H235.033a2.5 2.5 0 1 1 0-5h586.734a2.5 2.5 0 1 1 0 5z"/><path d="M317.093 1168.334a2.5 2.5 0 0 1-2.5-2.5v-82.233a2.5 2.5 0 1 1 5 0v82.233a2.5 2.5 0 0 1-2.5 2.5zm54.837 0a2.5 2.5 0 0 1-2.5-2.5v-82.233a2.5 2.5 0 1 1 5 0v82.233a2.5 2.5 0 0 1-2.5 2.5zm54.838 0a2.5 2.5 0 0 1-2.5-2.5v-82.233a2.5 2.5 0 1 1 5 0v82.233a2.5 2.5 0 0 1-2.5 2.5zm82.257 0a2.5 2.5 0 0 1-2.5-2.5v-82.233a2.5 2.5 0 1 1 5 0v82.233a2.5 2.5 0 0 1-2.5 2.5zm54.824 0a2.5 2.5 0 0 1-2.5-2.5v-82.233a2.5 2.5 0 1 1 5 0v82.233a2.5 2.5 0 0 1-2.5 2.5zm109.676 0a2.5 2.5 0 0 1-2.5-2.5v-82.233a2.5 2.5 0 1 1 5 0v82.233a2.5 2.5 0 0 1-2.5 2.5zm54.838 0a2.5 2.5 0 0 1-2.5-2.5v-82.233a2.5 2.5 0 1 1 5 0v82.233a2.5 2.5 0 0 1-2.5 2.5zM347.751 1004.33c-7.265 0-13.909-1.031-19.913-3.097-24.008-8.263-28.845-29.818-29.039-30.731a2.5 2.5 0 0 1 4.89-1.045c.175.805 4.53 19.792 25.878 27.083 26.286 8.978 80.396.558 188.888-90.539a2.499 2.499 0 1 1 3.214 3.829c-49.075 41.207-91.611 69.308-126.428 83.523-17.906 7.311-33.797 10.978-47.49 10.978z"/><path d="M663.703 1019.863c0-22.766 17.964-41.213 40.122-41.213s40.122 18.447 40.122 41.213-17.964 41.201-40.122 41.201-40.122-18.448-40.122-41.201z" fill="#ef4910"/><path d="M703.825 1063.565c-23.501 0-42.621-19.604-42.621-43.701s19.12-43.713 42.621-43.713 42.622 19.609 42.622 43.713-19.12 43.701-42.622 43.701zm0-82.414c-20.744 0-37.621 17.367-37.621 38.713s16.877 38.701 37.621 38.701 37.622-17.361 37.622-38.701-16.877-38.713-37.622-38.713z"/><path d="M1440.214 756.78c39.239 49.751 118.119 413.903-188.723 409.55-84.334 0-160.617-275.918-145.049-400.154l102.551-60.659z" fill="#6f5490"/><path d="M1256.856 1168.868c-1.791 0-3.59-.013-5.399-.038a2.501 2.501 0 0 1 .034-5h.036c96.882 1.377 163.682-33.795 198.604-104.532 29.684-60.128 29.194-130.992 23.558-179.85-6.591-57.122-22.77-104.275-34.901-120.423l-229.371-50.853-101.701 60.156a2.5 2.5 0 1 1-2.545-4.304l102.551-60.659a2.493 2.493 0 0 1 1.813-.289l231.222 51.263a2.5 2.5 0 0 1 1.422.893c12.612 15.992 29.684 64.76 36.478 123.642 5.715 49.527 6.183 121.416-24.041 182.637-16.608 33.641-40.697 59.795-71.6 77.737-33.865 19.663-76.289 29.619-126.158 29.62z"/><path d="M804.129 99.859c89.934-6.976 171.022-11.38 233.89-7.613l35.785 14.565-200.997 36.131zM656.35 59.126h52.657c40.557 9.056 71.393 23.077 95.122 40.733-55.223 26.812-105.27 18.569-147.779-40.733z" fill="#fff"/><path d="m779.27 101.75-2.856 383.264a4.73 4.73 0 0 1-4.567 4.864L645.368 449.62a4.726 4.726 0 0 1-4.491-4.935l2.854-383.263a4.717 4.717 0 0 1 4.562-4.86L774.781 96.82a4.724 4.724 0 0 1 4.488 4.931z" fill="#fbb348"/><path d="M771.846 492.378a2.5 2.5 0 0 1-.758-.118l-126.201-40.17c-3.791-.373-6.682-3.672-6.508-7.518l2.852-383.169c-.121-3.875 3.01-7.211 6.98-7.34.283-.009.567.03.839.116l126.211 40.169c3.772.372 6.652 3.642 6.508 7.463l-2.855 383.221c.113 3.874-3.019 7.209-6.982 7.344l-.085.001zM648.024 59.099a2.221 2.221 0 0 0-1.794 2.245l-2.854 383.358c-.058 1.316.892 2.359 2.113 2.419.216.01.43.049.636.115l125.988 40.102a2.235 2.235 0 0 0 1.801-2.253l2.854-383.355c0-.031 0-.063.003-.094a2.23 2.23 0 0 0-2.114-2.322 2.494 2.494 0 0 1-.635-.115L648.023 59.097z"/><path d="m807.477 493.549 1.888-383.27a4.728 4.728 0 0 1 4.555-4.875l265.619 1.437a4.726 4.726 0 0 1 4.503 4.923l-1.885 383.269a4.719 4.719 0 0 1-4.55 4.872l-265.629-1.437a4.725 4.725 0 0 1-4.501-4.92z" fill="#fbb348"/><path d="M1077.607 502.406h-.015l-265.628-1.437-.103-.003c-3.946-.184-7.024-3.531-6.885-7.472l1.888-383.227c-.124-3.874 3-7.217 6.964-7.361l.104-.002 265.619 1.437.103.003c3.966.184 7.054 3.561 6.885 7.528l-1.883 383.174c.13 3.875-2.993 7.219-6.963 7.358l-.087.002zm-265.555-6.436 265.507 1.436a2.222 2.222 0 0 0 2.099-2.289l1.884-383.364c.054-1.302-.875-2.333-2.077-2.411l-265.496-1.437a2.233 2.233 0 0 0-2.104 2.296l-1.887 383.361c0 .031 0 .063-.002.094a2.228 2.228 0 0 0 2.077 2.314z"/><path d="m768.961 482.952.777-373.28c.013-7.745 6.301-14.012 14.044-13.999l29.253 6.017c7.741.024 13.999 6.317 13.979 14.058l-.772 373.287c-.016 7.742-6.302 14.008-14.044 13.999l-29.251-6.029c-7.742-.02-14.003-6.312-13.985-14.054z" fill="#fbb348"/><path d="M812.215 505.535a2.353 2.353 0 0 1-.522-.052l-29.016-5.98c-8.985-.164-16.236-7.537-16.217-16.556l.777-373.28a16.41 16.41 0 0 1 4.858-11.674 16.414 16.414 0 0 1 11.661-4.82c.187 0 .354.016.528.051l29.018 5.969c8.985.168 16.233 7.544 16.211 16.562l-.772 373.286c-.019 9.098-7.431 16.493-16.526 16.494zm-28.678-407.36a11.442 11.442 0 0 0-7.912 3.359 11.442 11.442 0 0 0-3.388 8.141l-.777 373.283c-.014 6.351 5.142 11.532 11.492 11.549.167 0 .334.018.498.052l28.991 5.975c6.24-.121 11.287-5.231 11.3-11.502l.772-373.287c.016-6.351-5.137-11.534-11.487-11.553a2.5 2.5 0 0 1-.496-.051l-28.993-5.964z"/><path d="M804.127 102.359a2.49 2.49 0 0 1-1.49-.494c-24.843-18.485-55.561-31.648-93.905-40.239h-52.381a2.5 2.5 0 1 1 0-5h52.657c.184 0 .366.02.545.06 39.169 8.746 70.593 22.212 96.068 41.167a2.5 2.5 0 0 1-1.494 4.506z"/><path d="M1073.802 109.312c-.313 0-.633-.06-.941-.185l-35.402-14.41c-67.288-3.987-155.592 1.62-233.137 7.635-1.343.107-2.579-.922-2.686-2.299s.922-2.579 2.299-2.686c77.871-6.04 166.598-11.668 234.233-7.616.272.016.54.077.793.18l35.784 14.565a2.5 2.5 0 0 1-.943 4.816z"/><path d="M1343.906 367.757s-92.471 16.192-86.64 91.562c0 0-37.275 113.054-45.77 142.607-13.244 46.092-31.109 140.733 52.135 185.182 95.267 50.868 188.068 9.184 212.212-44.448 16.168-35.914 59.057-96.148-21.991-302.174 0 0-5.398-93.838-109.946-72.727z" fill="#92acef"/><path d="M1352.023 812.697c-29.91 0-60.518-7.872-89.569-23.384-60.918-32.527-79.369-97.563-53.36-188.078a2.498 2.498 0 0 1 3.093-1.712 2.499 2.499 0 0 1 1.712 3.093c-17.627 61.345-23.103 142.766 50.911 182.286 45.431 24.258 94.698 29.347 138.731 14.33 32.617-11.124 58.794-32.656 70.023-57.6 1.176-2.612 2.487-5.342 3.875-8.232 17.091-35.582 48.903-101.814-25.913-292.001a2.507 2.507 0 0 1-.17-.77c-.021-.371-2.507-37.38-30.007-58.563-18.701-14.404-44.592-18.393-76.948-11.859-.291.052-23.095 4.169-44.83 17.28-28.753 17.343-42.148 41.446-39.813 71.638a2.5 2.5 0 0 1-4.985.385c-2.463-31.824 12.178-58.235 42.337-76.379 22.528-13.553 45.401-17.669 46.363-17.838 33.805-6.826 61.064-2.51 80.966 12.841 28.035 21.626 31.547 57.326 31.88 61.793 32.594 82.937 48.694 152.031 47.852 205.359-.72 45.503-13.149 71.381-22.226 90.277-1.374 2.861-2.672 5.564-3.823 8.12-11.787 26.182-39.064 48.717-72.969 60.28-17.119 5.839-34.997 8.732-53.131 8.732z"/><path d="M1197.487 496.745s41.901 58.186 54.302 75.853c17.113 24.379-47.983 74.446-67.818 53.016-12.936-13.976-56.811-65.766-56.811-65.766l70.326-63.102z" fill="#ffaac3"/><path d="M1197.307 633.376c-5.938 0-11.229-1.807-15.171-6.065-12.824-13.856-56.444-65.33-56.883-65.849a2.5 2.5 0 0 1 .237-3.477l70.326-63.102a2.497 2.497 0 0 1 3.698.4c.42.582 42.053 58.4 54.32 75.877 9.441 13.45-2.807 32.777-19.134 45.964-11.352 9.168-25.64 16.251-37.395 16.251zm-66.667-73.292c7.956 9.376 43.799 51.55 55.166 63.831 9.041 9.766 30.32 1.786 45.753-10.679 14.048-11.346 25.729-28.453 18.185-39.202-10.863-15.476-44.814-62.67-52.659-73.569l-66.444 59.619z"/><path d="M1060.528 412.596c-57.461-61.59-141.081-112.444-114.285-147.969 10.636-14.101 31.056-7.898 57.61 10.389 32.137 22.131 87.592 75.672 99.896 94.591 23.411 35.997-6.382 82.476-43.222 42.989z" fill="#ffaac3"/><path d="M1197.487 496.745c-7.259-10.096-58.293-92.278-93.738-127.139s-123.854 83.479-113.638 111.858c17.769 49.364 78.193 101.005 156.387 98.157 53.581-1.952 70.778-55.353 50.99-82.876z" fill="#ffaac3"/><path d="M1060.529 415.096a2.49 2.49 0 0 1-1.83-.796c-22.922-24.597-45.003-44.515-64.484-62.088-41.987-37.875-69.726-62.897-49.968-89.091 10.752-14.254 30.711-11.039 61.024 9.835 29.206 20.112 62.974 52.077 100.363 95.007a2.499 2.499 0 1 1-3.769 3.284c-37.115-42.614-70.568-74.299-99.43-94.173-27.657-19.045-45.385-22.625-54.196-10.942-17.001 22.538 7.964 45.058 49.325 82.367 19.557 17.641 41.723 37.636 64.793 62.391a2.5 2.5 0 0 1-1.828 4.204z"/><path d="M1083.173 412.453a2.491 2.491 0 0 1-1.675-.645c-34.852-31.481-67.186-54.655-98.85-70.847a2.5 2.5 0 0 1 2.277-4.452c32.058 16.393 64.743 39.809 99.924 71.588a2.502 2.502 0 0 1 .18 3.531 2.496 2.496 0 0 1-1.856.824z"/><path d="M1035.438 460.282c-24.679-29.019-91.493-63.726-113.112-80.274-41.624-31.86-1.782-75.04 68.474-37.577 42.65 22.742 78.106 52.103 92.375 67.521 38.228 41.307-23.058 79.349-47.737 50.33z" fill="#ffaac3"/><path d="M1035.438 462.782a2.488 2.488 0 0 1-1.73-.696c-39.488-37.882-68.01-53.728-88.836-65.299-9.274-5.153-17.285-9.604-24.065-14.794-16.757-12.826-22.346-29.256-14.24-41.858 10.816-16.819 43.628-22.189 85.411.09 42.428 22.625 92.371 67.42 92.87 67.87a2.499 2.499 0 1 1-3.345 3.716c-.495-.446-49.994-44.839-91.878-67.173-39.114-20.857-69.274-16.69-78.853-1.797-6.693 10.406-1.684 23.887 13.074 35.183 6.489 4.968 14.352 9.336 23.455 14.393 21.064 11.703 49.913 27.732 89.868 66.062a2.5 2.5 0 0 1-1.731 4.304zm173.557 52.458a2.495 2.495 0 0 1-2.031-1.04l-11.506-15.995a2.58 2.58 0 0 1-.186-.3c-2.675-4.586-57.39-88.159-93.348-126.59a2.499 2.499 0 1 1 3.65-3.416c36.096 38.578 89.047 119.763 93.903 127.415l.038-.028 11.506 15.995a2.499 2.499 0 0 1-2.027 3.96zm-71.232 67.45c-3.53 0-7.123-.259-10.752-.778-36.874-4.948-68.469-17.984-93.886-38.745-25.563-20.881-38.762-44.568-45.331-60.763a2.498 2.498 0 0 1 1.377-3.256 2.499 2.499 0 0 1 3.256 1.377c10.099 24.893 43.495 84.121 135.27 96.435 6.359.908 12.567.969 18.471.183a2.5 2.5 0 1 1 .661 4.957 68.715 68.715 0 0 1-9.064.591z"/><path d="M990.111 481.464c-11.453-27.705-45.117-32.274-65.23-43.525-20.108-11.259-37.121-26.126-29.492-43.193 23.646-52.897 177.356 64.605 177.356 64.605-28.231 31.77-59.675 20.49-82.634 22.112z" fill="#ffaac3"/><path d="M990.112 483.965a2.503 2.503 0 0 1-2.312-1.546c-7.911-19.138-27.615-26.929-44.999-33.803-6.936-2.742-13.487-5.333-19.142-8.495-27.222-15.243-37.501-30.852-30.553-46.395 3.26-7.292 8.944-12.014 16.896-14.035 46.48-11.816 159.473 74.015 164.261 77.674a2.5 2.5 0 1 1-3.037 3.972c-1.152-.882-115.849-88.023-159.993-76.801-6.485 1.648-10.922 5.322-13.563 11.23-5.711 12.775 3.854 26.23 28.431 39.991 5.361 2.999 11.762 5.53 18.537 8.209 18.309 7.239 39.061 15.445 47.782 36.542a2.501 2.501 0 0 1-2.309 3.456z"/><path d="M1407.449 683.388s37.766 53.679 44.283 86.544c6.517 32.866-31.344 229.781 104.747 220.219 0 0 42.425 11.887 68.395-18.006 13.608-15.664 12.779-34.224 15.179-53.764 2.401-19.54 34.075-96.263-4.862-173.252-20.281-40.101-50.88-91.009-62.393-117.345-22.85-86.888-29.828-127.272-76.142-174.463-20.662-21.053-61.834-22.962-97.677.648-47.052 25.179-44.676 154.65 8.47 229.419z" fill="#92acef"/><path d="M1573.663 994.88c-6.312 0-12.247-.8-17.385-2.22-29.255 1.963-52.848-5.455-70.126-22.055-40.376-38.793-37.965-118.87-36.524-166.715.463-15.368.828-27.507-.358-33.485-6.343-31.966-43.528-85.06-43.903-85.592a2.5 2.5 0 1 1 4.087-2.878c1.556 2.209 38.171 54.492 44.72 87.497 1.297 6.535.924 18.924.452 34.609-1.416 47.015-3.785 125.704 34.99 162.959 16.302 15.662 38.748 22.608 66.747 20.643.285-.02.582.01.861.09 15.508 4.427 39.121 2.713 56.923-11.098 15.463-11.997 23.303-30.697 22.673-54.08-.131-4.847 1.63-12.293 4.067-22.598 7.618-32.211 21.799-92.167-7.947-153.741-12.22-25.294-22.491-42.302-31.553-57.308-11.189-18.53-20.854-34.533-30.862-60.224-4.16-10.676-6.957-23.409-10.195-38.153-8.765-39.897-19.671-89.55-65.439-135.452-21.035-21.098-61.699-20.683-94.588.968a2.5 2.5 0 0 1-2.75-4.177c17.355-11.425 37.212-17.615 55.91-17.417 18.195.189 34.166 6.26 44.969 17.095 46.798 46.935 58.348 99.516 66.781 137.909 3.194 14.54 5.953 27.098 9.971 37.411 9.854 25.29 19.414 41.123 30.484 59.455 9.118 15.1 19.453 32.214 31.774 57.718 30.519 63.172 16.072 124.252 8.312 157.067-2.262 9.563-4.049 17.116-3.936 21.312.853 31.634-12.91 49.091-24.606 58.165-13.177 10.223-29.316 14.295-43.549 14.295z"/><path d="M1589.503 973.224c-79.502 57.02-203.283-2.256-248.843-78.943-27.04-45.514-70.939-88.505-146.298-149.153-75.36-60.648-62.408-108.06-41.33-136.604 18.933-25.64 62.402-42.785 62.402-42.785 4.399-6.343 17.594-47.786 52.976-47.786 59.741 0 80.568 62.262 102.518 90.323 21.951 28.061 38.898 47.905 66.429 57.813 209.934 75.547 214.934 262.102 152.146 307.135z" fill="#92acef"/><path d="M1514.249 998.794c-26.479 0-54.336-6.553-81.441-19.434-39.363-18.706-73.732-49.25-94.295-83.8-25.657-43.111-66.513-84.742-145.718-148.484-59.845-48.162-73.906-95.268-41.793-140.01 17.653-24.596 56.557-40.873 62.753-43.352.597-1.029 1.41-2.71 2.325-4.6 6.321-13.058 21.126-43.638 52.329-43.661h.072c48.886 0 71.47 37.916 89.618 68.386 5.109 8.578 9.936 16.68 14.798 22.897 22.032 28.164 38.479 47.347 65.308 57.001a2.5 2.5 0 0 1-1.693 4.705c-28.09-10.108-44.984-29.775-67.552-58.625-5.059-6.467-9.964-14.701-15.156-23.419-17.5-29.381-39.279-65.944-85.324-65.944h-.066c-28.071.021-41.419 27.591-47.833 40.84-1.315 2.718-2.266 4.681-3.091 5.871a2.507 2.507 0 0 1-1.155.908c-.432.167-43.344 16.933-61.27 41.91-13.027 18.15-17.953 36.053-15.061 54.731 3.93 25.364 22.745 51.765 55.926 78.468 79.71 64.148 120.891 106.155 146.88 149.822 38.744 65.098 131.173 119.838 212.936 94.758 19.293-5.918 31.518-13.817 37.373-24.149a2.5 2.5 0 1 1 4.349 2.465c-6.515 11.497-19.683 20.154-40.256 26.464-13.631 4.181-28.081 6.251-42.963 6.252z"/><path d="M1556.089 747.629a2.491 2.491 0 0 1-1.905-.881c-45.373-53.373-117.294-78.23-118.016-78.475a2.5 2.5 0 0 1 1.607-4.735c.734.249 73.932 25.524 120.218 79.972a2.5 2.5 0 0 1-1.903 4.119z"/><path d="M1124.84 817.499c-64.915 4.868-469.208 17.912-558.6 95.759-111.878 83.693-258.033 307.467-386.724 587.845-112.339 174.391 348.153 57.447 399.042 26.214 34.959-73.387 124.774-266.908 155.452-360.362 221.76.902 492.034 4.078 557.771-2.336l-166.942-347.121z" fill="#6f5490"/><path d="M734.012 1169.457a2.5 2.5 0 0 1-2.418-3.144l12.738-47.825a2.501 2.501 0 0 1 4.832 1.287l-12.738 47.825a2.501 2.501 0 0 1-2.414 1.857z"/><path d="M382.836 1562.739c-56.667.002-116.346-6.086-167.491-20.871-33.332-9.639-49.681-19.167-49.979-29.129-.23-7.67 9.08-12.242 12.273-13.583 4.835-11.025 51.1-115.567 118.699-235.743 41.791-74.292 83.444-139.947 123.803-195.139 50.514-69.081 99.154-121.901 144.571-156.995 33.259-25.7 94.067-45.83 185.899-61.543 91.215-15.607 213.587-26.969 374.107-34.736 1.35-.067 2.552.997 2.618 2.376s-.997 2.551-2.376 2.618c-160.317 7.757-282.492 19.098-373.507 34.67-91.005 15.571-151.089 35.384-183.686 60.571-102.102 78.894-201.591 234.219-267.072 350.629-71.009 126.235-118.415 235.147-118.886 236.232a2.503 2.503 0 0 1-1.456 1.361c-2.635.945-10.132 4.653-9.991 9.136.104 3.356 4.834 12.458 46.37 24.47 58.129 16.803 132.528 23.713 209.484 19.459 67.233-3.717 124.725-15.565 150.423-30.967 42.657-86.236 123.998-268.549 155.004-359.408a2.501 2.501 0 0 1 2.366-1.693h.023c5.29.051 529.123 4.964 557.123-2.257a2.5 2.5 0 1 1 1.248 4.841c-28.075 7.241-517.25 2.802-556.614 2.432-31.578 91.84-112.629 273.402-154.992 358.954a2.503 2.503 0 0 1-.933 1.021c-31.126 19.104-110.555 33.289-197.03 33.291z"/><path d="M1365.784 40.521c-114.32-115.667-281.313 54.904-89.957 212.858 79.319 24.717 160.76 24.033 239.906 19.139 82.729-12.983 67.409-138.544-14.554-139.31 24.512-71.239-72.005-139.413-135.395-92.687z" fill="#ef4910"/><path d="M1439.094 277.721c-54.223 0-109.691-5.029-164.011-21.956a2.497 2.497 0 0 1-.848-.459c-35.17-29.031-60.274-60.022-74.615-92.112-12.54-28.06-16.391-56.576-11.138-82.466 7.526-37.088 33.624-66.513 68.11-76.792 37.004-11.028 76.79 1.112 109.456 33.316 15.38-10.74 33.514-15.712 52.62-14.391 17.904 1.238 36.19 8.108 51.489 19.345 30.478 22.385 43.735 56.838 34.408 88.601 18.979.962 35.528 8.571 48.026 22.125 11.816 12.814 19.063 29.969 20.407 48.303 2.338 31.9-14.343 67.076-56.88 73.751a2.594 2.594 0 0 1-.233.026c-25.128 1.554-50.821 2.708-76.793 2.708zm-162.054-26.584c79.38 24.633 161.486 23.645 238.42 18.892 39.311-6.228 54.722-38.843 52.554-68.428-2.306-31.457-24.211-65.495-66.858-65.894a2.498 2.498 0 0 1-2.341-3.313c10.501-30.519-1.909-64.338-31.616-86.158-24.253-17.812-64.974-29.47-99.932-3.704a2.5 2.5 0 0 1-3.262-.255c-31.604-31.977-70.233-44.205-105.983-33.55-32.713 9.75-57.481 37.72-64.639 72.994-11.063 54.524 19.424 116.251 83.657 169.415z" fill="#111"/><path d="m1293.002 341.237 9.965 77.815s60.374 35.99 110.212-12.204l-11.076-93.041" fill="#ffaac3"/><path d="M1352.503 434.444c-4.816 0-9.339-.37-13.464-.945-21.575-3.009-36.718-11.922-37.352-12.299a2.5 2.5 0 0 1-1.199-1.83l-9.966-77.815a2.498 2.498 0 0 1 2.162-2.797 2.503 2.503 0 0 1 2.797 2.162l9.806 76.564c3.727 2.009 17.109 8.678 34.62 11.088 27.022 3.718 50.779-3.907 70.643-22.667l-10.929-91.801a2.5 2.5 0 1 1 4.965-.591l11.076 93.041a2.5 2.5 0 0 1-.744 2.093c-21.012 20.318-43.874 25.798-62.415 25.798z" fill="#111"/><path d="M1294.607 132.231c-19.747-.054-66.771 20.977-75.329 88.878 0 0-36.764-13.111-36.993 8.122-.234 21.223 31.524 28.69 31.524 28.69-1.648 18.726 13.603 116.016 114.81 108.798 40.411-2.882 71.271-27.496 83.006-51.003 0 0 39.284 34.946 88.069 5.996 42.762-25.376 46.396-75.666 17.332-103.51-29.063-27.843-76.004-31.312-101.584 8.481-50.943 2.939-113.152-44.085-120.836-94.452z" fill="#ffaac3"/><g fill="#111"><path d="M1318.057 369.603c-30.199.001-54.971-9.643-73.757-28.743-26.771-27.218-33.393-66.68-33.09-81.049-7.338-2.128-31.645-10.686-31.425-30.608.055-5.051 1.909-8.886 5.513-11.398 8.631-6.015 25.18-1.997 31.903.01 5.246-36.085 21.219-57.12 33.874-68.489 16.107-14.469 33.455-19.596 43.458-19.596h.08a2.502 2.502 0 0 1 2.465 2.123c3.537 23.188 19.303 47.103 43.254 65.615 21.988 16.995 48.062 26.84 70.656 26.841 1.027 0 2.047-.02 3.059-.061 11.279-16.966 27.001-27.077 45.542-29.271 20.521-2.428 42.635 5.58 59.167 21.419 14.498 13.889 21.492 33.366 19.19 53.437-2.51 21.88-15.987 41.572-36.977 54.027-26.003 15.43-49.358 12.915-64.369 8.089-11.758-3.78-20.236-9.425-24.178-12.392-12.855 23.079-43.023 46.759-83.626 49.655-3.65.26-7.234.391-10.74.391zm-120.129-149.991c-3.845 0-7.366.618-9.772 2.297-2.231 1.556-3.334 3.96-3.37 7.349-.21 18.961 29.299 26.159 29.597 26.229a2.502 2.502 0 0 1 1.917 2.652c-1.016 11.549 4.577 51.776 31.565 79.215 19.894 20.225 47.007 29.265 80.577 26.871 40.021-2.854 70.015-27.726 80.947-49.626a2.497 2.497 0 0 1 3.898-.751c.094.083 9.746 8.532 25.035 13.403 20.352 6.484 40.572 3.897 60.098-7.689 19.633-11.651 32.229-29.984 34.56-50.297 2.123-18.505-4.322-36.458-17.682-49.257-15.466-14.817-36.071-22.317-55.12-20.064-17.399 2.058-32.141 11.772-42.632 28.092a2.497 2.497 0 0 1-1.959 1.144c-25.058 1.445-53.619-8.669-78.313-27.754-24.21-18.712-40.417-42.876-44.77-66.621-9.331.645-24.092 5.671-38.087 18.243-12.368 11.11-28.073 31.991-32.659 68.375a2.5 2.5 0 0 1-3.319 2.042c-3.981-1.417-12.882-3.852-20.511-3.852z"/><path d="M1427.821 288.673a2.5 2.5 0 0 1-2.12-3.822c.314-.505 7.858-12.494 21.674-24.464 18.394-15.936 39.158-24.045 60.033-23.452a2.5 2.5 0 0 1-.07 4.999h-.072c-47.431-1.354-77.028 45.094-77.321 45.563a2.501 2.501 0 0 1-2.123 1.176z"/><path d="M1470.835 286.269a2.496 2.496 0 0 1-2.075-1.103c-8.428-12.501-24.335-15.999-24.495-16.032a2.5 2.5 0 0 1 1.027-4.893c.732.153 18.029 3.914 27.614 18.13a2.5 2.5 0 0 1-2.072 3.897zm-246.782 20.613a2.5 2.5 0 0 1-.007-5c.838-.006 20.1-.41 29.394-23.345a2.501 2.501 0 0 1 4.635 1.878c-10.604 26.166-33.07 26.467-34.021 26.467z"/></g><path d="M1247.919 212.403c2.513-1.916 6.1-1.438 8.018 1.079s1.43 6.101-1.083 8.017-6.1 1.438-8.018-1.079a5.717 5.717 0 0 1 1.083-8.017z"/><path d="M1303.016 269.089c15.047-11.472 36.545-8.572 48.014 6.47 11.475 15.051 8.578 36.55-6.469 48.022-15.046 11.471-36.545 8.572-48.02-6.479-11.468-15.042-8.57-36.542 6.476-48.013z" fill="#ff6996"/><path d="M1295.003 136.448a2.501 2.501 0 0 1-2.42-1.88c-3.637-14.192-3.31-25.549-3.071-33.842l.059-2.122a2.5 2.5 0 0 1 4.999.124l-.059 2.141c-.23 7.996-.545 18.947 2.917 32.457a2.499 2.499 0 0 1-2.424 3.121zm84.703-76.575a2.496 2.496 0 0 1-2.051-1.068c-.068-.098-6.917-9.859-13.631-16.508a2.5 2.5 0 0 1 3.519-3.552c7.039 6.973 13.92 16.782 14.209 17.196a2.5 2.5 0 0 1-2.047 3.932zm116.109 88.091a2.5 2.5 0 0 1-2.234-3.618c.03-.06 3.035-6.089 5.258-12.016a2.5 2.5 0 0 1 4.682 1.756c-2.317 6.18-5.34 12.242-5.467 12.497a2.5 2.5 0 0 1-2.238 1.382z" fill="#111"/><path d="M622.469 200.488s-24.699-32.856 3.421-59.138c26.555-24.826 107.396 40.446 81.018 79.675-11.486 17.083-27.834 9.656-27.834 9.656" fill="#ffaac3"/><path d="M687.571 234.737c-5.479 0-9.446-1.742-9.531-1.78a2.5 2.5 0 1 1 2.069-4.552c.583.26 14.605 6.274 24.726-8.774 12.815-19.059-1.917-45.025-22.203-62.303-18.245-15.542-43.009-25.391-55.033-14.15-26.115 24.409-4.079 54.541-3.128 55.812a2.502 2.502 0 0 1-.501 3.499 2.498 2.498 0 0 1-3.497-.497c-.261-.347-25.709-34.969 3.712-62.467 14.824-13.858 42.37-2.46 61.689 13.996 21.978 18.719 37.646 47.282 23.109 68.9-6.715 9.987-15.074 12.317-21.411 12.317z"/><path d="M618.209 273.491s-34.086-38.924-6.97-66.797c27.13-27.873 121.858 60.57 80.383 91.688" fill="#ffaac3"/><path d="M691.625 300.883a2.5 2.5 0 0 1-1.502-4.5c7.674-5.758 10.648-13.955 8.843-24.364-4.625-26.651-38.654-58.788-63.269-66.403-6.985-2.161-16.586-3.424-22.666 2.823-25.215 25.919 6.733 63.034 7.06 63.406a2.5 2.5 0 0 1-3.761 3.294c-.359-.411-8.872-10.217-14.104-23.688-7.095-18.27-4.598-34.349 7.223-46.499 6.211-6.381 15.798-7.802 27.727-4.112 26.093 8.072 61.67 41.241 66.717 70.325 2.124 12.236-1.6 22.339-10.769 29.218-.449.337-.976.5-1.498.5z"/><path d="M626.734 362.015s-40.823-50.908-21.062-81.951c25.492-40.033 116.188 23.895 89.763 64.769-17.428 26.974-54.953-1.501-54.953-1.501" fill="#ffaac3"/><path d="M626.735 364.515c-.732 0-1.458-.32-1.951-.936-1.713-2.136-41.708-52.675-21.221-84.857 6.118-9.607 16.103-14.377 28.91-13.791 23.926 1.095 53.064 20.768 64.955 43.855 7.045 13.68 7.082 26.615.106 37.405-4.429 6.854-10.454 10.995-17.907 12.305-18.708 3.288-39.77-12.499-40.656-13.172a2.5 2.5 0 0 1 3.021-3.984c.201.152 20.243 15.145 36.781 12.229 6.022-1.062 10.922-4.458 14.563-10.092 7.515-11.624 3.956-24.036-.353-32.402-10.971-21.301-38.785-40.145-60.738-41.149-7.602-.349-18.02 1.362-24.464 11.482-18.568 29.169 20.507 78.549 20.904 79.044a2.501 2.501 0 0 1-1.951 4.064z"/><path d="m2.5 1735.656 589.675-.335s27.108-130.835-13.617-208.003c-142.479 13.962-266.89-95.903-420.392-35.961C53.312 1532.302 8.554 1610.888 2.5 1735.656z" fill="#fff"/><path d="M13.392 1651.2c-5.896 23.643-9.757 53.902-10.892 84.456l589.675-.335s5.447-33.313 7.951-84.121z" fill="#ef4910"/><path d="M2.5 1738.156a2.5 2.5 0 0 1-2.498-2.621c6.332-130.485 54.831-206.511 157.255-246.507 89.808-35.069 170.487-12.311 248.51 9.698 55.638 15.694 113.17 31.923 172.547 26.104a2.504 2.504 0 0 1 2.455 1.321c21.297 40.354 23.919 95.255 22.368 134.206-1.676 42.074-8.445 75.143-8.514 75.471a2.5 2.5 0 0 1-2.447 1.993zm252.049-262.241c-30.86 0-62.58 4.926-95.473 17.771-99.65 38.913-147.203 112.825-153.945 239.469l584.983-.332c3.121-16.588 23.067-132.369-12.997-202.857-59.709 5.446-117.146-10.755-172.707-26.427-48.443-13.665-97.929-27.623-149.861-27.623z"/><path d="M600.127 1653.7H13.392a2.5 2.5 0 1 1 0-5h586.735a2.5 2.5 0 1 1 0 5z"/><path d="M95.453 1736.813a2.5 2.5 0 0 1-2.5-2.5v-82.233a2.5 2.5 0 1 1 5 0v82.233a2.5 2.5 0 0 1-2.5 2.5zm54.837 0a2.5 2.5 0 0 1-2.5-2.5v-82.233a2.5 2.5 0 1 1 5 0v82.233a2.5 2.5 0 0 1-2.5 2.5zm54.838 0a2.5 2.5 0 0 1-2.5-2.5v-82.233a2.5 2.5 0 1 1 5 0v82.233a2.5 2.5 0 0 1-2.5 2.5zm82.256 0a2.5 2.5 0 0 1-2.5-2.5v-82.233a2.5 2.5 0 1 1 5 0v82.233a2.5 2.5 0 0 1-2.5 2.5zm54.825 0a2.5 2.5 0 0 1-2.5-2.5v-82.233a2.5 2.5 0 1 1 5 0v82.233a2.5 2.5 0 0 1-2.5 2.5zm109.675 0a2.5 2.5 0 0 1-2.5-2.5v-82.233a2.5 2.5 0 1 1 5 0v82.233a2.5 2.5 0 0 1-2.5 2.5zm54.838 0a2.5 2.5 0 0 1-2.5-2.5v-82.233a2.5 2.5 0 1 1 5 0v82.233a2.5 2.5 0 0 1-2.5 2.5zM126.11 1572.81c-7.265 0-13.909-1.031-19.913-3.097-24.008-8.263-28.845-29.818-29.039-30.731a2.5 2.5 0 0 1 4.89-1.045c.175.805 4.53 19.792 25.878 27.083 26.287 8.979 80.396.558 188.888-90.539a2.5 2.5 0 0 1 3.214 3.829c-49.075 41.207-91.611 69.308-126.428 83.522-17.906 7.311-33.797 10.978-47.49 10.978z"/><path d="M442.063 1588.343c0-22.766 17.964-41.213 40.122-41.213s40.122 18.447 40.122 41.213-17.964 41.201-40.122 41.201-40.122-18.448-40.122-41.201z" fill="#ef4910"/><path d="M482.185 1632.044c-23.502 0-42.622-19.604-42.622-43.701s19.12-43.713 42.622-43.713 42.621 19.61 42.621 43.713-19.12 43.701-42.621 43.701zm0-82.414c-20.745 0-37.622 17.366-37.622 38.713s16.877 38.701 37.622 38.701 37.621-17.361 37.621-38.701-16.877-38.713-37.621-38.713z"/></svg></g><g transform="translate(1467.0 601.0) rotate(0.0 143.0 111.0) scale(0.9903938720244897 0.9945345399157781)"><svg width="288.774" height="223.22" viewBox="0 0 288.774 223.22"><g fill="#111"><path d="M120.541 223.22c-.13 0-.262-.01-.393-.031l-86.643-13.768a2.497 2.497 0 0 1-1.941-1.574L.166 125.928a2.498 2.498 0 0 1 .392-2.469l55.244-68.15a2.5 2.5 0 0 1 2.335-.895l86.643 13.768c.882.14 1.622.74 1.941 1.574l31.397 81.918c.32.834.171 1.775-.392 2.469l-55.244 68.151a2.5 2.5 0 0 1-1.942.926zm-84.825-18.51 83.792 13.315 53.427-65.908-30.364-79.223L58.779 59.58 5.35 125.487l30.365 79.223z"/><path d="M111.668 200.076a2.5 2.5 0 0 1-1.94-4.074l39.637-48.896a2.5 2.5 0 0 1 3.885 3.148l-39.637 48.896a2.494 2.494 0 0 1-1.944.926zm-62.162-9.877a2.5 2.5 0 0 1-2.335-1.606l-22.526-58.775a2.5 2.5 0 1 1 4.668-1.789l22.526 58.775a2.5 2.5 0 0 1-2.333 3.395zm79.276-97.794c-.13 0-.263-.01-.396-.031l-62.164-9.878a2.5 2.5 0 0 1 .785-4.938l62.164 9.878a2.5 2.5 0 0 1-.39 4.969zm15.603-19.254a2.5 2.5 0 0 1-1.94-4.074L197.689.926a2.5 2.5 0 0 1 2.335-.895l86.643 13.768a2.5 2.5 0 0 1-.785 4.938L200.665 5.196 146.33 72.225a2.494 2.494 0 0 1-1.944.926z"/></g></svg></g><g transform="translate(844.0 393.0) rotate(0.0 183.5 161.5) scale(0.9992458008533069 0.9988032914124563)"><svg width="367.277" height="323.387" viewBox="0 0 367.277 323.387"><circle cx="183.639" cy="161.693" fill="#92acef" r="32.346"/><path d="M183.638 196.539c-19.214 0-34.846-15.632-34.846-34.846s15.632-34.846 34.846-34.846 34.847 15.632 34.847 34.846-15.632 34.846-34.847 34.846zm0-64.692c-16.457 0-29.846 13.389-29.846 29.846s13.389 29.846 29.846 29.846 29.847-13.389 29.847-29.846-13.39-29.846-29.847-29.846z"/><path d="M183.638 215.947c-48.609 0-94.342-5.417-128.771-15.254C19.485 190.584 0 176.733 0 161.693s19.485-28.89 54.867-38.999c34.43-9.837 80.162-15.255 128.771-15.255s94.342 5.417 128.771 15.255c35.382 10.109 54.867 23.959 54.867 38.999s-19.485 28.89-54.867 39c-34.43 9.837-80.162 15.254-128.771 15.254zm0-103.508c-48.158 0-93.402 5.349-127.397 15.062C23.677 136.805 5 149.268 5 161.693s18.677 24.888 51.241 34.192c33.995 9.713 79.239 15.062 127.397 15.062s93.402-5.349 127.397-15.062c32.564-9.304 51.241-21.766 51.241-34.192s-18.677-24.887-51.241-34.192c-33.995-9.713-79.239-15.062-127.397-15.062z"/><path d="M265.731 323.188c-13.009 0-30.813-10.448-51.502-30.471-25.729-24.902-53.282-61.803-77.58-103.904S94.183 104.395 85.494 69.659c-8.931-35.698-6.675-59.497 6.351-67.015 13.027-7.519 34.763 2.436 61.204 28.027 25.729 24.903 53.281 61.803 77.579 103.904 24.299 42.101 42.466 84.417 51.156 119.154 8.931 35.698 6.676 59.497-6.351 67.015-2.835 1.636-6.084 2.445-9.702 2.445zM101.678 5.164c-2.776 0-5.233.597-7.334 1.809-10.762 6.211-12.22 28.616-4.001 61.471 8.581 34.299 26.563 76.158 50.636 117.868s51.322 78.222 76.728 102.811c24.334 23.552 44.464 33.501 55.227 27.289 10.762-6.211 12.22-28.616 4-61.471-8.58-34.299-26.563-76.159-50.636-117.868s-51.321-78.222-76.727-102.811c-19.585-18.954-36.446-29.098-47.893-29.098z"/><path d="M101.823 323.354c-3.6 0-6.832-.802-9.657-2.425-13.041-7.491-15.345-31.287-6.486-67.002 8.62-34.754 26.702-77.107 50.915-119.258 24.213-42.15 51.69-79.106 77.37-104.06 26.391-25.645 48.108-35.641 61.146-28.15 13.042 7.491 15.346 31.287 6.487 67.002-8.62 34.754-26.702 77.107-50.915 119.258-24.213 42.15-51.69 79.106-77.37 104.06-20.672 20.088-38.477 30.575-51.49 30.575zm-7.167-6.761c10.779 6.189 30.884-3.798 55.173-27.4 25.355-24.64 52.53-61.207 76.519-102.965s41.887-83.655 50.397-117.97c8.153-32.872 6.65-55.274-4.124-61.463-10.771-6.188-30.882 3.796-55.172 27.4-25.355 24.64-52.53 61.207-76.519 102.965s-41.887 83.655-50.398 117.971c-8.152 32.871-6.649 55.274 4.124 61.463z"/></svg></g></svg>