<svg xmlns="http://www.w3.org/2000/svg" viewBox="0 0 3500 2750" width="3500" height="2750"><g transform="translate(2051.0 1261.0) rotate(0.0 114.5 160.5) scale(1.1217462012481265 1.1247056844937773)"><svg width="204.146" height="285.408" viewBox="0 0 204.146 285.408"><path d="M33.512 3.142C10.94 7.124-1.237 47.452 3.522 99.078c11.2 121.492 130.534 183.83 130.534 183.83l67.59-88.77S107.3 101.934 102.438 82.7C90.173 34.189 67.625-2.876 33.512 3.142z" fill="#fbb348"/><path d="M134.055 285.408a2.51 2.51 0 0 1-1.157-.284c-.3-.158-30.525-16.113-61.664-46.79C42.44 209.966 6.887 162.818 1.033 99.307-3.933 45.441 9.245 4.884 33.078.68c31.606-5.57 57.1 23.334 71.784 81.4 3.848 15.22 72.43 84.756 98.532 110.266a2.5 2.5 0 0 1 .242 3.3l-67.591 88.77a2.5 2.5 0 0 1-1.99.992zM33.947 5.6C13.118 9.278 1.37 48.493 6.011 98.848c5.716 62.007 40.532 108.141 68.732 135.923a294.093 294.093 0 0 0 58.629 44.908l64.949-85.3c-12.814-12.59-93.624-92.546-98.307-111.068C91.937 51.363 72.609-1.211 33.947 5.6z"/></svg></g><g transform="translate(1877.0 1214.0) rotate(127.69088925972208 282.0 105.0) scale(1.0687323772852684 1.068685974259935)"><svg width="527.728" height="196.503" viewBox="0 0 527.728 196.503"><path d="m107.607 45.967-7.882 28.86a6.243 6.243 0 0 1-7.667 4.378L7.537 56.122a6.243 6.243 0 0 1-4.378-7.667l7.882-28.86a6.243 6.243 0 0 1 7.667-4.378L103.23 38.3a6.242 6.242 0 0 1 4.377 7.667z" fill="#fff"/><path d="M524.412 175.302a10.644 10.644 0 0 1-12.236 7.656l-35.089-6.604 7.104-26.013 33.574 12.148a10.644 10.644 0 0 1 6.647 12.813z" fill="#6f5490"/><path d="M514.112 186.076c-.82 0-1.649-.075-2.479-.232l-35.088-6.604a2.932 2.932 0 0 1-1.947-1.329 2.934 2.934 0 0 1-.344-2.332l7.104-26.013a2.94 2.94 0 0 1 3.834-1.989l33.574 12.148c6.605 2.39 10.331 9.571 8.48 16.349-1.628 5.964-7.133 10.002-13.134 10.002zm-33.351-12.02 31.958 6.015c3.927.738 7.81-1.698 8.859-5.543 1.05-3.846-1.063-7.92-4.812-9.276l-30.58-11.065z" fill="#111"/><path d="m497.246 146.714-10.776 39.458-42.47 7.393 20.43-74.805zM50.09 85.992l20.44-74.865 393.91 107.552-20.442 74.865z" fill="#fff"/><g fill="#111"><path d="M93.718 82.367a9.252 9.252 0 0 1-2.433-.328L6.763 58.956C1.88 57.622-1.007 52.564.326 47.681l7.881-28.86c1.335-4.884 6.394-7.771 11.275-6.438l84.521 23.083c4.883 1.334 7.771 6.391 6.438 11.275l-7.882 28.86a9.124 9.124 0 0 1-4.304 5.554 9.13 9.13 0 0 1-4.537 1.212zM17.064 17.935a3.31 3.31 0 0 0-3.189 2.435L5.994 49.229a3.31 3.31 0 0 0 2.317 4.059l84.521 23.083c.848.232 1.742.12 2.509-.318s1.317-1.148 1.55-1.999l7.882-28.86a3.31 3.31 0 0 0-2.317-4.059L17.934 18.052a3.276 3.276 0 0 0-.87-.117zm90.543 28.032h.01zM444 196.503a2.938 2.938 0 0 1-2.834-3.712l20.43-74.806a2.936 2.936 0 0 1 4.739-1.462l32.816 27.954a2.937 2.937 0 0 1 .929 3.01l-10.775 39.458a2.936 2.936 0 0 1-2.33 2.12l-42.471 7.393a2.778 2.778 0 0 1-.504.045zm22.045-72.508-17.992 65.883 36.075-6.28 9.793-35.858z"/><path d="M444.002 196.504c-.257 0-.517-.034-.776-.104L49.328 88.826a2.934 2.934 0 0 1-2.059-3.608l20.445-74.864a2.939 2.939 0 0 1 3.608-2.06L465.22 115.868a2.934 2.934 0 0 1 2.059 3.608l-20.445 74.864a2.94 2.94 0 0 1-2.832 2.164zM53.71 83.933l388.23 106.025 18.896-69.196L72.607 14.737z"/></g><path d="m157.767 36.153-19.833 72.622c-1.351 4.948-6.458 7.864-11.407 6.513L47.881 93.809c-4.948-1.351-7.864-6.458-6.513-11.407L61.201 9.781c1.351-4.948 6.458-7.864 11.407-6.513l78.646 21.478a9.29 9.29 0 0 1 6.513 11.407z" fill="#cad5f3"/><path d="M128.971 118.555c-1.063 0-2.144-.14-3.218-.433L47.106 96.643c-3.149-.86-5.776-2.896-7.396-5.732s-2.037-6.133-1.177-9.283L58.367 9.007C60.142 2.504 66.883-1.341 73.382.434l78.646 21.478a12.15 12.15 0 0 1 7.396 5.732 12.149 12.149 0 0 1 1.177 9.283l-19.832 72.621c-1.483 5.43-6.423 9.007-11.798 9.007zM70.162 5.877a6.363 6.363 0 0 0-6.127 4.678L44.202 83.177c-.447 1.636-.229 3.349.611 4.822s2.205 2.53 3.842 2.977l78.646 21.478a6.355 6.355 0 0 0 7.799-4.453l19.832-72.621a6.314 6.314 0 0 0-.611-4.822 6.308 6.308 0 0 0-3.841-2.977L71.833 6.102a6.346 6.346 0 0 0-1.671-.225z" fill="#111"/></svg></g><g transform="translate(568.0 901.0) rotate(0.0 885.0 650.0) scale(0.9994771097154822 0.9997508313312682)"><svg width="1770.926" height="1300.324" viewBox="0 0 1770.926 1300.324"><path d="M848.46 93.225S878.844-6.775 976.1 3.2s164 135.538 56.869 272.854c0 0-113.39 444.1-301.468 643.9 0 0 220.266 169.085 59.011 226.213s-356.987 64.262-356.987 64.262-301.155-111.154-303.054-300.146c-.006-286.84 258.6-277.827 309.54-449.267 0 0-47.265-140.1 34.716-270.9S693.968 53.488 848.46 93.225z" fill="#ff6996"/><path d="M433.528 1212.932a2.487 2.487 0 0 1-.866-.155c-.756-.279-76.444-28.485-151.357-79.481-44.071-30-79.283-61.914-104.66-94.858-31.859-41.357-48.235-84.466-48.673-128.13 0-76.721 18.519-139.242 56.62-191.16 33.6-45.777 77.633-77.693 120.221-108.558 57.562-41.719 111.945-81.136 132.58-149.548-1.724-5.466-11.831-39.347-13.266-86.348-1.441-47.22 5.8-117.8 48.482-185.9 19.985-31.885 44.2-57.673 71.965-76.646C570.6 94.36 600.659 81.953 633.91 75.269c57.948-11.649 127.611-6.758 212.913 14.957a160.6 160.6 0 0 1 27.064-47.353C892.3 20.734 925.027-4.552 976.357.712a122.549 122.549 0 0 1 61.143 23.979 130.007 130.007 0 0 1 41.142 53.01c25.158 59.005 9.345 131.688-43.38 199.48-2.166 8.355-30.621 116.87-80.16 246.79-30.145 79.059-62.088 150.473-94.942 212.258-40.515 76.2-82.551 137.9-124.969 183.447a561.14 561.14 0 0 1 61.1 57.017c41.355 45.333 59.86 83.873 55 114.55-4.015 25.342-24.183 44.614-59.943 57.283-159.769 56.6-355.77 64.333-357.731 64.4zM700.09 74.383c-101.579 0-174.007 38.507-223.244 117.063-41.977 66.974-49.123 136.44-47.727 182.921 1.517 50.456 13.144 85.5 13.261 85.85a2.5 2.5 0 0 1 .027 1.51c-20.948 70.5-76.182 110.53-134.66 152.911-85.927 62.275-174.779 126.67-174.775 295.645.969 96.5 82.685 172.261 151.066 218.825 71.369 48.6 143.456 76.371 149.895 78.806 11.089-.463 200.646-9.154 355.747-64.1 33.9-12.009 52.969-29.96 56.675-53.352 11.057-69.795-115.1-167.542-116.373-168.521a2.5 2.5 0 0 1-.3-3.7C826.559 815.329 903.2 646.063 950.431 522.189c51.214-134.313 79.835-245.644 80.118-246.753a2.5 2.5 0 0 1 .452-.919c51.828-66.432 67.516-137.454 43.042-194.855-17.841-41.845-54.55-69.5-98.195-73.976-39.4-4.042-72.373 9.5-98.009 40.256a155.366 155.366 0 0 0-26.987 48.011 2.5 2.5 0 0 1-3.014 1.694c-54.95-14.134-104.052-21.264-147.748-21.264z"/><path d="M841.405 126.428a2.449 2.449 0 0 1-.44-.04 2.5 2.5 0 0 1-2.025-2.9c2.793-15.735 8.442-34.952 8.5-35.144a2.5 2.5 0 1 1 4.8 1.415c-.056.189-5.628 19.147-8.372 34.6a2.5 2.5 0 0 1-2.463 2.069zM446.092 558.026a2.617 2.617 0 0 1-.429-.037 2.5 2.5 0 0 1-2.037-2.89c7.978-46.1-5.868-92.9-6.009-93.362a2.5 2.5 0 0 1 4.787-1.444c.144.479 14.333 48.368 6.149 95.658a2.5 2.5 0 0 1-2.461 2.075z"/><path d="M949.582 670.633s93.456-67.5 202.2 10.755c91.759 66.035 91.7 195.015 170.317 228.9 0 0 36.858-45.7 47.727-93.028 21.612-94.12 135.262-184.16 216.174-110.079 0 0 117.859-10.384 162.327 56.412 36.268 53.662 24.581 147.318-40.307 227.965s-64.678 119.365-100.94 172.741c-44.825 65.982-134.391 135.158-245.229 119.113-110.48-15.993-330.894-223.551-358.8-299.2z" fill="#92acef"/><path d="M1394.57 1288.292a230.549 230.549 0 0 1-33.081-2.406c-26.383-3.819-59.932-18.358-99.713-43.213-34.86-21.78-73.568-51.037-111.94-84.608-75.353-65.927-135.286-135.444-149.134-172.986a2.478 2.478 0 0 1-.119-.445l-53.465-313.58a2.5 2.5 0 0 1 1-2.447c.972-.7 24.239-17.282 61.314-24.4 34.2-6.564 86.913-5.795 143.809 35.15 46 33.1 69.547 82.606 90.323 126.282 20.629 43.367 40.129 84.364 77.765 101.565 6.351-8.252 36.537-49.043 46.06-90.511 6.635-28.892 22.109-58.292 43.57-82.784 21.753-24.821 48.38-43.052 74.979-51.334 25.967-8.085 64.46-10.772 100.875 21.97a232.613 232.613 0 0 1 60.315 1.167c31.285 4.664 74.584 18.232 103.2 56.38 18.061 24.08 24.652 61.819 18.085 103.542-6.923 43.975-27.678 89.251-58.445 127.489-39.156 48.665-54.776 82.61-68.558 112.559-9.192 19.974-17.873 38.841-32.261 60.02-25.226 37.131-60.278 69.481-98.7 91.091-37.264 20.956-76.115 31.499-115.879 31.499zm-389.1-304.729c13.531 36.314 74.187 106.462 147.655 170.739 82.647 72.307 160.807 119.648 209.078 126.636 109.159 15.8 197-50.617 242.8-118.044 14.155-20.836 22.752-39.519 31.855-59.3 13.9-30.213 29.661-64.456 69.2-113.6 30.226-37.567 50.612-82.007 57.4-125.132 6.359-40.395.11-76.758-17.145-99.764-27.593-36.791-69.573-49.909-99.932-54.435a227.473 227.473 0 0 0-60.026-1 2.5 2.5 0 0 1-2.057-.629c-34.92-31.972-71.96-29.434-96.884-21.674-53.171 16.556-101.6 71.423-115.162 130.463-10.872 47.343-47.846 93.577-48.219 94.038a2.5 2.5 0 0 1-2.935.727c-40.518-17.461-60.7-59.88-82.059-104.79-21.52-45.239-43.773-92.019-88.729-124.372-55.361-39.841-106.541-40.666-139.727-34.339-31.283 5.955-52.941 19.213-58.266 22.713z"/><path d="M1249.922 1046.534a2.5 2.5 0 0 1-2.434-3.078c9.044-38.068 29.027-92.384 72.868-134.966a2.5 2.5 0 1 1 3.483 3.586c-42.977 41.744-62.6 95.114-71.486 132.535a2.5 2.5 0 0 1-2.431 1.923zm400.165-312.774a2.466 2.466 0 0 1-.256-.013c-27.283-2.782-63.552-23.518-65.082-24.4a2.5 2.5 0 0 1 2.495-4.333c.365.211 36.88 21.086 63.094 23.758a2.5 2.5 0 0 1-.251 4.988z" fill="#161616"/><path d="M1045.2 701.315s-2.385-118.8-137.918-138.341c-118.4-17.069-176.411 10.971-204.81 91.935-29.066 82.868-507.643 631.516-50.523 631.516 121.395 0 138.659-.887 199.105-.667 164.55.6 225.752-80.863 234.2-177.673 9.983-114.354-50.036-251.129-48.386-313.834" fill="#92acef"/><path d="M836.642 1288.922c-75.842 0-150.1-.117-221.909-.229-68.817-.108-133.819-.21-197.477-.21-19.109 0-32.186-6.34-38.87-18.844-15.3-28.615 3.28-89.537 56.786-186.246 45.512-82.258 109.606-178.186 161.107-255.264 49.006-73.346 91.329-136.689 99.064-160.444 16.572-50.89 40.064-82.109 73.932-98.246 32.19-15.338 74.862-18.094 138.362-8.94 31.317 4.515 58.176 14.711 79.831 30.3a141.483 141.483 0 0 1 41.79 47.47c17.629 32.308 18.415 61.753 18.44 62.99a2.5 2.5 0 0 1-5 .1c-.007-.293-.82-29.634-17.933-60.888-15.742-28.748-48.965-65.1-117.843-75.031-62.463-9-104.253-6.382-135.5 8.5-32.546 15.508-55.211 45.784-71.328 95.281-7.949 24.411-48.422 84.985-99.662 161.674-51.449 77-115.478 172.831-160.889 254.906-24.827 44.874-41.687 81.035-51.541 110.55-11 32.947-12.753 56.807-5.21 70.92 5.827 10.9 17.1 16.2 34.46 16.2 63.662 0 128.665.1 197.486.21 71.808.112 146.062.229 221.9.229 101.343 0 172.129-24.707 210.39-73.434 27.721-35.3 39.463-83.29 35.9-146.7-3.093-55-17.028-112.077-29.323-162.432-10.684-43.758-19.911-81.549-19.236-107.17a2.5 2.5 0 1 1 5 .132c-.657 24.952 8.5 62.443 19.1 105.852 12.346 50.564 26.339 107.874 29.458 163.338 3.639 64.678-8.45 113.766-36.955 150.068-18.8 23.945-45.189 42.4-78.428 54.849-36.322 13.613-82.044 20.509-135.902 20.509z"/><path d="M726.922 668.715c-106.225-72.232-215.439 19.02-286.911 89.841-54.9 54.4-74.7 77.846-165.89 124.041-73.852 37.412-227.412 58.477-265.05 224.355-20.621 90.879 11.213 194.339 153 190.822 184.119-4.566 370.95-268.8 515.571-355.866s49.28-273.193 49.28-273.193z" fill="#92acef"/><path d="M130.474 1296.506a2.479 2.479 0 0 1-.588-.07c-48.294-11.632-86.848-37.8-108.559-73.691-20.309-33.571-25.386-73.822-14.68-116.4C22.062 1045.026 51.89 998.106 97.833 962.9c39.5-30.266 83.789-46.672 122.868-61.146 19.259-7.133 37.45-13.871 52.29-21.388 83.837-42.466 107.014-65.566 153.19-111.581 3.848-3.835 7.856-7.829 12.07-12 34.117-33.806 79.854-75.616 131.144-99.064 27-12.342 53.236-18.351 77.981-17.9 28.324.534 55.56 9.56 80.952 26.826a2.5 2.5 0 0 1-2.812 4.135c-46.063-31.322-97.89-34.188-154.042-8.518-50.573 23.121-95.881 64.554-129.7 98.068a5010.202 5010.202 0 0 0-12.061 12C383.16 818.714 359.8 842 275.251 884.826c-15.095 7.647-33.417 14.434-52.814 21.618-78.79 29.183-176.845 65.5-210.942 201.117-10.372 41.257-5.493 80.192 14.11 112.6 21.015 34.736 58.465 60.1 105.452 71.417a2.5 2.5 0 0 1-.583 4.931z"/><path d="M9.071 1106.952c-31.358 129.608 54.438 192.9 153 190.822 183.663-3.867 248.513-7.368 385.327-8.46 162.487-1.3 166.633-115.625 135.675-227.827-48.719-176.575-183.348-145.34-290.78-88.453-41.254 21.845-149.6-13.04-226.339 55.84z" fill="#92acef"/><path d="M157.347 1300.324c-54.173 0-100.857-19.584-128.629-54.122C.6 1211.235-7.033 1162.879 6.641 1106.364a2.5 2.5 0 0 1 4.86 1.176c-13.295 54.951-5.994 101.816 21.114 135.529 27.6 34.327 74.763 53.378 129.4 52.206 72.833-1.534 126.762-3 174.343-4.3 71.76-1.956 128.439-3.5 211.017-4.16 59.456-.475 101.507-16.481 124.987-47.573 27.779-36.785 30.571-96.366 8.3-177.089-16.227-58.8-41.892-96.153-78.462-114.195-58.835-29.024-135.494-2.382-208.968 27.393-41.9 16.977-77.493 20.059-108.9 22.779-44.55 3.857-83.024 7.188-127.162 46.806a2.5 2.5 0 1 1-3.34-3.72c45.382-40.735 84.628-44.133 130.071-48.067 32.573-2.821 66.254-5.737 107.453-22.432 74.526-30.2 152.367-57.183 213.058-27.243 37.927 18.71 64.446 57.095 81.07 117.348 10.366 37.571 15.463 70.9 15.148 99.052-.379 33.835-8.547 61.552-24.275 82.38-24.466 32.4-67.847 49.072-128.938 49.56-82.53.659-139.188 2.2-210.92 4.158-47.589 1.3-101.526 2.768-174.374 4.3-1.6.035-3.194.052-4.776.052z"/><path d="M389.4 303.153a128.891 128.891 0 1 1 58.939-172.482A128.884 128.884 0 0 1 389.4 303.153z" fill="#ff6996"/><path d="M331.92 259.919a163.318 163.318 0 0 1-41.2-5.132c-31.423-8.168-59.379-26.139-83.093-53.413a2.5 2.5 0 0 1 .89-3.933c.311-.135 31.584-13.556 77.67-17.893 42.539-4 106.837-.9 171.614 36.618a2.5 2.5 0 0 1 .163 4.224c-.366.252-37.12 25.223-86 35.293a198.434 198.434 0 0 1-40.044 4.236zM213.74 200.74c41.483 46.113 94.307 62.961 157.064 50.078 39.446-8.1 70.842-26.1 80.918-32.359-62.351-34.893-123.9-37.782-164.882-33.95-36.896 3.449-64.086 12.796-73.1 16.231z"/><path d="M455.916 218.212a2.5 2.5 0 0 1-2.3-1.506c-.328-.757-33.606-76.006-99.815-99.392-35.641-12.589-74.506-8.08-115.511 13.4a2.5 2.5 0 0 1-2.32-4.429c42.3-22.159 82.514-26.76 119.527-13.676 35.729 12.631 61.754 39.73 77.3 60.238 16.8 22.165 25.068 41.076 25.412 41.87a2.5 2.5 0 0 1-1.3 3.287 2.473 2.473 0 0 1-.993.208z"/><path d="M332.838 318.821a131.526 131.526 0 0 1-118.161-73.5c-31.916-65.046-4.967-143.928 60.074-175.84s143.921-4.958 175.836 60.087A131.386 131.386 0 0 1 390.505 305.4a130.653 130.653 0 0 1-57.667 13.421zm-.326-257.836A126.418 126.418 0 1 0 388.3 300.909l1.1 2.244-1.1-2.244a126.471 126.471 0 0 0-55.788-239.924z"/><path d="M971.319 520.712 956.3 650.387s-97.014 38.757-153.352-13.111l20.122-133.471" fill="#fbb348"/><path d="M881.654 666.786c-33.043 0-60.578-9.419-80.4-27.671a2.5 2.5 0 0 1-.778-2.212L820.6 503.432a2.5 2.5 0 1 1 4.945.745l-19.928 132.147c28.308 25.3 67.069 27.3 94.753 24.483a232.334 232.334 0 0 0 53.619-12.219l14.847-128.164a2.5 2.5 0 1 1 4.964.576l-15.02 129.674a2.5 2.5 0 0 1-1.555 2.034A229.258 229.258 0 0 1 901 665.769a189.9 189.9 0 0 1-19.346 1.017z"/><path d="M925.016 185.9s86.522 1.5 127.3 97.406c0 0 20.706-23.557 36.3-9.7s-3.174 39.048-15.492 54.37c0 0 43.363 114.317-50.008 178.755s-184.913 7.365-188.741 6.181c0 0-91.681 76.424-183.221 9.8s-51.353-144.154 7.353-169.65C716.628 327.816 763.931 363.81 783.2 383.7c0 0 88.486 39.38 124.277-71.108 31.317-96.652-1.2-121.492 34.722-165.278" fill="#fbb348"/><path d="M732.172 552.389c-25.219 0-53.85-6.819-82.487-27.663-49.9-36.322-57.231-72.542-54.588-96.53 3.536-32.108 28.036-62.5 62.416-77.434 62.992-27.354 112.787 16.159 127.119 30.83 4 1.635 35.65 13.675 66.851-.266 24.125-10.778 42.162-34.163 53.61-69.5 14.926-46.063 15.234-75.351 15.481-98.885.267-25.413.46-43.774 19.687-67.208a2.5 2.5 0 0 1 3.865 3.172c-10.178 12.405-14.691 23.118-16.74 34.614 6.359.451 24.89 2.6 47.038 12.85 24.217 11.2 57.26 34.576 78.7 82.538 4.342-4.141 13.378-11.527 23.11-12.127a18.765 18.765 0 0 1 14.041 4.956c17.724 15.748-3.906 43.72-14.326 56.711a194.383 194.383 0 0 1 9.682 64.8c-.771 34.006-12 81.656-61.1 115.542-29.962 20.677-62.562 31.091-97.176 31.092a180.353 180.353 0 0 1-24.153-1.648 204.728 204.728 0 0 1-67.539-21.894c-.324-.169-.653-.339-.953-.493a187.9 187.9 0 0 1-56.875 29.336 153.161 153.161 0 0 1-45.663 7.207zm-33.556-205.437a97.39 97.39 0 0 0-39.111 8.4c-32.763 14.229-56.094 43.039-59.439 73.395-2.5 22.674 4.594 57.029 52.561 91.94 37.239 27.1 78.809 33.758 123.555 19.773a183.28 183.28 0 0 0 56.6-29.471 2.5 2.5 0 0 1 2.339-.467 21.489 21.489 0 0 1 2.859 1.377c36.918 19.174 109.879 43.732 183.723-7.228 37.979-26.21 57.807-63.682 58.935-111.374a190.2 190.2 0 0 0-9.845-64.438 2.5 2.5 0 0 1 .39-2.452c14.182-17.64 28.793-39.372 15.78-50.934a13.757 13.757 0 0 0-10.4-3.7c-11.212.684-22.251 13.066-22.361 13.191a2.5 2.5 0 0 1-4.177-.674c-20.712-48.708-53.568-72.173-77.485-83.282-21.793-10.122-40.348-12.128-45.884-12.514-.9 7.494-.982 15.45-1.077 24.5-.251 23.873-.563 53.585-15.724 100.373-11.912 36.774-30.882 61.185-56.383 72.554a84.5 84.5 0 0 1-34.578 7.156 97.834 97.834 0 0 1-36.711-7.088 2.519 2.519 0 0 1-.779-.545c-10.265-10.598-41.276-38.492-82.788-38.492z"/><path d="M794.414 484.05a2.5 2.5 0 0 1-1.976-.965c-.137-.177-14.026-17.841-40.552-35.481a221 221 0 0 0-119.026-36.72 2.5 2.5 0 0 1-2.458-2.541 2.526 2.526 0 0 1 2.542-2.458 225.985 225.985 0 0 1 121.886 37.672c27.142 18.086 40.981 35.719 41.557 36.46a2.5 2.5 0 0 1-1.973 4.033z"/><path d="M723.225 478.818a2.5 2.5 0 0 1-2.2-3.68c11.7-21.865 33.648-28.594 34.577-28.87a2.5 2.5 0 1 1 1.423 4.793c-.316.1-20.936 6.515-31.591 26.435a2.5 2.5 0 0 1-2.209 1.322zm343.63-85.368c-10.521 0-24.382-3.561-35.873-18.656a2.5 2.5 0 0 1 3.979-3.029c19.238 25.272 44.968 14.71 46.054 14.248a2.5 2.5 0 0 1 1.971 4.594 45.424 45.424 0 0 1-16.131 2.843z"/><path d="M1003.593 281.508a8.67 8.67 0 1 0 0 .01z" fill="#161616"/><path d="M1005.191 400.756a52.049 52.049 0 1 0 0 .012z" fill="#e79f33"/><path d="M1703.4 482.71c-23.794-74.133-65.577-113.163-96.174-138.259-39.416-32.329-97.751-48.219-115.094-24.11s31.533 80.057 52.029 96.174 66.218 87.042 66.218 87.042-95.123 72.723-95.123 138.941 21.022 174.9 85.171 174.757c50.145-.117 78.386-38.6 91.79-79.645 13.637-41.762 44.292-151.747 11.183-254.9z" fill="#fbb348"/><path d="M1600.3 819.755c-15.466 0-29.4-6.083-41.429-18.081-31.853-31.778-46.111-102.844-46.111-159.176 0-28.1 16.218-60.388 48.2-95.974A406.042 406.042 0 0 1 1607.038 503c-7.44-11.392-46.348-70.31-64.422-84.523-21.841-17.174-71.065-73.81-52.513-99.6 4.84-6.728 12.584-10.832 23.016-12.2 25.987-3.4 66.23 11.67 95.693 35.834 35.047 28.746 73.975 67.792 96.968 139.429 31.293 97.494 6.423 202.515-11.187 256.44-9.9 30.33-35.308 81.232-94.16 81.369zM1521 311.194a55.81 55.81 0 0 0-7.236.447c-9.008 1.179-15.605 4.6-19.606 10.16-15.584 21.665 29.623 75.511 51.545 92.749 20.588 16.19 64.9 84.742 66.773 87.652a2.5 2.5 0 0 1-.583 3.34c-.941.721-94.141 72.741-94.141 136.956 0 55.3 13.8 124.87 44.642 155.637 11.086 11.061 23.854 16.613 38.023 16.62 55.7-.129 79.934-48.876 89.419-77.921 17.423-53.35 42.042-157.207 11.18-253.36-22.6-70.4-60.895-108.807-95.379-137.09-25.837-21.198-60.037-35.19-84.637-35.19z"/><path d="M1684.481 518.389c-20.8-35.679-65.071-80.675-129.284-60.881-34.685 10.691-48.408 40.342-48.875 69.371s7.883 84.121 38.458 83.721c33.6-.439 57.389-64.237 46.679-68.555 11.9 13.157 31.941 25.14 48.457 31.721" fill="#fbb348"/><path d="M1544.447 613.1c-7.247 0-13.754-2.841-19.346-8.451-17.5-17.556-21.611-57.173-21.279-77.814.569-35.31 19.5-62.121 50.639-71.721 29.421-9.069 57.333-5.74 82.961 9.894 25.437 15.518 41.755 39.314 49.218 52.118a2.5 2.5 0 1 1-4.319 2.518c-11.442-19.629-54.367-81.95-126.387-59.751-41.755 12.871-46.857 51.158-47.113 67.022-.414 25.749 5.612 59.952 19.821 74.2 4.695 4.709 10.127 7.065 16.105 6.979 23.75-.31 42.715-35.412 46.223-54.142.842-4.5.647-7.187.223-8.535q-.813-.844-1.588-1.7a2.5 2.5 0 0 1 2.789-4 5.758 5.758 0 0 1 3.006 2.852c12.784 13 32.183 23.582 45.442 28.866a2.5 2.5 0 1 1-1.851 4.644c-12.2-4.862-29.455-14.09-42.513-25.618a39.77 39.77 0 0 1-.594 4.408c-3.877 20.707-24.259 57.871-51.072 58.222z"/><path d="M1659.838 540.543s-59.411-30.339-112 0c-50.815 29.317-47.833 94.245-38.632 125.151s28.121 50.38 51.245 43.548c30.143-8.906 29.582-62.675 21.386-83.54 21.524 3.114 37.334 3.071 60.885 0" fill="#fbb348"/><path d="M1551.283 713.114c-19.1 0-35.621-16.98-44.471-46.706-9.234-31.018-12.8-97.694 39.778-128.03 27.817-16.049 57.446-15.207 77.4-11.674a143.257 143.257 0 0 1 36.98 11.613 2.5 2.5 0 0 1-2.273 4.453c-.582-.3-58.852-29.346-109.613-.061-49.878 28.775-46.33 92.563-37.485 122.272 7.419 24.922 23.96 49.007 48.14 41.864 7.562-2.235 13.533-7.741 17.748-16.366 9.676-19.8 7.337-50.328 2.02-63.863a2.5 2.5 0 0 1 2.685-3.388c21.055 3.046 36.81 3.045 60.2 0a2.5 2.5 0 1 1 .646 4.958c-22.383 2.918-37.938 3.1-57.533.55 4.759 15.928 6.052 44.338-3.53 63.944-4.856 9.936-11.862 16.317-20.823 18.964a34.767 34.767 0 0 1-9.869 1.47z"/><path d="M834.04 1031.821c53.092-9.937 105.018 2.211 145.069 11.255 85.38 19.28 101.163-45.846 32.829-84.344-69.823-39.345-139.138-40.993-200.661-26.722-38.748 9.949-80.408 114.556 22.763 99.811z" fill="#fbb348"/><path d="M792.951 1197.874c-81.251 9.479-147.679-2.28-182.819-49.1-31.035-41.349-16.47-87.992 6.052-118.213 25.4-34.079 74.445-70.567 195.093-98.552 104.271-21.726 82.499 248.145-18.326 265.865z" fill="#fbb348"/><path d="M744.411 1203.384c-64.038 0-109.766-17.784-136.279-53.109-14.6-19.46-20.506-41.359-17.539-65.09 2.371-18.96 10.748-38.89 23.586-56.117 20.849-27.977 63.906-68.73 196.532-99.494a2.5 2.5 0 1 1 1.13 4.871c-131.027 30.393-173.274 70.264-193.653 97.61-10.815 14.513-43.214 65.712-6.057 115.219 31.679 42.207 92.421 58.4 180.531 48.117a2.5 2.5 0 0 1 .579 4.967 422.767 422.767 0 0 1-48.83 3.026z" fill="#111"/><path d="M1007.8 1049.1a133.376 133.376 0 0 1-29.239-3.582l-2.233-.5c-40.2-9.084-90.221-20.39-141.826-10.731a2.5 2.5 0 1 1-.92-4.915c52.619-9.849 103.2 1.584 143.848 10.769l2.232.5c43.355 9.789 64.934-2.651 70.674-17.558 3.389-8.8 1.847-19.492-4.342-30.1-6.929-11.878-19.129-22.966-35.281-32.066-60.557-34.123-127.466-43.028-198.87-26.465a2.5 2.5 0 0 1-1.13-4.871c72.658-16.854 140.773-7.776 202.455 26.98 38.681 21.792 48.883 50.018 41.834 68.323-4.955 12.854-19.802 24.216-47.202 24.216zm39.506 55.243a2.494 2.494 0 0 1-1.88-.851c-.2-.223-20.251-22.456-64.05-27.025-46.228-4.821-135.545 5.807-170.659 20.311a2.5 2.5 0 0 1-1.909-4.621c35.672-14.734 126.261-25.551 173.086-20.663 45.884 4.786 66.44 27.728 67.292 28.7a2.5 2.5 0 0 1-1.88 4.146z"/><path d="M1044.072 1045.576a2.49 2.49 0 0 1-1.712-.679c-.121-.113-12.3-11.408-36.794-22.112-22.61-9.881-60.64-21.263-113.426-19.384-58.868 2.1-103.576 23.562-104.021 23.778a2.5 2.5 0 1 1-2.191-4.494c.453-.221 46.058-22.146 106.034-24.281 53.865-1.919 92.745 9.77 115.87 19.914 25.19 11.051 37.446 22.459 37.956 22.939a2.5 2.5 0 0 1-1.716 4.319z"/><path d="M834.04 1101.843c115.542-33 167.736 24.424 213.265 0 15.271-8.193 16.355-39.641-3.232-58.767-34.741-33.922-147.321-65.918-257.05-18.144-71.608 37.424-11.918 97.557 47.017 76.911z" fill="#fbb348"/><path d="M1020.97 1110.6c-12.677 0-26.328-3.122-41.835-6.666-35.459-8.107-79.589-18.194-144.409.318a2.5 2.5 0 0 1-1.373-4.808c66.055-18.865 110.879-8.618 146.9-.385 26.234 6 46.955 10.734 65.874.586 5.1-2.738 8.67-8.82 9.782-16.686 1.875-13.253-3.455-28.2-13.579-38.089-14.714-14.368-48.447-32.163-98.993-39.02a291.354 291.354 0 0 0-155.312 21.379 2.5 2.5 0 0 1-2-4.584A296.358 296.358 0 0 1 944 1000.89c43.3 5.874 82.311 21.353 101.815 40.4a50.581 50.581 0 0 1 15.037 42.367c-1.338 9.46-5.847 16.893-12.37 20.392a56.487 56.487 0 0 1-27.512 6.551z" fill="#111"/><path d="M792.951 1197.874c35.95-4.194 90.233-19.277 120.92-19.17 130.2.453 157.45-40.223 133.434-76.861-25.884-39.487-168.687-35.266-237.543-7.376-52.01 20.944-5.945 80.533-16.811 103.407z" fill="#fbb348"/><path d="M792.949 1200.374a2.5 2.5 0 0 1-.287-4.983c14.578-1.7 32.66-5.3 50.148-8.776 25.735-5.119 52.341-10.412 70.739-10.412h.331c99.856.352 127.657-23.281 135.314-37.4 7.243-13.351 1.833-26.725-3.98-35.593-11.139-16.993-48.741-27.395-100.587-27.825-48.272-.4-100.849 8-133.926 21.4a2.5 2.5 0 1 1-1.877-4.634c33.637-13.625 86.969-22.153 135.845-21.762 54.318.451 92.49 11.416 104.727 30.084 9.408 14.352 10.858 28.432 4.193 40.718-6.71 12.37-21.182 22.094-43.016 28.9-24.087 7.511-56.648 11.242-96.711 11.11h-.316c-17.9 0-44.263 5.244-69.761 10.316-17.584 3.5-35.766 7.115-50.544 8.838a2.406 2.406 0 0 1-.292.019z" fill="#111"/></svg></g><g transform="translate(1381.0 1685.0) rotate(0.0 365.5 250.5) scale(0.9934494849283791 0.9926826803621212)"><svg width="735.82" height="504.693" viewBox="0 0 735.82 504.693"><path d="M25.747 502.193h526.638C501.569 345.54 526.857 2.5 632.8 2.5H106.163C3.3 2.5-21.988 345.54 25.747 502.193z" fill="#fff"/><path d="M552.385 504.693H25.747a2.5 2.5 0 0 1-2.391-1.772c-39.445-129.442-29.674-387.4 34.361-473.86C72 9.778 88.3 0 106.163 0H632.8a2.5 2.5 0 0 1 0 5c-17.338 0-33.24 9.782-47.264 29.075-63.757 87.709-71.516 341.748-30.773 467.346a2.5 2.5 0 0 1-2.378 3.272zm-524.781-5h521.361c-19.565-62.562-28.111-154.881-22.878-247.986 5.588-99.425 25.782-179.821 55.4-220.572C590.508 18.731 600.333 10 610.865 5h-504.7c-16.192 0-31.14 9.1-44.429 27.038-28.842 38.938-48.863 118.321-54.93 217.793C1.08 343.707 8.852 436.9 27.6 499.693z" fill="#111"/><path d="M207.5 138.722h525.82C733.32 77.276 689.947 2.5 632.8 2.5H106.976C170.5 2.5 207.5 79.954 207.5 138.722z" fill="#fff"/><g fill="#111"><path d="M733.32 141.222H207.5a2.5 2.5 0 0 1-2.5-2.5c0-30.264-9.735-63.459-26.042-88.8C165.763 29.431 142.568 5 106.976 5a2.5 2.5 0 0 1 0-5H632.8c27.262 0 53.455 16.393 73.756 46.16 18.324 26.87 29.264 61.473 29.264 92.562a2.5 2.5 0 0 1-2.5 2.5zm-523.341-5H730.8c-.567-29.468-11.082-61.892-28.372-87.245C683.085 20.618 658.359 5 632.8 5H134.267c18.711 7.065 35.532 21.464 48.891 42.22 16.356 25.415 26.297 58.5 26.816 89.002z"/><path d="M331.658 87.77h-66.613a2.5 2.5 0 0 1-2.372-1.708c-7.061-21.128-17.609-39.634-30.5-53.517a2.5 2.5 0 0 1 1.832-4.2h66.612a2.5 2.5 0 0 1 1.832.8c13.378 14.4 24.3 33.537 31.585 55.336a2.5 2.5 0 0 1-2.371 3.293zm-64.822-5h61.315c-6.893-19.361-16.743-36.372-28.636-49.427h-59.964c11.349 13.436 20.711 30.38 27.285 49.427zm390.393 5H402.964a2.5 2.5 0 0 1 0-5h254.265a2.5 2.5 0 0 1 0 5zm-11.057-26.122H391.908a2.5 2.5 0 0 1 0-5h254.264a2.5 2.5 0 0 1 0 5zM632.8 35.525H378.536a2.5 2.5 0 0 1 0-5H632.8a2.5 2.5 0 0 1 0 5z"/></g></svg></g><g transform="translate(2466.0 490.0) rotate(0.0 250.0 250.0) scale(0.9986937086291131 0.9986937086291131)"><svg width="500.654" height="500.654" viewBox="0 0 500.654 500.654"><circle cx="250.327" cy="250.327" fill="#fff" r="247.827"/><path d="M250.327 500.654A250.327 250.327 0 0 1 73.319 73.319a250.327 250.327 0 0 1 354.016 354.016 248.689 248.689 0 0 1-177.008 73.319zm0-495.654C115.053 5 5 115.053 5 250.327s110.053 245.327 245.327 245.327S495.654 385.6 495.654 250.327 385.6 5 250.327 5z"/><path d="M250.327 252.827a2.5 2.5 0 0 1-2.5-2.5V81.079a2.5 2.5 0 0 1 5 0v169.248a2.5 2.5 0 0 1-2.5 2.5z"/><path d="M250.326 252.827a2.491 2.491 0 0 1-1.623-.6L120.012 142.3a2.5 2.5 0 0 1 3.247-3.8l128.692 109.926a2.5 2.5 0 0 1-1.625 4.4z"/></svg></g><g transform="translate(2502.0 1858.0) rotate(0.0 214.0 144.5) scale(0.998227446590167 0.9988663385500195)"><svg width="428.76" height="289.328" viewBox="0 0 428.76 289.328"><path d="M426.26 74.81 42.445 286.828 2.5 214.518 386.317 2.499z" fill="#fbb348"/><path d="M42.446 289.329a2.5 2.5 0 0 1-2.191-1.292L.311 215.727a2.5 2.5 0 0 1 .98-3.4L385.108.312a2.5 2.5 0 0 1 3.4.979L428.449 73.6a2.5 2.5 0 0 1-.979 3.4L43.653 289.017a2.5 2.5 0 0 1-1.207.312zM5.9 215.5l37.526 67.933 379.441-209.6L385.337 5.9z"/><path d="M361.236 47.053a2.5 2.5 0 0 1-2.191-1.291l-11.934-21.6a2.5 2.5 0 0 1 4.377-2.418l11.934 21.605a2.5 2.5 0 0 1-2.186 3.709zM321.928 57.5a2.5 2.5 0 0 1-2.191-1.292l-7.164-12.97a2.5 2.5 0 0 1 4.377-2.418l7.164 12.97a2.5 2.5 0 0 1-2.186 3.71zM287.39 76.576a2.5 2.5 0 0 1-2.191-1.291l-7.165-12.97a2.5 2.5 0 1 1 4.377-2.418l7.165 12.97a2.5 2.5 0 0 1-2.186 3.709zm-29.769 27.714a2.5 2.5 0 0 1-2.191-1.29L243.5 81.394a2.5 2.5 0 1 1 4.377-2.418l11.934 21.6a2.5 2.5 0 0 1-2.186 3.71zm-39.308 10.444a2.5 2.5 0 0 1-2.191-1.291l-7.165-12.971a2.5 2.5 0 0 1 4.377-2.418l7.165 12.971a2.5 2.5 0 0 1-2.186 3.709zm-34.538 19.079a2.5 2.5 0 0 1-2.191-1.291l-7.165-12.971a2.5 2.5 0 0 1 4.377-2.418l7.165 12.971a2.5 2.5 0 0 1-2.186 3.709zm-29.769 27.714a2.5 2.5 0 0 1-2.191-1.292l-11.934-21.605a2.5 2.5 0 0 1 4.377-2.418l11.934 21.605a2.5 2.5 0 0 1-2.186 3.71zM114.7 171.97a2.5 2.5 0 0 1-2.191-1.291l-7.165-12.97a2.5 2.5 0 1 1 4.377-2.418l7.165 12.97a2.5 2.5 0 0 1-2.186 3.709zm-34.541 19.079a2.5 2.5 0 0 1-2.19-1.291l-7.169-12.97a2.5 2.5 0 1 1 4.377-2.418l7.165 12.97a2.5 2.5 0 0 1-2.187 3.709zm-29.768 27.714a2.5 2.5 0 0 1-2.191-1.292l-11.935-21.6a2.5 2.5 0 0 1 4.377-2.418l11.935 21.6a2.5 2.5 0 0 1-2.186 3.71z"/></svg></g><g transform="translate(2364.0 1971.0) rotate(0.0 303.0 107.0) scale(1.001780391884587 1.0035546468331755)"><svg width="604.923" height="213.242" viewBox="0 0 604.923 213.242"><path d="M602.423 210.742H2.5V25.376A22.876 22.876 0 0 1 25.376 2.5h553.788a23.259 23.259 0 0 1 23.259 23.259v184.983z" fill="#ffaac3"/><path d="M602.423 213.242H2.5a2.5 2.5 0 0 1-2.5-2.5V25.377A25.405 25.405 0 0 1 25.376 0h553.787a25.789 25.789 0 0 1 25.76 25.759v184.983a2.5 2.5 0 0 1-2.5 2.5zM5 208.242h594.923V25.759A20.783 20.783 0 0 0 579.163 5H25.376A20.4 20.4 0 0 0 5 25.377z"/><path d="M205.912 213.242H2.5a2.5 2.5 0 0 1-2.5-2.5V25.759A25.789 25.789 0 0 1 25.76 0h156.892a25.789 25.789 0 0 1 25.76 25.759v184.983a2.5 2.5 0 0 1-2.5 2.5zM5 208.242h198.412V25.759A20.783 20.783 0 0 0 182.652 5H25.76A20.783 20.783 0 0 0 5 25.759z"/><path d="M99.313 109.121h-.007a2.5 2.5 0 0 1-2.376-1.744L63.937 3.256A2.5 2.5 0 0 1 68.7 1.745l30.636 96.671c12.7-39.347 29.743-92.618 30.485-96.19a2.5 2.5 0 0 1 4.986.274c0 1.6-11.142 36.888-33.115 104.89a2.5 2.5 0 0 1-2.379 1.731zm30.5-106.854a1.813 1.813 0 0 0-.01.233c.004-.078.007-.156.014-.233z"/><path d="M127.535 172.8H71.092a6.6 6.6 0 0 1-5.78-9.8l31.813-57.591a2.5 2.5 0 0 1 4.377 0L133.315 163a6.6 6.6 0 0 1-5.78 9.8zm-28.222-61.008-29.624 53.629a1.6 1.6 0 0 0 1.4 2.378h56.443a1.6 1.6 0 0 0 1.4-2.378z"/><circle cx="99.313" cy="106.621" fill="#fff" r="13.684"/><path d="M99.313 122.805a16.184 16.184 0 1 1 16.187-16.184 16.2 16.2 0 0 1-16.187 16.184zm0-27.368a11.184 11.184 0 1 0 11.187 11.184 11.2 11.2 0 0 0-11.187-11.184z"/></svg></g><g transform="translate(399.0 2179.0) rotate(0.0 1352.0 42.0) scale(0.999630314232902 0.9882352941176471)"><svg width="2705" height="85" viewBox="0 0 2705 85"><path d="M2.5 82.5v-80h2700v80z" fill="#fff"/><path d="M2702.5 85H2.5A2.5 2.5 0 0 1 0 82.5v-80A2.5 2.5 0 0 1 2.5 0h2700a2.5 2.5 0 0 1 2.5 2.5v80a2.5 2.5 0 0 1-2.5 2.5zM5 80h2695V5H5z" fill="#111"/></svg></g><g transform="translate(1157.0 1821.0) rotate(0.0 235.5 141.0) scale(0.9991239104564362 0.9996277981602594)"><svg width="471.413" height="282.105" viewBox="0 0 471.413 282.105"><path d="M244.179 110.518c53.093-9.937 105.019 2.211 145.07 11.255 85.379 19.28 101.163-45.845 32.829-84.344C352.255-1.915 282.936-3.563 221.416 10.707c-38.748 9.949-80.407 114.556 22.763 99.811z" fill="#fbb348"/><path d="M203.091 276.571c-81.251 9.479-147.679-2.279-182.82-49.1-31.034-41.348-16.471-87.991 6.052-118.212 25.4-34.078 74.445-70.567 195.093-98.552 104.272-21.727 82.5 248.145-18.325 265.864z" fill="#fbb348"/><path d="M154.55 282.081c-64.038 0-109.766-17.784-136.278-53.108-14.606-19.46-20.507-41.36-17.539-65.091 2.371-18.96 10.748-38.889 23.586-56.117C45.168 79.788 88.225 39.036 220.851 8.271a2.5 2.5 0 0 1 1.13 4.871C90.954 43.535 48.707 83.406 28.328 110.752c-10.815 14.513-43.215 65.712-6.057 115.22 31.678 42.207 92.417 58.4 180.53 48.116a2.5 2.5 0 0 1 .58 4.967 422.8 422.8 0 0 1-48.831 3.026z" fill="#111"/><path d="M417.937 127.793a133.376 133.376 0 0 1-29.239-3.582l-2.231-.5c-40.2-9.085-90.223-20.392-141.828-10.731a2.5 2.5 0 0 1-.92-4.916c52.618-9.847 103.2 1.584 143.85 10.771l2.23.5c43.352 9.788 64.934-2.65 70.674-17.557 3.389-8.8 1.847-19.492-4.342-30.1C449.2 59.8 437 48.707 420.851 39.607 360.293 5.483 293.384-3.421 221.981 13.142a2.5 2.5 0 1 1-1.13-4.871C293.508-8.583 361.624.5 423.305 35.251c38.681 21.793 48.883 50.017 41.834 68.323-4.952 12.861-19.804 24.218-47.202 24.219zm39.508 55.247a2.494 2.494 0 0 1-1.881-.853c-.326-.365-20.391-22.468-64.049-27.023-46.229-4.822-135.545 5.808-170.658 20.311a2.5 2.5 0 1 1-1.91-4.621c35.672-14.733 126.264-25.548 173.087-20.663 45.884 4.786 66.439 27.728 67.292 28.7a2.5 2.5 0 0 1-1.881 4.147z"/><path d="M454.212 124.273a2.5 2.5 0 0 1-1.714-.68c-.183-.172-12.363-11.436-36.792-22.111C393.1 91.6 355.061 80.213 302.279 82.1c-58.867 2.1-103.576 23.562-104.021 23.778a2.5 2.5 0 0 1-2.191-4.494c.454-.221 46.059-22.145 106.035-24.281 53.873-1.921 92.745 9.77 115.869 19.915 25.19 11.05 37.447 22.458 37.956 22.938a2.5 2.5 0 0 1-1.715 4.319z"/><path d="M244.179 180.54c115.543-33 167.737 24.424 213.265 0 15.272-8.192 16.356-39.641-3.232-58.767-34.74-33.922-147.321-65.918-257.049-18.144-71.608 37.424-11.918 97.558 47.016 76.911z" fill="#fbb348"/><path d="M431.11 189.291c-12.678 0-26.329-3.121-41.836-6.666-35.458-8.106-79.588-18.194-144.408.319a2.5 2.5 0 0 1-1.373-4.808c66.055-18.866 110.879-8.618 146.895-.385 26.235 6 46.957 10.734 65.875.586 5.1-2.738 8.669-8.82 9.782-16.686 1.875-13.253-3.455-28.2-13.58-38.09-14.713-14.367-48.446-32.162-98.993-39.019a291.359 291.359 0 0 0-155.311 21.379 2.5 2.5 0 0 1-2-4.584 296.345 296.345 0 0 1 157.983-21.749c43.3 5.873 82.311 21.352 101.815 40.4A50.585 50.585 0 0 1 471 162.351c-1.339 9.46-5.847 16.893-12.37 20.392a56.477 56.477 0 0 1-27.52 6.548z" fill="#111"/><path d="M203.091 276.571c35.95-4.194 90.233-19.277 120.92-19.17 130.2.453 157.45-40.223 133.434-76.861-25.884-39.487-168.687-35.266-237.543-7.376-52.01 20.945-5.945 80.536-16.811 103.407z" fill="#fbb348"/><path d="M203.088 279.071a2.5 2.5 0 0 1-.287-4.983c14.579-1.7 32.663-5.3 50.151-8.777 25.734-5.118 52.341-10.411 70.739-10.411h2.503c98.133 0 125.539-23.388 133.14-37.4 7.242-13.351 1.833-26.725-3.98-35.592-11.139-16.994-48.742-27.4-100.587-27.826-48.293-.384-100.849 8-133.927 21.4a2.5 2.5 0 1 1-1.876-4.634c33.638-13.625 86.965-22.167 135.845-21.762 54.318.45 92.489 11.415 104.727 30.083 9.408 14.352 10.858 28.432 4.193 40.718-6.71 12.37-21.182 22.1-43.016 28.9C396.627 256.3 364.088 260.029 324 259.9h-.314c-17.9 0-44.262 5.243-69.76 10.315-17.586 3.5-35.769 7.116-50.547 8.839a2.422 2.422 0 0 1-.291.017z" fill="#111"/></svg></g></svg>