<svg xmlns="http://www.w3.org/2000/svg" viewBox="0 0 4000 3000" width="4000" height="3000"><g transform="translate(945.0 408.0) rotate(0.0 1088.0 809.0) scale(1.000406875038791 1.0005961524666118)"><svg width="2175.115" height="1617.036" viewBox="0 0 2175.115 1617.036"><path d="M1944.49 1614.536H230.624c-125.99 0-228.124-102.135-228.124-228.125V230.624C2.5 104.635 104.635 2.5 230.624 2.5H1944.49c125.99 0 228.125 102.135 228.125 228.124v1155.787c0 125.99-102.135 228.125-228.125 228.125z" fill="#fff"/><path d="M8.225 180.485h2158.664C2147.501 77.848 2051.834 2.5 1948.548 2.5H226.568C123.28 2.5 30.251 79.38 8.225 180.485z" fill="#cad5f3"/><path d="M8.523 180.485h2158.069m-217.938 1434.051H226.461c-123.69 0-223.961-100.271-223.961-223.961V226.461C2.5 102.771 102.771 2.5 226.461 2.5h1722.193c123.69 0 223.961 100.271 223.961 223.961v1164.114c0 123.69-100.271 223.961-223.961 223.961z" fill="none" stroke="#000" stroke-linecap="round" stroke-linejoin="round" stroke-width="5"/><circle cx="198.527" cy="96.685" fill="#ff6996" r="41.057"/><circle cx="328.804" cy="96.685" fill="#fbb348" r="41.057"/><circle cx="459.081" cy="96.685" fill="#92acef" r="41.057"/><g fill="none" stroke="#000" stroke-linecap="round" stroke-linejoin="round" stroke-width="5"><circle cx="198.527" cy="96.685" r="41.057"/><circle cx="328.804" cy="96.685" r="41.057"/><circle cx="459.081" cy="96.685" r="41.057"/></g></svg></g><g transform="translate(1158.0 678.0) rotate(0.0 868.0 173.0) scale(0.9978141203343136 1.002782286111755)"><svg width="1739.803" height="345.04" viewBox="0 0 1739.803 345.04"><path d="M1599.351 342.54H140.452C64.263 342.54 2.5 280.776 2.5 204.588v-64.135C2.5 64.263 64.263 2.5 140.452 2.5h1458.899c76.189 0 137.952 61.763 137.952 137.952v64.135c0 76.189-61.763 137.953-137.952 137.953z" fill="#cad5f3"/><path d="M1599.351 345.04H140.452C63.007 345.04 0 282.033 0 204.588v-64.135C0 63.007 63.007 0 140.452 0h1458.899c77.445 0 140.452 63.007 140.452 140.452v64.135c.001 77.446-63.006 140.453-140.452 140.453zM140.452 5C65.764 5 5 65.764 5 140.452v64.135C5 279.276 65.764 340.04 140.452 340.04h1458.899c74.688 0 135.452-60.764 135.452-135.452v-64.135C1734.804 65.764 1674.04 5 1599.351 5z"/><circle cx="184.515" cy="173.151" fill="#fff" r="94.704"/><path d="M184.515 270.356c-53.599 0-97.204-43.606-97.204-97.204s43.605-97.204 97.204-97.204 97.205 43.606 97.205 97.204-43.607 97.204-97.205 97.204zm0-189.409c-50.842 0-92.204 41.363-92.204 92.204s41.362 92.204 92.204 92.204 92.205-41.363 92.205-92.204-41.364-92.204-92.205-92.204zm1015.764 7.075H435.571a2.5 2.5 0 1 1 0-5h764.708a2.5 2.5 0 1 1 0 5zm-544.81 173.905H435.571a2.5 2.5 0 1 1 0-5h219.897a2.5 2.5 0 0 1 .001 5zm541.249-86.5H435.274a2.5 2.5 0 1 1 0-5h761.443a2.5 2.5 0 0 1 .001 5z"/></svg></g><g transform="translate(1864.0 537.0) rotate(0.0 786.5 1028.5) scale(1.0000286085743075 1.0001551042675068)"><svg width="1572.955" height="2056.681" viewBox="0 0 1572.955 2056.681"><path d="M18.839 483.134c15.068 39.38 77.34 60.296 117.016 68.588 55.203 11.537 138.896 9.575 138.896 9.575l10.308-54.952c2.494-46.399-54.697-64.996-148.891-66.354 0 0-132.398 3.763-117.329 43.143z" fill="#ffaac3"/><path d="M261.034 563.912c-26.184 0-84.208-1.074-125.691-9.743-14.503-3.031-42.667-10.03-68.341-22.847-26.576-13.268-43.566-29.18-50.498-47.295-2.271-5.936-1.711-11.512 1.665-16.571 17.896-26.818 113.852-29.848 117.928-29.964l.107-.001c73.004 1.053 118.47 12.246 138.995 34.219 8.926 9.555 13.083 21.253 12.356 34.769a2.56 2.56 0 0 1-.039.327l-10.309 54.952a2.499 2.499 0 0 1-2.398 2.038c-.205.005-5.337.116-13.775.116zM136.187 442.491c-2.716.084-97.542 3.286-113.86 27.74-2.458 3.684-2.836 7.612-1.153 12.008 16.579 43.327 92.36 62.263 115.192 67.035 49.558 10.357 123.193 9.756 136.304 9.558l9.901-52.786c.619-12.203-2.988-22.32-11.025-30.925-19.272-20.628-64.81-31.607-135.359-32.63z"/><path d="M69.143 391.957s6.455-34.369 31.395-22.061c17.023 8.857 35.631 70.095 35.631 70.095l34.857 4.844 10.163 18.819-93.345-9.786z" fill="#ffaac3"/><path d="M285.062 508.845a2.5 2.5 0 0 1-2.491-2.745c1.147-11.653-2.336-21.909-10.353-30.484-33.542-35.874-134.951-33.158-135.974-33.126a2.522 2.522 0 0 1-2.469-1.772c-5.093-16.754-21.198-61.739-34.394-68.604-5.601-2.764-10.593-3.116-14.793-1.023-9.767 4.869-12.96 21.166-12.99 21.33a2.5 2.5 0 0 1-4.914-.925c.145-.768 3.672-18.883 15.659-24.873 5.673-2.835 12.168-2.489 19.299 1.031 16.294 8.476 33.044 59.31 36.354 69.8 6.545-.095 29.08-.134 54.404 3.091 40.578 5.169 68.66 15.818 83.467 31.652 9.045 9.672 12.975 21.244 11.68 34.392a2.5 2.5 0 0 1-2.485 2.256z"/><path d="M32.043 391.328s6.455-34.369 31.394-22.061c17.853 9.228 26.512 71.901 35.583 79.323s28.038 7.01 38.759 7.422L67.142 483.98z" fill="#ffaac3"/><path d="M106.119 467.165c-16.183-2.129-38.631-3.393-45.567-14.053s-10.335-41.533-24.681-57.601c-10.855-12.157-27.126-10.567-31.818 7.194-5.964 22.578 6.612 60.306 14.786 80.428 21.956-10.821 129.374 1.485 87.28-15.968z" fill="#ffaac3"/><path d="M18.84 485.634a2.5 2.5 0 0 1-2.317-1.56c-6.659-16.392-21.441-57.197-14.887-82.007 2.317-8.774 7.657-14.767 14.651-16.444 7.272-1.743 15.293 1.33 21.449 8.224 9.193 10.297 14.047 26.351 17.947 39.251 2.409 7.967 4.489 14.848 6.964 18.651 5.429 8.343 23.171 10.456 37.428 12.154 2.193.261 4.331.516 6.369.784a2.499 2.499 0 0 1 2.152 2.805 2.497 2.497 0 0 1-2.805 2.152 505.621 505.621 0 0 0-6.308-.776c-16.089-1.916-34.323-4.088-41.028-14.392-2.863-4.401-5.039-11.598-7.559-19.931-3.758-12.429-8.435-27.896-16.892-37.368-4.909-5.499-11.102-7.999-16.553-6.692-5.224 1.252-9.124 5.819-10.983 12.859-1.604 6.07-5.284 29.696 14.686 78.848a2.5 2.5 0 0 1-2.314 3.442z"/><path d="m137.781 458.512-.098-.002a354.456 354.456 0 0 0-3.956-.121c-11.646-.317-27.598-.752-36.29-7.864-4.037-3.303-7.262-13.529-12.188-29.939-5.896-19.635-13.232-44.071-22.959-49.098-5.609-2.767-10.602-3.119-14.799-1.026-9.766 4.869-12.96 21.166-12.99 21.33a2.5 2.5 0 0 1-4.914-.925c.145-.768 3.672-18.884 15.659-24.873 5.673-2.835 12.167-2.488 19.298 1.031 11.651 6.022 19.005 30.514 25.493 52.123 3.691 12.293 7.508 25.004 10.566 27.507 7.37 6.03 22.95 6.455 33.26 6.735 1.428.039 2.774.076 4.012.123a2.5 2.5 0 0 1-.094 4.999z"/><path d="M227.365 507.496c-6.151-24.092-41.061-45.645-49.357-55.025-6.926-7.831-18.825-33.951-25.167-45.879-10.8-20.309-32.795-33.478-44.68-19.554-14.587 17.089 13.612 51.258 11.049 119.945z" fill="#ffaac3"/><path d="m119.211 509.484-.095-.002a2.5 2.5 0 0 1-2.405-2.592c1.154-30.951-4.419-56.39-8.897-76.829-5.332-24.334-9.184-41.915 4.678-49.652 5.579-3.114 11.193-3.872 16.686-2.254 9.074 2.673 17.536 11.591 25.871 27.264 1.712 3.22 3.849 7.512 6.111 12.055 6.178 12.409 13.866 27.852 18.722 33.341 2.101 2.375 6.281 5.797 11.122 9.76 8.904 7.289 21.099 17.271 29.496 28.339a2.5 2.5 0 0 1-3.982 3.023c-8.04-10.596-19.485-19.964-28.681-27.492-5.215-4.268-9.333-7.64-11.701-10.316-5.291-5.983-13.143-21.753-19.451-34.425-2.247-4.513-4.369-8.776-6.05-11.936-7.565-14.224-15.26-22.573-22.87-24.815-4.215-1.241-8.413-.645-12.835 1.823-10.147 5.664-7.744 19.057-2.231 44.216 4.539 20.717 10.188 46.499 9.01 78.086a2.503 2.503 0 0 1-2.498 2.406z"/><path d="M789.003 658.492s-98.311 339.027-118.348 432.457c-37.133 173.146-28.575 238.998-25.933 301.652 2.543 60.314 44.511 445.114 44.511 445.114 174.52 111.689 288.58 126.203 296.82-29.354l-78.668-487.266s57.856-204.988 101.119-291.598c74.928-150-.109-367.432-219.501-371.005z" fill="#6f5490"/><path d="M895.524 1925.888c-49.115 0-117.659-28.482-207.639-86.066a2.498 2.498 0 0 1-1.138-1.835c-.42-3.849-42.006-385.573-44.524-445.28-.266-6.315-.587-12.555-.927-19.162-2.913-56.642-6.539-127.135 26.914-283.12 19.826-92.448 117.407-429.238 118.391-432.629a2.51 2.51 0 0 1 2.442-1.803c93.236 1.518 168.746 42.154 212.62 114.421 22.847 37.632 35.759 81.974 37.342 128.235 1.579 46.155-8.194 91.788-28.265 131.967-41.592 83.265-97.485 278.966-100.799 290.629l78.579 486.719c.028.175.038.353.028.531-2.966 55.994-20.016 92.367-50.675 108.106-12.043 6.183-26.143 9.287-42.349 9.287zm-203.935-89.633c56.419 36.031 105.111 60.823 144.738 73.69 42.094 13.669 75.49 14.411 99.265 2.207 28.914-14.844 45.047-49.719 47.951-103.656l-78.625-487.001a2.486 2.486 0 0 1 .062-1.078c.579-2.052 58.417-206.208 101.289-292.036 40.078-80.235 36.593-180.475-8.878-255.373-42.652-70.254-115.94-109.972-206.52-111.98-7.847 27.114-98.744 341.723-117.771 430.445-33.314 155.34-29.707 225.467-26.81 281.815.341 6.618.662 12.87.93 19.208 2.441 57.882 41.791 420.065 44.369 443.759z"/><path d="M925.167 736.739c331.844 199.992 618.569-244.061 248.269-469.187-104.63-63.611-55.19-180.519-131.384-235.389-82.221-59.209-199.958-26.05-251.795 66.327-40.799 72.707-29.381 161.585 23.864 217.791 10.335 10.966 11.883 27.991 3.746 41.226-87.71 144.048-29.2 293.253 107.3 379.232z" fill="#ff6996"/><path d="M1092.726 789.735c-55.557 0-112.936-17.157-168.85-50.855-.015-.008-.028-.017-.042-.026-34.321-21.618-63.688-47.12-87.284-75.798-23.798-28.923-41.125-60.35-51.498-93.409-22.088-70.396-11.479-144.202 30.679-213.441 7.576-12.323 6.163-28.032-3.431-38.211-26.336-27.8-43.335-64.785-47.862-104.137-4.65-40.428 3.522-80.746 23.638-116.593 26.76-47.687 71.933-81.634 123.935-93.135 47.06-10.408 93.762-1.174 131.502 26.004 35.569 25.614 44.232 63.93 53.404 104.496 10.758 47.579 21.882 96.779 77.818 130.785 86.866 52.811 144.183 121.911 165.753 199.832 19.003 68.645 9.191 139.948-27.628 200.776-17.336 28.641-39.677 53.265-66.399 73.189-27.527 20.523-58.39 35.039-91.73 43.143-20.287 4.931-41.018 7.38-62.005 7.38zm-166.248-55.124c75.874 45.718 154.398 60.551 227.071 42.886 32.683-7.944 62.938-22.173 89.922-42.292 26.204-19.537 48.11-43.683 65.111-71.77 36.1-59.638 45.719-129.548 27.087-196.853-21.226-76.671-77.773-144.756-163.532-196.893-57.748-35.108-69.11-85.359-80.098-133.955-8.957-39.615-17.417-77.034-51.449-101.541-36.569-26.334-81.85-35.276-127.5-25.179-50.614 11.194-94.59 44.253-120.653 90.7-19.598 34.924-27.562 74.198-23.031 113.575 4.404 38.283 20.929 74.25 46.528 101.274 11.145 11.824 12.812 30.02 4.062 44.255-41.382 67.963-51.818 140.353-30.174 209.334 10.181 32.443 27.2 63.305 50.589 91.729 23.252 28.257 52.208 53.4 86.067 74.73z"/><path d="M789.003 658.492c72.514-32.228 373.438 4.562 342.929 267.998-18.913 163.303-61.636 329.75-61.636 329.75 79.427 43.197 205.212 145.954 266.079 207.701 82.576 139.667 32.797 219.082-140.002 258.574 0 0-211.684-188.036-285.218-264.26-90.108-93.404-82.361-140.716-85.166-274.729-1.545-73.823 19.414-279.292 19.414-279.292z" fill="#6f5490"/><path d="M912.912 217.142s44.459-82.362-9.513-147.129C844.358-.837 769.897 33.132 750.456 48.591c-20.287-37.517-77.3-55.443-118.922-7.362C572.757 102.09 682.39 205.47 682.39 205.47c97.01 97.409 230.522 11.672 230.522 11.672z" fill="#ff6996"/><path d="M1196.373 1725.014a2.501 2.501 0 0 1-1.681-.649c-2.095-1.903-210.388-191.097-285.286-264.323-92.268-90.209-91.206-163.348-89.279-296.123l.024-1.7c1.1-75.877 22.552-256.466 22.769-258.281a2.5 2.5 0 0 1 4.965.593c-.217 1.813-21.638 182.144-22.733 257.761l-.025 1.7c-.951 65.573-1.703 117.367 9.16 162.838 11.377 47.622 35.623 87.604 78.616 129.637 72.206 70.594 268.606 249.163 284.185 263.318 93.128-21.464 147.928-54.052 167.515-99.607 17.327-40.297 7.439-90.906-30.223-154.702-63.258-64.113-187.639-164.816-265.277-207.041a2.502 2.502 0 0 1-1.215-2.866c.462-1.659 46.281-167.757 61.556-329.315 4.775-50.501-1.803-95.599-19.55-134.043-15.456-33.478-39.364-62.01-71.063-84.804-37.994-27.321-88.005-46.321-140.817-53.499-43.047-5.851-85.44-3.155-107.993 6.868a2.5 2.5 0 1 1-2.031-4.569c23.701-10.533 66.113-13.313 110.698-7.253 53.608 7.286 104.416 26.604 143.062 54.394 32.408 23.304 56.862 52.497 72.684 86.768 18.123 39.256 24.848 85.218 19.989 136.609-14.431 152.627-56.035 309.247-61.193 328.268 78.22 43.026 201.961 143.315 264.928 207.191.144.145.268.307.372.483 38.663 65.394 48.694 117.562 30.668 159.486-20.352 47.331-76.7 80.957-172.266 102.798a2.549 2.549 0 0 1-.559.063z"/><path d="M956.017 658.623s36.031-25.29 44.329-56.205c13.865-51.66-11.882-100.535-36.744-138.368 0 0-50.074-58.095-62.518-90.902-8.072-21.28-36.193-59.36-106.098-42.078-69.184 18.372-72.174 63.5-70.381 79.41 5.656 50.2-24.133 109.318-20.507 167.322 2.714 43.426 13.931 77.12 42.002 96.265 26.73 18.23 134.244 34.275 209.917-15.444z" fill="#fbb348"/><path d="M794.121 254.51c-12.184 0-23.979-1.226-35.314-3.678-29.408-6.364-55.714-21.032-78.188-43.597-.198-.183-26.596-24.984-45.999-57.657-26.023-43.821-27.763-81.831-5.029-109.921 17.191-21.243 40.383-31.672 65.329-29.363 23.453 2.172 44.757 15.333 56.303 34.595 10.638-7.599 33.127-18.926 60.717-20.448 24.747-1.366 61.032 5.156 93.38 43.972 15.717 18.861 32.908 51.49 25.547 99.829-4.383 28.785-15.292 49.232-15.754 50.088a2.492 2.492 0 0 1-.85.916c-.338.217-34.297 21.794-79.734 31.038-13.845 2.817-27.349 4.226-40.408 4.226zM688.18 14.98c-20.824 0-40.057 9.724-54.702 27.822-11.831 14.619-16.621 32.051-14.237 51.812 1.933 16.023 8.537 33.628 19.629 52.326 19.03 32.079 44.968 56.46 45.228 56.703 21.825 21.913 47.266 36.118 75.682 42.283 22.781 4.944 47.546 4.772 73.603-.511 41.416-8.396 73.101-27.246 77.627-30.032 1.783-3.502 11.104-22.691 14.939-48.053 5.636-37.266-2.597-69.47-24.47-95.717-24.901-29.883-54.938-44.074-89.263-42.181-28.543 1.575-51.272 14.014-60.203 21.115a2.5 2.5 0 0 1-3.755-.767c-10.211-18.883-31.328-32.428-53.798-34.508a68.173 68.173 0 0 0-6.28-.292zm224.731 202.162h.011zm-79.67 477.185h-.541c-29.622-.056-69.798-5.773-88.009-18.194-26.333-17.958-40.024-49.154-43.089-98.174-1.826-29.226 4.687-58.549 10.986-86.906 6.339-28.539 12.326-55.494 9.532-80.292-.717-6.365-1.285-23.035 8.904-40.331 11.567-19.635 32.871-33.69 63.319-41.775 31.314-7.741 57.595-5.433 78.159 6.848 19.807 11.829 28.22 29.647 30.918 36.759 12.147 32.025 61.575 89.579 62.073 90.156.071.082.136.169.195.259 24.71 37.602 51.254 87.54 37.069 140.389-8.435 31.43-43.805 56.549-45.306 57.603l-.063.043c-42.227 27.746-90.716 33.615-124.147 33.615zm-4.972-365.15c-10.121 0-21.028 1.439-32.684 4.32-29.09 7.725-49.376 21.009-60.253 39.47-9.424 15.997-8.904 31.367-8.243 37.233 2.888 25.627-3.188 52.979-9.62 81.936-6.224 28.018-12.659 56.99-10.877 85.51 2.961 47.355 15.962 77.337 40.915 94.355 12.154 8.289 44.001 17.246 85.202 17.325h.532c32.736 0 80.176-5.721 121.367-32.769 1.176-.837 35.458-25.488 43.321-54.787 13.652-50.867-12.219-99.499-36.329-136.212-3.233-3.759-50.563-59.119-62.855-91.523-2.512-6.623-10.348-23.216-28.806-34.24-11.843-7.074-25.788-10.618-41.67-10.618zm127.749 329.446h.01z"/><path d="M767.305 393.991s-41.259-14.568-85.499 15.94c-44.249 30.51-146.173 181.051-166.65 184.04-20.478 2.989-157.057-177.205-246.352-118.829-89.294 58.383-59.398 130.055-10.144 156.506 78.253 42.025 146.439 144.821 255.047 140.566 38.896-1.524 90.914-38.246 133.247-82.661 50.541-53.026 92.703-116.442 156.579-136.157z" fill="#fbb348"/><path d="M507.086 774.844c-70.375.002-123.078-43.65-174.104-85.908-25.676-21.264-49.928-41.349-75.505-55.085-28.614-15.367-47.157-42.718-48.394-71.381-.981-22.746 8.346-56.724 58.352-89.42 65.689-42.945 154.729 38.556 207.929 87.25 17.117 15.668 34.819 31.871 39.431 31.197 9.038-1.319 41.737-42.06 70.588-78.006 33.789-42.099 72.086-89.816 95.004-105.618 12.9-8.896 33.909-19.562 60.731-19.853 16.064-.175 26.58 3.458 27.019 3.613a2.5 2.5 0 0 1-1.662 4.716c-.403-.141-40.657-13.733-83.251 15.64-22.314 15.386-60.368 62.8-93.942 104.631-38.925 48.497-63.312 78.298-73.765 79.824-6.649.972-18.831-9.85-43.529-32.457-52.13-47.714-139.375-127.573-201.816-86.753-48.038 31.409-57.018 63.57-56.093 85.02 1.161 26.909 18.696 52.655 45.764 67.191 26.017 13.972 50.455 34.211 76.329 55.639 51.91 42.991 105.572 87.444 177.438 84.631 34.27-1.343 84.671-32.72 131.535-81.888 11.365-11.924 22.465-24.557 33.199-36.773 38.215-43.492 74.31-84.572 124.452-100.048a2.5 2.5 0 0 1 1.475 4.777c-48.793 15.06-84.436 55.624-122.171 98.571-10.767 12.254-21.9 24.925-33.336 36.922-48.45 50.832-98.901 82.022-134.959 83.435-2.255.09-4.499.133-6.719.133z"/><path d="M490.144 620.836a2.497 2.497 0 0 1-1.744-4.29l25.012-24.365a2.5 2.5 0 1 1 3.488 3.581l-25.012 24.365a2.49 2.49 0 0 1-1.744.709z"/><path d="m847.088 259.853 6.245 100.581c-45.486 38.096-96.24 8.429-96.24 8.429l-7.292-79.588z" fill="#ffaac3"/><path d="M800.727 382.347c-4.665 0-9.012-.372-12.928-.937-18.643-2.693-31.432-10.075-31.967-10.387a2.5 2.5 0 0 1-1.228-1.93l-7.292-79.588a2.5 2.5 0 1 1 4.979-.457l7.17 78.257c3.429 1.787 14.532 7.089 29.235 9.183 23.156 3.299 44.035-2.477 62.062-17.169l-6.166-99.31a2.5 2.5 0 0 1 2.34-2.65 2.491 2.491 0 0 1 2.65 2.34l6.245 100.581a2.5 2.5 0 0 1-.89 2.072c-18.713 15.673-38.305 19.995-54.21 19.995z"/><path d="M704.771 94.796s-58.442 25.25-54.011 99.668c0 0-23.111-8.076-27.077 5.826s32.52 29.406 32.52 29.406 20.439 90.707 116.948 81.761c65.145-6.037 86.002-57.135 86.002-57.135s94.962 24.735 107.892-57.297c12.618-80.018-108.315-93.314-130.577-22.417-.001 0-74.165 10.804-131.697-79.812z" fill="#ffaac3"/><path d="M760.194 314.57c-43.015.003-69.048-20.732-83.664-39.081-15.237-19.128-21.114-38.858-22.457-43.993-7.148-3.166-36.947-17.34-32.795-31.893 1.028-3.602 3.198-6.284 6.449-7.97 6.374-3.305 15.448-1.776 20.372-.543-1.263-37.324 13.397-61.879 26.146-76.04 14.258-15.838 28.917-22.283 29.534-22.55a2.5 2.5 0 0 1 3.102.955c29.241 46.056 62.814 64.989 85.829 72.763 20.821 7.033 37.011 6.462 41.885 6.068 7.538-22.237 23.408-33.555 35.536-39.155 15.769-7.282 34.735-9.132 52.034-5.075 25.929 6.08 53.887 27.893 47.349 69.357-3.562 22.596-13.566 39.423-29.735 50.014-29.426 19.272-69.613 11.938-79.204 9.801-2.021 4.177-7.595 14.397-18.214 25.153-12.479 12.64-34.577 28.376-68.979 31.564-4.561.424-8.96.624-13.188.625zm-122.92-119.925c-2.655 0-5.232.382-7.251 1.431-2.006 1.042-3.293 2.645-3.937 4.9-2.446 8.572 17.773 20.754 31.094 26.42a2.505 2.505 0 0 1 1.46 1.75c.051.223 5.24 22.513 21.918 43.376 22.228 27.805 53.302 40.067 92.361 36.446 32.901-3.049 53.987-18.051 65.882-30.099 12.86-13.026 17.985-25.369 18.036-25.492a2.497 2.497 0 0 1 2.943-1.475c.46.119 46.235 11.678 77.276-8.67 14.928-9.785 24.186-25.462 27.517-46.597 2.609-16.548-.636-31.339-9.385-42.774-7.771-10.157-19.905-17.593-34.166-20.937-31.092-7.29-70.45 5.105-82.172 42.432a2.5 2.5 0 0 1-2.024 1.725c-.783.114-19.432 2.686-45.429-6.028-23.544-7.892-57.701-26.969-87.531-73.035-4.339 2.247-15.428 8.684-26.056 20.544-18.086 20.184-26.348 45.671-24.557 75.753a2.5 2.5 0 0 1-3.318 2.51c-2.327-.81-7.634-2.18-12.661-2.18z"/><path d="M867.113 227.117a2.5 2.5 0 0 1-2.46-2.961c.102-.542 2.597-13.458 11.722-29.109 8.422-14.445 24.326-33.978 52.269-45.004a2.5 2.5 0 0 1 1.836 4.651c-50.93 20.096-60.818 69.883-60.912 70.384a2.502 2.502 0 0 1-2.455 2.039z"/><path d="M906.278 210.071a2.498 2.498 0 0 1-2.108-1.154c-6.424-10.049-25.191-9.557-25.377-9.551a2.494 2.494 0 0 1-2.58-2.416 2.499 2.499 0 0 1 2.412-2.582c.885-.03 21.796-.6 29.758 11.855a2.501 2.501 0 0 1-2.105 3.848zm-228.274 64.937a2.502 2.502 0 0 1-.79-4.873c.279-.093 28.015-9.618 33.261-33.829a2.5 2.5 0 1 1 4.887 1.059c-5.856 27.032-35.318 37.1-36.57 37.515a2.494 2.494 0 0 1-.788.128zm-.452-94.191a5.418 5.418 0 1 1 10.724-1.567 5.417 5.417 0 0 1-4.578 6.147 5.423 5.423 0 0 1-6.146-4.58z"/><path d="M745.534 240.364c-3.145-21.523 11.757-41.525 33.279-44.669 21.53-3.146 41.533 11.755 44.678 33.278 3.146 21.53-11.756 41.533-33.286 44.679-21.522 3.144-41.525-11.759-44.671-33.288z" fill="#ff6996"/><path d="M707.927 1825.766c-47.366 6.706-156.26 80.634-178.385 188.753l525.01 1.783s26.435-116.003-68.497-207.941c0 0-27.233 52.378-71.302 66.212-65.085 20.431-153.934-56.423-206.826-48.807z" fill="#fff"/><path d="m1056.126 2016.373-13.893 37.786-506.508.021s-8.927-21.083-6.14-39.017z" fill="#fbb348"/><path d="M1054.552 2018.803h-.009l-525.01-1.783a2.5 2.5 0 0 1-2.441-3.002c12.515-61.161 50.678-106.492 80.488-133.75 27.581-25.219 69.196-52.617 99.995-56.977 24.077-3.465 54.836 9.826 87.4 23.896 41.1 17.759 83.598 36.124 119.026 25.001 42.544-13.354 69.565-64.466 69.833-64.98a2.502 2.502 0 0 1 3.957-.642c49.558 47.995 65.74 102.581 70.589 139.921 5.255 40.47-1.119 69.169-1.393 70.371a2.497 2.497 0 0 1-2.435 1.945zm-521.925-6.773 519.875 1.766c1.318-7.132 5.308-33.106.896-66.866-4.692-35.898-20.117-88.115-66.744-134.477-6.541 11.449-32.16 52.266-71.152 64.506-37.203 11.677-80.57-7.061-122.508-25.182-31.9-13.783-62.037-26.801-84.71-23.537l-.006.001c-21.431 3.034-59.834 21.438-97.321 55.716-28.776 26.311-65.469 69.735-78.33 128.073zm175.3-186.264h.01z"/><path d="M574.479 2055.765h-.004a2.5 2.5 0 0 1-2.496-2.504l.059-37.864a2.5 2.5 0 0 1 2.5-2.496h.004a2.5 2.5 0 0 1 2.496 2.504l-.059 37.864a2.5 2.5 0 0 1-2.5 2.496zm19.498.031h-.004a2.5 2.5 0 0 1-2.496-2.504l.06-37.864a2.5 2.5 0 0 1 2.5-2.496h.004a2.5 2.5 0 0 1 2.496 2.504l-.06 37.864a2.5 2.5 0 0 1-2.5 2.496zm97.495.152h-.004a2.5 2.5 0 0 1-2.496-2.504l.059-37.864a2.5 2.5 0 0 1 2.5-2.496h.004a2.5 2.5 0 0 1 2.496 2.504l-.059 37.864a2.5 2.5 0 0 1-2.5 2.496zm58.496.091h-.004a2.5 2.5 0 0 1-2.496-2.504l.059-37.864a2.5 2.5 0 0 1 2.5-2.496h.004a2.5 2.5 0 0 1 2.496 2.504l-.059 37.864a2.5 2.5 0 0 1-2.5 2.496zm19.498.03h-.004a2.5 2.5 0 0 1-2.496-2.504l.06-37.864a2.5 2.5 0 0 1 2.5-2.496h.004a2.5 2.5 0 0 1 2.496 2.504l-.06 37.864a2.5 2.5 0 0 1-2.5 2.496zm77.995.122h-.004a2.5 2.5 0 0 1-2.496-2.504l.059-37.864a2.5 2.5 0 0 1 2.5-2.496h.004a2.5 2.5 0 0 1 2.496 2.504l-.059 37.864a2.5 2.5 0 0 1-2.5 2.496zm77.994.121h-.004a2.5 2.5 0 0 1-2.496-2.504l.06-37.864a2.5 2.5 0 0 1 2.5-2.496h.004a2.5 2.5 0 0 1 2.496 2.504l-.06 37.864a2.5 2.5 0 0 1-2.5 2.496zm19.499.031h-.004a2.5 2.5 0 0 1-2.496-2.504l.059-37.864a2.5 2.5 0 0 1 2.5-2.496h.004a2.5 2.5 0 0 1 2.496 2.504l-.059 37.864a2.5 2.5 0 0 1-2.5 2.496zm19.498.03h-.004a2.5 2.5 0 0 1-2.496-2.504l.06-37.864a2.5 2.5 0 0 1 2.5-2.496h.004a2.5 2.5 0 0 1 2.496 2.504l-.06 37.864a2.5 2.5 0 0 1-2.5 2.496zm-230.287-183.001a2.487 2.487 0 0 1-1.813-.78c-.128-.135-13.088-13.564-39.625-23.938-10.044-3.927-23.719-5.33-23.856-5.344a2.5 2.5 0 0 1 .497-4.975c.587.058 14.485 1.481 25.18 5.662 27.666 10.815 40.885 24.575 41.435 25.156a2.5 2.5 0 0 1-1.818 4.219zm-44.897 32.591a2.497 2.497 0 0 1-1.771-.734c-.153-.154-15.51-15.456-31.998-23.968-16.246-8.387-29.909-8.544-30.046-8.544a2.501 2.501 0 0 1 .008-5h.004c.602.001 14.941.126 32.327 9.102 17.198 8.878 32.599 24.231 33.246 24.881a2.498 2.498 0 0 1-1.77 4.263zm-47.817 28.686c-.63 0-1.261-.237-1.747-.711-19.151-18.706-31.502-27.614-49.885-27.642a2.5 2.5 0 0 1 .004-5h.004c21.953.034 35.969 12.068 53.371 29.065a2.5 2.5 0 0 1-1.747 4.288z"/><path d="M535.725 2056.681a2.5 2.5 0 0 1-2.302-1.525c-.376-.887-9.172-21.95-6.31-40.375a2.5 2.5 0 0 1 2.471-2.116h.006l524.967 1.139a2.502 2.502 0 0 1 2.448 2.977c-2.521 12.971-6.729 25.9-12.502 38.426a2.5 2.5 0 0 1-2.271 1.454zm-3.942-39.012c-1.403 13.803 3.831 29.192 5.646 34.012l503.195-.021c4.835-10.748 8.482-21.782 10.864-32.864z"/><path d="M1192.395 1702.535c-21.444 42.763-22.631 174.376 53.677 254.102l300.266-430.672s-80.338-87.757-209.963-62.024c0 0 27.569 52.202 13.862 96.311-20.242 65.141-134.002 94.458-157.842 142.283z" fill="#fff"/><circle cx="1425.368" cy="1554.117" fill="#fbb348" r="37.349"/><path d="m1547.292 1524.71 23.163 32.929-288.252 416.487s-22.416-4.659-35.576-17.157z" fill="#fbb348"/><path d="M1246.072 1959.136a2.5 2.5 0 0 1-1.806-.771c-43.167-45.099-58.721-102.278-64.167-142.304-6.993-51.388.012-94.605 10.058-114.642 10.854-21.772 39.288-39.5 69.394-58.269 37.993-23.687 77.28-48.181 88.299-83.641 13.246-42.624-13.414-93.888-13.686-94.401a2.5 2.5 0 0 1 1.724-3.619c67.67-13.433 121.762 4.327 155.225 21.593 36.267 18.712 56.237 40.286 57.069 41.196a2.5 2.5 0 0 1 .207 3.118l-300.266 430.672a2.5 2.5 0 0 1-1.857 1.063 4.187 4.187 0 0 1-.194.005zm94.008-493.361c5.691 11.895 24.673 56.19 12.545 95.218-11.571 37.236-51.66 62.229-90.429 86.4-29.488 18.385-57.342 35.75-67.564 56.257l-.003.005c-9.701 19.348-16.425 61.399-9.575 111.732 5.258 38.634 20.079 93.519 60.728 137.296l297.328-426.46c-5.113-5.144-24.2-23.206-54.47-38.792-32.188-16.573-83.903-33.608-148.56-21.656zm-147.686 236.76h.01z"/><path d="M1303.504 1944.239a2.49 2.49 0 0 1-1.424-.447l-31.1-21.598a2.5 2.5 0 1 1 2.851-4.106l31.1 21.598a2.5 2.5 0 0 1-1.427 4.553zm11.123-16.016a2.49 2.49 0 0 1-1.424-.447l-31.1-21.598a2.5 2.5 0 1 1 2.851-4.106l31.1 21.598a2.5 2.5 0 0 1-1.427 4.553zm55.611-80.077a2.49 2.49 0 0 1-1.424-.447l-31.1-21.598a2.5 2.5 0 1 1 2.851-4.106l31.1 21.598a2.5 2.5 0 0 1-1.427 4.553zm33.366-48.046a2.49 2.49 0 0 1-1.424-.447l-31.1-21.598a2.5 2.5 0 1 1 2.851-4.106l31.1 21.598a2.5 2.5 0 0 1-1.427 4.553zm11.123-16.016a2.49 2.49 0 0 1-1.424-.447l-31.101-21.598a2.5 2.5 0 1 1 2.851-4.106l31.101 21.598a2.5 2.5 0 0 1-1.427 4.553zm44.489-64.061a2.49 2.49 0 0 1-1.424-.447l-31.1-21.598a2.5 2.5 0 1 1 2.851-4.106l31.1 21.598a2.5 2.5 0 0 1-1.427 4.553zm44.489-64.062a2.49 2.49 0 0 1-1.424-.447l-31.1-21.598a2.5 2.5 0 1 1 2.851-4.106l31.1 21.598a2.5 2.5 0 0 1-1.427 4.553zm11.122-16.015a2.49 2.49 0 0 1-1.424-.447l-31.1-21.598a2.5 2.5 0 1 1 2.851-4.106l31.1 21.598a2.5 2.5 0 0 1-1.427 4.553zm11.123-16.016a2.49 2.49 0 0 1-1.424-.447l-31.1-21.598a2.5 2.5 0 1 1 2.851-4.106l31.1 21.598a2.5 2.5 0 0 1-1.427 4.553zm-343.262 121.583a2.5 2.5 0 0 1-1.903-4.12c.382-.449 9.462-11.067 18.986-17.481 24.639-16.593 43.477-19.631 44.267-19.752a2.5 2.5 0 0 1 .761 4.942c-.192.03-18.606 3.046-42.234 18.958-8.945 6.024-17.882 16.469-17.971 16.574a2.497 2.497 0 0 1-1.906.879zm-.68 52.627a2.5 2.5 0 0 1-2.052-3.926c.344-.494 8.607-12.214 25.882-21.401 17.088-9.088 38.478-13.013 39.38-13.176a2.5 2.5 0 0 1 .887 4.92c-.214.039-21.536 3.957-37.92 12.67-16.217 8.624-24.045 19.727-24.122 19.838a2.496 2.496 0 0 1-2.055 1.075zm7.328 48.414a2.5 2.5 0 0 1-2.052-3.926c12.522-18.032 30.394-22.706 54.273-27.342a2.497 2.497 0 0 1 2.931 1.978 2.499 2.499 0 0 1-1.978 2.93c-26.281 5.102-40.634 10.187-51.119 25.286a2.498 2.498 0 0 1-2.055 1.074z"/><path d="M1282.202 1976.626a2.52 2.52 0 0 1-.509-.052c-.943-.196-23.269-4.952-36.788-17.792a2.499 2.499 0 0 1-.331-3.24l299.711-431.004a2.503 2.503 0 0 1 3.842-.319c9.23 9.457 17.467 20.273 24.48 32.149.496.84.459 1.892-.097 2.694l-288.253 416.487a2.5 2.5 0 0 1-2.055 1.077zm-32.265-20.04c10.551 9.01 26.183 13.465 31.179 14.716l286.368-413.763c-6.086-10.092-13.083-19.371-20.839-27.637zm175.502-362.605c-3.242 0-6.505-.398-9.732-1.205-21.317-5.327-34.326-27.004-28.999-48.321 2.581-10.326 9.028-19.03 18.155-24.507s19.839-7.072 30.167-4.491c21.316 5.327 34.325 27.004 28.998 48.321-2.581 10.326-9.028 19.03-18.155 24.507-6.274 3.766-13.301 5.696-20.434 5.696zm-.132-74.727c-6.239 0-12.383 1.688-17.87 4.982-7.982 4.79-13.62 12.401-15.877 21.432s-.862 18.4 3.928 26.381 12.401 13.62 21.433 15.877c9.029 2.257 18.398.862 26.381-3.928 7.981-4.79 13.619-12.401 15.876-21.432 4.659-18.642-6.717-37.599-25.359-42.258a35.11 35.11 0 0 0-8.512-1.054zm-355.013-260.514c-.431 0-.866-.111-1.264-.345-25.775-15.137-51.65-24.882-51.909-24.979a2.5 2.5 0 0 1 1.752-4.683c.262.098 26.526 9.985 52.688 25.35a2.5 2.5 0 0 1-1.267 4.657z"/></svg></g><g transform="translate(1156.0 678.0) rotate(0.0 869.0 173.0) translate(0.0 0.0) scale(0.9989636757724868 1.002782286111755)"><svg width="1120.161" height="344.043" viewBox="0 0 1120.161 344.043"><path d="M1599.351 342.54H140.452C64.263 342.54 2.5 280.776 2.5 204.588v-64.135C2.5 64.263 64.263 2.5 140.452 2.5h1458.899c76.189 0 137.952 61.763 137.952 137.952v64.135c0 76.189-61.763 137.953-137.952 137.953z" fill="#cad5f3"/><path d="M1599.351 345.04H140.452C63.007 345.04 0 282.033 0 204.588v-64.135C0 63.007 63.007 0 140.452 0h1458.899c77.445 0 140.452 63.007 140.452 140.452v64.135c.001 77.446-63.006 140.453-140.452 140.453zM140.452 5C65.764 5 5 65.764 5 140.452v64.135C5 279.276 65.764 340.04 140.452 340.04h1458.899c74.688 0 135.452-60.764 135.452-135.452v-64.135C1734.804 65.764 1674.04 5 1599.351 5z"/><circle cx="184.515" cy="173.151" fill="#fff" r="94.704"/><path d="M184.515 270.356c-53.599 0-97.204-43.606-97.204-97.204s43.605-97.204 97.204-97.204 97.205 43.606 97.205 97.204-43.607 97.204-97.205 97.204zm0-189.409c-50.842 0-92.204 41.363-92.204 92.204s41.362 92.204 92.204 92.204 92.205-41.363 92.205-92.204-41.364-92.204-92.205-92.204zm1015.764 7.075H435.571a2.5 2.5 0 1 1 0-5h764.708a2.5 2.5 0 1 1 0 5zm-544.81 173.905H435.571a2.5 2.5 0 1 1 0-5h219.897a2.5 2.5 0 0 1 .001 5zm541.249-86.5H435.274a2.5 2.5 0 1 1 0-5h761.443a2.5 2.5 0 0 1 .001 5z"/></svg></g><g transform="translate(1737.0 1281.0) rotate(0.0 299.0 299.0) scale(1.0013731203322283 1.0013731203322283)"><svg width="597.18" height="597.18" viewBox="0 0 597.18 597.18"><path d="M298.59 2.5C135.064 2.5 2.5 135.064 2.5 298.59s132.564 296.09 296.09 296.09 296.09-132.564 296.09-296.09S462.116 2.5 298.59 2.5zm0 531.434c-129.977 0-235.344-105.367-235.344-235.344S168.613 63.246 298.59 63.246c129.976 0 235.344 105.367 235.344 235.344S428.566 533.934 298.59 533.934z" fill="#fff"/><circle cx="298.59" cy="298.59" fill="#fff" r="118.556"/><path d="M298.59 419.646c-66.75 0-121.056-54.306-121.056-121.056s54.305-121.056 121.056-121.056 121.056 54.305 121.056 121.056S365.34 419.646 298.59 419.646zm0-237.112c-63.993 0-116.056 52.062-116.056 116.056s52.062 116.056 116.056 116.056 116.056-52.062 116.056-116.056c0-63.993-52.063-116.056-116.056-116.056z"/><path d="M533.934 298.59c0 129.977-105.368 235.344-235.344 235.344-129.977 0-235.344-105.367-235.344-235.344H2.5c0 163.526 132.564 296.09 296.09 296.09s296.09-132.564 296.09-296.09z" fill="#92acef"/><path d="M298.59 536.434c-63.53 0-123.258-24.74-168.181-69.663C85.486 421.848 60.746 362.12 60.746 298.59s24.74-123.258 69.663-168.181c44.922-44.923 104.65-69.663 168.181-69.663s123.258 24.74 168.181 69.663c44.923 44.922 69.663 104.65 69.663 168.181s-24.74 123.258-69.663 168.181c-44.923 44.922-104.651 69.663-168.181 69.663zm0-470.688c-62.195 0-120.667 24.22-164.645 68.198-43.979 43.979-68.199 102.451-68.199 164.646s24.22 120.667 68.198 164.646c43.979 43.979 102.451 68.198 164.645 68.198s120.667-24.22 164.646-68.198c43.978-43.979 68.198-102.451 68.198-164.646s-24.22-120.667-68.198-164.646c-43.978-43.978-102.45-68.198-164.645-68.198z"/><path d="M298.59 597.18c-79.756 0-154.739-31.059-211.135-87.455S0 378.346 0 298.59 31.059 143.851 87.455 87.455 218.834 0 298.59 0s154.739 31.059 211.135 87.455c56.397 56.396 87.455 131.378 87.455 211.135s-31.059 154.739-87.455 211.135S378.346 597.18 298.59 597.18zm0-592.18c-78.421 0-152.147 30.539-207.6 85.99C35.539 146.442 5 220.169 5 298.59s30.539 152.147 85.99 207.6c55.452 55.452 129.179 85.99 207.6 85.99s152.147-30.539 207.6-85.99c55.452-55.452 85.99-129.179 85.99-207.6s-30.539-152.147-85.99-207.6C450.737 35.539 377.011 5 298.59 5z"/></svg></g><g transform="translate(572.0 1161.0) rotate(0.0 804.5 718.0) scale(1.0004097389794826 1.0006738520995686)"><svg width="1608.341" height="1435.033" viewBox="0 0 1608.341 1435.033"><path d="M858.572 214.468c38.826-8.844 69.682-37.227 66.389-73.159C918.736 73.385 743.256-57.85 636.863 34.115c-16.077 13.897-15.311 35.105-12.385 47.847-8.741-1.598-38.296 5.67-53.801 42.978-13.801 33.21-10.66 74.132 16.444 102.035 82.733 39.14 172.114 41.127 271.451-12.507z" fill="#6f5490"/><path d="M587.122 229.475a2.492 2.492 0 0 1-1.794-.758c-25.733-26.494-32.391-67.605-16.959-104.737 14.499-34.886 40.918-44.37 53.014-44.699-1.998-11.189-2.973-32.519 13.846-47.057 41.844-36.17 99.573-42.102 162.556-16.704 32.496 13.104 64.114 33.793 89.029 58.256 24.072 23.634 38.884 48.166 40.638 67.305 3.185 34.755-24.911 65.936-68.323 75.824a2.5 2.5 0 0 1-1.111-4.875c40.899-9.316 67.404-38.304 64.454-70.493-3.566-38.911-62.705-95.631-126.558-121.38-35.419-14.283-102.967-31.215-157.416 15.849-16.574 14.327-13.622 36.52-11.583 45.396a2.5 2.5 0 0 1-2.886 3.019c-8.047-1.472-36.25 5.881-51.043 41.478-14.664 35.285-8.411 74.275 15.929 99.334a2.5 2.5 0 0 1-1.793 4.242z"/><path d="M1426.96 1202.792c47.366 6.706 156.26 80.634 178.385 188.754l-525.01 1.783s-26.435-116.003 68.497-207.941c0 0 27.233 52.378 71.302 66.212 65.084 20.43 153.933-56.424 206.826-48.808z" fill="#fff"/><path d="m1078.76 1393.4 13.893 37.786 506.508.021s8.927-21.083 6.14-39.017z" fill="#6f5490"/><path d="M1080.335 1395.829a2.501 2.501 0 0 1-2.438-1.944c-.274-1.202-6.647-29.901-1.393-70.371 4.849-37.34 21.031-91.927 70.588-139.921a2.493 2.493 0 0 1 2.14-.671 2.498 2.498 0 0 1 1.817 1.313c.268.515 27.289 51.626 69.833 64.98 35.427 11.121 77.927-7.243 119.027-25.001 32.567-14.071 63.328-27.364 87.406-23.896 30.798 4.363 72.41 31.759 99.988 56.976 29.811 27.259 67.974 72.59 80.489 133.751a2.5 2.5 0 0 1-2.441 3.001l-525.01 1.783h-.006zm67.903-206.355c-46.633 46.365-62.057 98.583-66.749 134.483-4.412 33.76-.423 59.734.896 66.866l519.875-1.766c-12.861-58.338-49.555-101.761-78.329-128.072-37.488-34.278-75.891-52.682-97.321-55.716l-.006-.001c-22.679-3.267-52.811 9.753-84.71 23.537-32.891 14.211-66.666 28.802-97.65 28.804-8.524 0-16.832-1.103-24.858-3.623-23.346-7.329-41.898-25.297-53.351-39.081-9.025-10.862-15.08-20.706-17.797-25.431z"/><path d="M1560.407 1432.792a2.5 2.5 0 0 1-2.5-2.496l-.059-37.864a2.5 2.5 0 0 1 2.496-2.504h.004a2.5 2.5 0 0 1 2.5 2.496l.059 37.864a2.5 2.5 0 0 1-2.496 2.504h-.004zm-19.499.03a2.5 2.5 0 0 1-2.5-2.496l-.059-37.864a2.5 2.5 0 0 1 2.496-2.504h.004a2.5 2.5 0 0 1 2.5 2.496l.059 37.864a2.5 2.5 0 0 1-2.496 2.504h-.004zm-97.493.152a2.5 2.5 0 0 1-2.5-2.496l-.059-37.864a2.5 2.5 0 0 1 2.496-2.504h.004a2.5 2.5 0 0 1 2.5 2.496l.059 37.864a2.5 2.5 0 0 1-2.496 2.504h-.004zm-58.496.091a2.5 2.5 0 0 1-2.5-2.496l-.059-37.864a2.5 2.5 0 0 1 2.496-2.504h.004a2.5 2.5 0 0 1 2.5 2.496l.059 37.864a2.5 2.5 0 0 1-2.496 2.504h-.004zm-19.499.031a2.5 2.5 0 0 1-2.5-2.496l-.059-37.864a2.5 2.5 0 0 1 2.496-2.504h.004a2.5 2.5 0 0 1 2.5 2.496l.059 37.864a2.5 2.5 0 0 1-2.496 2.504h-.004zm-77.994.121a2.5 2.5 0 0 1-2.5-2.496l-.059-37.864a2.5 2.5 0 0 1 2.496-2.504h.004a2.5 2.5 0 0 1 2.5 2.496l.059 37.864a2.5 2.5 0 0 1-2.496 2.504h-.004zm-77.995.121a2.5 2.5 0 0 1-2.5-2.496l-.059-37.863a2.5 2.5 0 0 1 2.496-2.504h.004a2.5 2.5 0 0 1 2.5 2.496l.059 37.863a2.5 2.5 0 0 1-2.496 2.504h-.004zm-19.499.031a2.5 2.5 0 0 1-2.5-2.496l-.059-37.864a2.5 2.5 0 0 1 2.496-2.504h.004a2.5 2.5 0 0 1 2.5 2.496l.059 37.864a2.5 2.5 0 0 1-2.496 2.504h-.004zm-19.498.03a2.5 2.5 0 0 1-2.5-2.496l-.059-37.864a2.5 2.5 0 0 1 2.496-2.504h.004a2.5 2.5 0 0 1 2.5 2.496l.059 37.864a2.5 2.5 0 0 1-2.496 2.504h-.004z"/><path d="m1599.162 1433.707-506.508-.021a2.5 2.5 0 0 1-2.271-1.454c-5.774-12.526-9.98-25.455-12.502-38.426a2.503 2.503 0 0 1 2.448-2.977l524.966-1.139h.006c1.232 0 2.281.898 2.471 2.116 2.863 18.425-5.933 39.488-6.309 40.375a2.495 2.495 0 0 1-2.301 1.526zm-504.9-5.021 503.196.021c1.814-4.821 7.049-20.209 5.645-34.012l-519.705 1.127c2.382 11.082 6.029 22.116 10.864 32.864zm413.965-121.183a77.72 77.72 0 0 1-5.254-.18c-27.262-1.85-58.699-17.562-93.438-46.703-25.732-21.585-43.8-42.938-43.979-43.15a2.499 2.499 0 1 1 3.824-3.22c.706.838 71.31 83.843 133.938 88.086 17.882 1.205 33.588-4.182 46.685-16.032a2.5 2.5 0 0 1 3.354 3.708c-12.844 11.62-28.006 17.491-45.13 17.491z"/><path d="M1161.168 595.331s94.667-79.84 131.066-103.5c36.4-23.66 167.173-84.142 179.708-49.775 0 0 18.376 32.162-89.654 64.973 0 0 55.27 9.599 12.682 67.918 0 0 23.551 32.734-17.079 64.636-40.63 31.901-58.014 19.991-58.014 19.991s-74.755 51.468-123.143 26.035z" fill="#fbb348"/><path d="M1227.837 695.106c-12.17 0-23.018-2.424-32.265-7.285a2.501 2.501 0 0 1-1.163-1.296l-35.566-90.278a2.503 2.503 0 0 1 .714-2.828c.948-.799 95.203-80.211 131.315-103.685 30.351-19.728 136.684-70.552 172.161-58.707 5.644 1.885 9.412 5.256 11.202 10.021.598 1.208 2.962 6.859-.321 15.117-8.903 22.394-48.48 39.654-83.058 50.802 6.944 2.718 16.437 8.192 20.64 18.594 5.229 12.94.686 29.578-13.505 49.471 1.814 3.043 5.521 10.345 6.17 20.104 1.41 21.208-12.668 36.945-24.726 46.413-35.33 27.74-54.074 23.229-59.392 20.917-4.626 3.033-21.578 13.726-42.681 21.99-18.107 7.093-34.786 10.65-49.525 10.65zm-29.121-11.289c46.518 23.427 119.013-25.798 119.744-26.302a2.503 2.503 0 0 1 2.831-.003c.011.006 4.082 2.55 12.741 1.469 8.195-1.023 22.188-5.56 42.316-21.364 16.161-12.689 23.84-26.87 22.825-42.149-.753-11.327-6.177-18.984-6.231-19.061a2.502 2.502 0 0 1 .01-2.935c13.878-19.004 18.562-34.484 13.92-46.011-5.81-14.43-24.823-17.937-25.014-17.97a2.5 2.5 0 0 1-.295-4.855c28.574-8.679 77.95-26.718 87.588-50.026 2.878-6.959.7-11.167.605-11.343a3.07 3.07 0 0 1-.162-.355c-1.236-3.388-3.9-5.725-8.145-7.142-31.683-10.582-133.396 35.76-167.853 58.157-33.474 21.759-117.651 92.253-129.443 102.16z"/><path d="M1223.2 679.849a77.43 77.43 0 0 1-9.803-.641 2.5 2.5 0 0 1 .632-4.96c43.495 5.551 63.924-28.255 83.68-60.951 8.996-14.888 17.493-28.951 27.967-39.159 1.576-1.536 3.819-3.516 6.417-5.81 13.56-11.972 41.775-36.883 32.275-53.05-1.446-2.461-3.593-3.951-6.564-4.557-11.866-2.42-34.67 8.783-67.785 33.294l-.663.491c-19.238 14.237-43.419 19.384-44.439 19.597a2.499 2.499 0 1 1-1.019-4.895c.239-.05 24.149-5.153 42.484-18.721l.663-.49c6.174-4.57 19.022-14.08 32.667-21.921 17.238-9.905 30.392-14.022 39.091-12.253 4.378.893 7.701 3.222 9.875 6.923 11.589 19.721-17.597 45.489-33.277 59.332-2.547 2.249-4.748 4.191-6.235 5.642-10.016 9.762-18.352 23.558-27.177 38.164-18.198 30.117-38.654 63.961-78.789 63.965z"/><path d="M1342.135 612.709c-11.548 0-21.811-5.826-30.511-17.32a2.5 2.5 0 0 1 3.987-3.017c7.788 10.291 16.812 15.438 26.86 15.336 25.714-.294 50.499-34.239 50.747-34.582a2.498 2.498 0 0 1 3.49-.564 2.498 2.498 0 0 1 .564 3.49c-.266.369-6.635 9.142-16.494 18.082-13.441 12.188-26.311 18.438-38.25 18.575h-.393zm-21.909 49.592c-.407 0-.82-.1-1.202-.31-.479-.264-11.764-6.604-13.443-18.426-1.185-8.337 2.701-17.052 11.548-25.903a2.501 2.501 0 0 1 3.536 3.536c-7.662 7.666-11.073 14.943-10.139 21.63 1.305 9.338 10.819 14.733 10.915 14.787a2.5 2.5 0 0 1-1.215 4.686zm46.106-147.635a2.501 2.501 0 0 1-.764-4.881l16.833-5.406a2.5 2.5 0 1 1 1.529 4.761l-16.833 5.406c-.254.081-.512.12-.765.12z"/><path d="M729.814 701.703c44.94 70.837 91.722 149.657 146.253 169.663 85.219 31.265 174.52-15.224 243.431-39.355 86.61-30.329 149.239-55.188 159.715-94.715 15.569-58.74-51.633-115.344-51.633-115.344 6.242-48.743-62.005-82.38-158.563-17.664-78.276 52.462-136.45 80.229-136.45 80.229-49.661-59.281-72.408-145.995-106.096-192.048-43.358-59.271-91.73-78.765-91.73-78.765-106.781 70.393-136.472 159.561-4.927 287.999z" fill="#fff"/><path d="M711.579 584.124c-26.662 0-51.1-2.989-71.773-6.944-54.7-10.464-95.166-33.812-124.308-52.984-34.939-22.985-75.539-47.849-111.749-57.985-2.489-.697-4.829-1.257-7.092-1.799-6.575-1.574-12.252-2.934-16.583-6.801l16.651-18.647c-.569-.508-.992-.717-.996-.719.962.469 4.307 1.27 6.75 1.855 2.374.568 5.063 1.212 8.009 2.037 39.513 11.061 82.203 37.131 118.75 61.174 28.897 19.01 65.189 39.735 115.266 49.315 51.866 9.922 129.159 13.386 202.849-26.461l11.892 21.991c-50.499 27.304-102.292 35.968-147.666 35.968z" fill="#fbb348"/><path d="M711.758 509.553c-15.136 0-29.84-1.479-42.665-4.391l5.535-24.38c37.52 8.52 96.115 3.033 125.362-20.683l15.746 19.418c-22.133 17.948-51.844 25.11-72.87 27.958a233.22 233.22 0 0 1-31.108 2.078zm-9.338 158.789c-49.243 0-99.184-8.52-137.538-23.513-25.693-10.044-55.769-26.47-84.854-42.355-26.699-14.582-54.308-29.661-76.922-38.821-35.643-14.438-50.131-13.369-59.721-12.663-7.042.518-15.025 1.106-24.095-5.444l14.637-20.268c1.525 1.102 1.684 1.217 7.622.779 11.182-.823 29.896-2.202 70.943 14.425 23.948 9.7 52.199 25.13 79.52 40.051 28.398 15.51 57.762 31.548 81.972 41.012 36.405 14.23 84.375 22.158 131.713 21.784 62.377-.511 120.966-14.568 174.138-41.783l11.39 22.255c-56.667 29.003-119.02 43.984-185.323 44.527-1.161.009-2.323.014-3.482.014z" fill="#fbb348"/><path d="M937.069 884.316c-22.101 0-42.574-3.526-61.862-10.603-51.704-18.969-95.835-88.863-138.514-156.456-3.006-4.761-6.001-9.505-8.989-14.215a2.5 2.5 0 0 1 4.221-2.679c2.99 4.712 5.988 9.46 8.995 14.224 42.232 66.886 85.902 136.048 136.008 154.431 31.446 11.537 66.237 13.357 106.364 5.56 35.198-6.837 70.013-20.205 100.73-31.998 12.125-4.655 23.577-9.053 34.649-12.93 47.245-16.544 81.8-29.634 108.05-43.75 29.458-15.842 45.369-31.49 50.075-49.246 14.99-56.554-50.167-112.235-50.827-112.791a2.496 2.496 0 0 1-.869-2.229c2.169-16.944-5.136-31.949-20.042-41.167-24.14-14.929-72.188-15.965-134.649 25.897-77.53 51.962-136.181 80.13-136.765 80.409a2.5 2.5 0 0 1-2.993-.651c-28.621-34.165-48.606-77.889-66.239-116.466-13.211-28.903-25.689-56.204-39.958-75.711-22.143-30.27-45.604-49.841-61.387-60.93-17.112-12.023-29.142-16.945-29.261-16.994a2.5 2.5 0 0 1 1.87-4.637c.504.204 12.561 5.123 30.107 17.428 16.132 11.315 40.107 31.287 62.706 62.18 14.57 19.918 27.151 47.443 40.471 76.584 17.241 37.721 36.75 80.402 64.276 113.832 10.27-5.055 64.634-32.447 134.389-79.198 28.834-19.325 56.593-31.064 82.506-34.893 22.798-3.369 42.7-.292 57.557 8.896 16.253 10.051 24.411 26.291 22.526 44.712 3.913 3.447 18.124 16.505 31.077 35.249 19.864 28.743 26.897 57.015 20.338 81.761-10.834 40.877-73.69 65.753-161.306 96.434-11.002 3.853-22.42 8.237-34.51 12.878-30.908 11.867-65.941 25.318-101.568 32.239-16.553 3.218-32.237 4.83-47.176 4.83z"/><path d="M968.831 711.192a2.5 2.5 0 0 1-.659-.088c-15.197-4.145-36.417-23.922-37.313-24.762a2.5 2.5 0 0 1 3.419-3.648c.21.197 21.209 19.768 35.209 23.586a2.5 2.5 0 0 1-.656 4.912zm258.749-86.739a2.485 2.485 0 0 1-1.585-.568c-13.165-10.817-29.24-11.679-29.401-11.687a2.501 2.501 0 0 1-2.382-2.613c.064-1.379 1.223-2.43 2.613-2.382.725.034 17.91.958 32.344 12.818a2.5 2.5 0 0 1-1.589 4.432z"/><path d="M1079.583 1308.031c125.272 21.314 230.622-90.823 347.376-105.239 0 0-138.223-301.63-219.885-446.111-93.099-164.714-118.278-176.994-291.46-137.284-197.971 45.394-282.974 75.864-452.619 160.46-188.115 93.805-129.219 428.214 190.236 280.339C778.859 1002.043 944.83 901.27 944.83 901.27s74.385 255.839 134.753 406.761z" fill="#92acef"/><path d="M1111.298 1313.179c-10.625 0-21.329-.845-32.133-2.683a2.5 2.5 0 0 1-1.882-1.489c-45.824-108.098-124.533-372.215-133.93-403.922-22.284 13.42-173.6 103.93-289.07 157.381-72.136 33.392-135.127 44.56-187.227 33.196-22.986-5.014-43.243-14.427-60.207-27.977-15.894-12.695-28.556-28.708-37.634-47.596-18.744-38.996-20.505-87.184-4.834-132.208 16.741-48.098 51.367-87.255 97.5-110.26 171.291-85.417 255.998-115.446 453.176-160.659 88.48-20.29 137.592-26.639 177.387-7.841 39.557 18.685 69.183 62.073 116.808 146.332 80.78 142.92 218.599 443.282 219.982 446.299a2.5 2.5 0 0 1-1.999 3.526c-43.849 4.839-88.637 26.865-136.054 50.184-57.84 28.443-117.369 57.717-179.883 57.717zm-29.947-7.389c72.293 11.744 141.08-22.092 207.622-54.816 46.599-22.917 90.683-44.595 134.283-50.255-14.911-32.407-142.113-307.913-218.357-442.808-92.704-164.012-116.991-175.456-288.725-136.078-196.707 45.105-281.204 75.06-452.062 160.261-44.958 22.419-78.7 60.571-95.009 107.429-15.24 43.786-13.557 90.585 4.618 128.399 12.802 26.634 39.571 60.894 94.401 72.854 24.121 5.261 51.246 5.481 80.622.654 31.956-5.251 66.757-16.523 103.438-33.502 124.061-57.428 289.693-157.787 291.352-158.794a2.5 2.5 0 0 1 3.696 1.431c.853 2.898 85.597 290.121 134.121 405.225z"/><path d="M374.267 761.835c41.993 70.008 145.555 132.321 224.138 117.458 80.069-15.144 115.84-54.301 127.696-99.687 17.432-66.731 1.382-76.434 17.503-178.12l-3.875-165.427-145.206-60.956C467.224 509.608 265.229 651.869 374.267 761.835z" fill="#fff"/><path d="M640.732 823.513c-7.437 0-15.411-.353-23.941-1.178-52.96-5.122-113.608-26.979-180.257-64.963l12.379-21.72c147.203 83.894 219.821 62.822 250.832 53.822 10.394-3.016 17.26-5.007 24.138-2.061l-9.849 22.979c1.465.627 2.525.591 2.531.591-1.441.06-6.105 1.413-9.853 2.501-12.816 3.719-34.564 10.029-65.98 10.029zm27.744-77.497c-8.291 0-17.43-.337-27.472-1.147-56.481-4.555-111.656-23.889-168.677-59.108l13.138-21.27c53.572 33.089 105.107 51.23 157.549 55.459 42.772 3.447 66.457-2.173 79.18-5.194 5.687-1.35 9.446-2.237 13.264-1.883l-2.339 24.891c.531.05.848.024.861.023-.873.073-3.722.75-6.011 1.293-10.256 2.436-29.216 6.936-59.493 6.936zm34.533-77.719c-49.561.001-99.314-8.295-138.127-23.468-25.693-10.044-55.769-26.47-84.854-42.355-26.699-14.582-54.308-29.661-76.922-38.821-35.643-14.438-50.131-13.369-59.721-12.663-7.042.518-15.025 1.106-24.095-5.444l14.637-20.268c1.525 1.102 1.684 1.217 7.622.779 11.182-.824 29.895-2.203 70.943 14.425 23.948 9.7 52.199 25.13 79.52 40.051 28.398 15.51 57.762 31.548 81.972 41.012 44.582 17.427 105.074 25.065 161.823 20.437l2.033 24.917a429.28 429.28 0 0 1-34.831 1.398z" fill="#fbb348"/><path d="M573.892 884.008c-31.736 0-67.243-10.096-102.48-29.426-42.082-23.085-78.271-56.421-99.29-91.461a2.5 2.5 0 0 1 4.288-2.572c20.576 34.302 56.079 66.978 97.407 89.649 43.807 24.032 87.889 33.492 124.124 26.638 69.928-13.226 112.233-46.151 125.741-97.862 8.85-33.878 8.994-52.937 9.175-77.065.171-22.733.385-51.026 8.278-100.814a2.5 2.5 0 1 1 4.939.783c-7.834 49.417-8.046 77.502-8.216 100.069-.185 24.477-.331 43.81-9.337 78.291-14.039 53.742-57.659 87.896-129.65 101.511-7.991 1.512-16.348 2.259-24.979 2.259z"/><path d="m319.527 1061.413-47.756 113.634-2.49 154.345s434.944 96.741 583.356 103.102c189.03 8.101 180.177-150.378 56.709-278.145-141.141-146.056-589.819-92.936-589.819-92.936z" fill="#92acef"/><path d="M277.599 1331.255c-23.311 41.774-131.49 116.745-240.324 98.455l187.378-490.436s117.74 17.108 169.329 138.777c0 0-58.671 6.546-87.444 42.678-42.495 53.361-2.788 163.924-28.939 210.526z" fill="#fff"/><path d="m225.154 937.779-40.254-.645L2.5 1409.661s16.455 15.919 34.189 19.777z" fill="#6f5490"/><path d="M72.016 1435.078c-11.441 0-23.191-.892-35.156-2.902a2.503 2.503 0 0 1-1.921-3.358l187.378-490.437a2.503 2.503 0 0 1 2.695-1.582c1.22.177 30.289 4.565 66.152 24.04 33.09 17.969 78.188 52.72 105.119 116.235a2.502 2.502 0 0 1-2.024 3.461c-.577.065-57.989 6.87-85.767 41.751-23.132 29.047-21.303 75.308-19.534 120.045 1.401 35.449 2.725 68.932-9.18 90.148-10.924 19.573-42.727 49.661-89.158 72.766-29.134 14.499-71.172 29.833-118.604 29.833zm-31.307-7.35c59.053 9.003 112.778-9.589 147.686-26.96 45.477-22.63 76.475-51.831 87.022-70.731l.003-.005c11.213-19.983 9.917-52.781 8.544-87.503-1.805-45.651-3.671-92.856 20.619-123.358 15.243-19.141 38.687-29.979 55.669-35.7 13.381-4.508 24.747-6.613 30.133-7.446-26.499-60.279-69.742-93.489-101.606-110.792-29.875-16.223-55.418-21.816-62.524-23.146z"/><path d="M52.654 1389.914a2.5 2.5 0 0 1-.896-.167l-35.345-13.579a2.5 2.5 0 1 1 1.793-4.667l35.345 13.579a2.499 2.499 0 0 1-.897 4.834zm6.992-18.202a2.5 2.5 0 0 1-.896-.167l-35.345-13.579a2.499 2.499 0 1 1 1.793-4.667l35.345 13.579a2.5 2.5 0 0 1-.897 4.834zm34.963-91.009a2.5 2.5 0 0 1-.896-.167l-35.345-13.579a2.499 2.499 0 1 1 1.793-4.667l35.345 13.579a2.5 2.5 0 0 1-.897 4.834zm20.978-54.604a2.5 2.5 0 0 1-.896-.167l-35.345-13.579a2.5 2.5 0 1 1 1.793-4.667l35.345 13.579a2.499 2.499 0 0 1-.897 4.834zm6.992-18.202a2.5 2.5 0 0 1-.896-.167l-35.345-13.579a2.5 2.5 0 1 1 1.793-4.667l35.345 13.579a2.5 2.5 0 0 1-.897 4.834zm27.971-72.807a2.5 2.5 0 0 1-.896-.167l-35.345-13.579a2.499 2.499 0 1 1 1.793-4.667l35.345 13.579a2.499 2.499 0 0 1-.897 4.834zm27.97-72.807a2.5 2.5 0 0 1-.896-.167l-35.345-13.579a2.499 2.499 0 1 1 1.793-4.667l35.345 13.579a2.5 2.5 0 0 1-.897 4.834zm6.993-18.202a2.5 2.5 0 0 1-.896-.167l-35.345-13.579a2.5 2.5 0 1 1 1.793-4.667l35.345 13.579a2.499 2.499 0 0 1-.897 4.834zm6.993-18.201a2.5 2.5 0 0 1-.896-.167l-35.345-13.579a2.499 2.499 0 1 1 1.793-4.667l35.345 13.579a2.5 2.5 0 0 1-.897 4.834z"/><path d="M36.69 1431.938c-.176 0-.354-.019-.532-.058-18.22-3.962-34.703-19.753-35.396-20.423a2.498 2.498 0 0 1-.594-2.697l182.4-472.526a2.5 2.5 0 0 1 2.173-1.595c13.766-.875 27.341-.145 40.35 2.173a2.5 2.5 0 0 1 1.896 3.357L39.023 1430.332a2.501 2.501 0 0 1-2.333 1.606zm-31.244-22.967c3.843 3.429 16.315 13.853 29.697 17.514l186.081-485.251c-11.196-1.768-22.804-2.337-34.571-1.698zm153.706 7.788a2.502 2.502 0 0 1-2.29-1.493c-7.686-17.456-7.87-35.379-.547-53.272 10.349-25.289 35.17-50.171 73.775-73.953 28.597-17.617 54.555-28.033 54.814-28.136a2.5 2.5 0 0 1 1.852 4.644c-1.018.406-102.046 41.246-125.815 99.344-6.787 16.587-6.619 33.194.498 49.358a2.5 2.5 0 0 1-2.287 3.508z"/><path d="M852.637 1432.493c189.03 8.101 186.932-155.07 63.464-282.837C774.96 1003.601 698.203 951.252 538.13 849.701c-177.5-112.607-433.402 110.578-141.755 307.71 114.693 77.524 335.253 182.548 335.253 182.548z" fill="#92acef"/><path d="M852.637 1434.994c-113.68 0-570.969-100.284-575.575-101.297a2.5 2.5 0 0 1 1.075-4.884c4.601 1.012 461.359 101.18 574.5 101.18 37.643 0 68.939-6.181 93.02-18.371 22.234-11.255 37.941-27.41 46.684-48.015 11.579-27.291 10.435-61.549-3.308-99.073-13.815-37.723-39.656-76.846-74.73-113.141-143.681-148.685-223.897-202.128-377.512-299.583-42.421-26.913-92.52-36.094-141.065-25.85-45.364 9.571-84.565 35.189-107.552 70.286-16.191 24.721-31.695 65.34-13.611 118.465 7.956 23.371 21.78 46.71 41.09 69.369 21.004 24.648 48.634 48.623 82.123 71.258 113.223 76.531 332.724 181.313 334.927 182.362a2.5 2.5 0 0 1-2.149 4.515c-2.208-1.051-222.043-105.993-335.578-182.734-65.857-44.514-107.962-92.68-125.146-143.158-7.582-22.271-9.987-44.479-7.149-66.004 2.659-20.167 9.829-39.281 21.311-56.812 23.706-36.194 64.055-62.597 110.703-72.439 49.829-10.514 101.247-1.096 144.776 26.521 153.954 97.67 234.352 151.235 378.429 300.33 35.555 36.793 61.776 76.523 75.83 114.896 14.187 38.737 15.298 74.266 3.215 102.746-9.216 21.722-25.711 38.72-49.028 50.523-24.789 12.548-56.846 18.91-95.28 18.91z"/><path d="M579.629 1046.198s19.538 50.75 69.585 57.106c50.047 6.355 58.811 11.773 58.811 11.773s58.604 84.115 96.366 61.32c0 0 12.217-9.9 11.68-16.916 0 0 46.519-3.805 26.466-55.381 0 0 30.14-16.563 8.33-52.031 0 0-24.234-28.546-28.222-31.683 0 0 5.476-32.752-28.437-57.483-33.912-24.731-106.375-22.579-134.569-24.459z" fill="#fbb348"/><path d="M735.809 1126.578a2.49 2.49 0 0 1-1.133-.273c-11.281-5.748-27.628-8.686-48.324-12.406-13.513-2.429-28.829-5.182-45.227-9.24-41.669-10.312-63.807-55.178-64.729-57.083a2.5 2.5 0 0 1 4.501-2.18c.216.446 22.068 44.667 61.43 54.409 16.24 4.019 31.472 6.757 44.91 9.172 21.102 3.793 37.77 6.789 49.709 12.872a2.5 2.5 0 0 1-1.137 4.729z"/><path d="M791.152 1183.529c-1.111 0-2.242-.061-3.396-.184-34.8-3.69-78.607-62.4-80.455-64.898a2.5 2.5 0 0 1 4.02-2.975c.439.594 44.343 59.444 76.964 62.9 6.747.712 12.35-.989 17.136-5.208 5.9-5.201 8.366-11.553 7.537-19.417-3.098-29.401-51.985-69.189-70.043-79.35-9.554-5.375-21.541-11.66-36.646-19.212a2.5 2.5 0 0 1 2.236-4.472c15.178 7.589 27.235 13.911 36.861 19.327 19.303 10.861 69.23 51.553 72.563 83.184.997 9.458-2.1 17.429-9.203 23.691-4.984 4.397-10.885 6.614-17.574 6.614z"/><path d="m816.426 1161.632-.13-.001a2.501 2.501 0 0 1-2.435-2.563c.036-1.379 1.214-2.494 2.56-2.435.865.007 20.623.22 27.421-18.394 6.771-18.54-8.117-44.432-26.324-60.427-17.502-15.375-94.644-61.818-95.421-62.286a2.5 2.5 0 0 1 2.577-4.285c3.189 1.917 78.305 47.144 96.144 62.814 18.884 16.59 35.614 44.288 27.721 65.899-7.743 21.197-30.184 21.678-32.113 21.678z"/><path d="M841.833 1106.939a2.5 2.5 0 0 1-1.107-4.743c.2-.101 11.278-5.771 14.461-18.019 2.599-10-.602-21.661-9.515-34.657-22.292-32.509-62.362-52.437-86.303-64.342-4.934-2.454-9.194-4.572-12.34-6.341a2.5 2.5 0 1 1 2.451-4.359c3.035 1.707 7.243 3.8 12.115 6.223 24.375 12.122 65.173 32.411 88.2 65.991 9.789 14.275 13.224 27.335 10.21 38.816-3.811 14.519-16.534 20.91-17.074 21.175a2.493 2.493 0 0 1-1.098.256z"/><path d="M822.646 1022.887h-.053a2.5 2.5 0 0 1-2.448-2.551c.39-18.783-6.044-34.564-19.124-46.907-42.183-39.806-140.201-32.571-141.186-32.492-1.374.114-2.58-.919-2.689-2.295s.918-2.58 2.295-2.689c.251-.02 25.475-1.951 55.69 1.196 40.817 4.252 70.867 15.233 89.316 32.639 14.154 13.354 21.117 30.396 20.697 50.652a2.5 2.5 0 0 1-2.498 2.447z"/><path d="M523.131 600.359c-30.065 48.496-74.824 128.501-89.685 180.723 0 0 76.413 52.225 144.822 70.107 184.829 48.314 94.66 265.58-31.21 253.589-40.507-3.859-108.775-48.147-178.477-106.33-81.263-67.832-172.738-124.015-161.541-198.195 13.208-87.5 146.738-334.281 213.885-383.522 59.098-43.338 122.644-54.777 173.597-41.628z" fill="#fff"/><g fill="#fbb348"><path d="m519.858 1099.888-21.972-11.928c3.6-6.63 9.525-11.599 17.027-17.889 14.276-11.97 38.171-32.004 67.11-82.539 23.335-40.75 20.825-86.758 19.619-108.868-.51-9.354-.767-14.049.59-18.135l23.726 7.879c.253-.763.309-1.258.311-1.279-.145 1.354.111 6.039.336 10.173 1.337 24.504 4.119 75.493-22.887 122.652-31.154 54.405-57.188 76.232-72.742 89.273-5.251 4.404-9.786 8.206-11.118 10.661zm-93.485-55.409-18.909-16.354c5.144-5.948 11.965-11.402 19.863-17.718 16.546-13.231 39.208-31.353 62.563-67.036 20.779-31.747 28.132-61.074 33.501-82.487 2.476-9.875 4.614-18.403 7.561-25.36l23.021 9.75c-2.189 5.169-4.109 12.826-6.332 21.69-5.801 23.138-13.747 54.826-36.833 90.098-25.542 39.023-50.005 58.586-67.868 72.87-7.222 5.775-12.926 10.336-16.567 14.547zm12.562-285.56c-19.865-11.174-58.898-24.934-103.529-26.94-48.637-2.187-73.201 6.266-87.876 11.315-9.633 3.314-17.243 5.931-25.37 2.686l9.273-23.217c-.825-.329-1.416-.319-1.419-.316 1.385-.042 5.819-1.567 9.381-2.792 15.286-5.259 43.739-15.049 97.133-12.65 48.966 2.201 91.338 17.005 114.664 30.125zM325.841 964.697l-18.344-16.986c4.305-4.649 12.129-9.401 23.972-16.595 18.504-11.24 43.847-26.633 67.393-48.604 18.84-17.58 50.912-53.836 62.044-81.667l23.212 9.285c-4.089 10.222-12.195 24.197-22.24 38.342-12.993 18.295-28.886 36.387-45.96 52.319-25.426 23.724-53.134 40.555-71.469 51.692-7.819 4.748-16.68 10.13-18.608 12.214zm385.733-380.536c-23.454 0-47.457-2.33-71.769-6.981-54.7-10.464-95.166-33.812-124.308-52.984-34.939-22.985-75.54-47.849-111.749-57.985-2.489-.697-4.829-1.257-7.092-1.799-6.575-1.574-12.252-2.934-16.583-6.801l16.651-18.647c-.568-.508-.992-.717-.996-.719.962.469 4.307 1.27 6.75 1.855 2.374.568 5.063 1.212 8.01 2.037 39.513 11.061 82.202 37.131 118.75 61.174 28.896 19.01 65.188 39.735 115.265 49.315 37.224 7.122 73.577 8.431 108.045 3.891l3.265 24.786c-14.477 1.906-29.247 2.858-44.239 2.858zm.112-74.642c-15.078 0-29.786-1.449-42.593-4.357-35.89-8.149-67.277-28.128-94.97-45.755-8.744-5.565-17.002-10.823-25.212-15.632-18.962-11.11-38.303-18.665-53.844-24.735-22.386-8.744-35.898-14.021-40.203-25.596l23.432-8.715c-.301-.811-.652-1.21-.656-1.214 2.567 2.881 15.85 8.069 26.522 12.238 16.36 6.39 36.721 14.343 57.387 26.451 8.606 5.042 17.054 10.42 25.998 16.113 27.247 17.343 55.42 35.276 87.081 42.465 23.068 5.238 53.412 5.013 79.188-.586l5.308 24.43c-15 3.258-31.427 4.893-47.438 4.893zM512.959 620.251c-10.872-5.729-22.087-11.854-32.933-17.778-26.699-14.582-54.307-29.661-76.921-38.821-35.643-14.438-50.131-13.369-59.721-12.663-7.042.518-15.025 1.106-24.095-5.444l14.637-20.268c1.525 1.102 1.684 1.217 7.622.779 11.182-.824 29.895-2.203 70.943 14.425 23.948 9.7 52.198 25.13 79.519 40.051 10.765 5.879 21.897 11.959 32.603 17.601zm-40.953 65.305c-31.193-20.606-69.116-35.393-104.043-40.567-30.586-4.531-51.675-2.048-67.074-.234-13.253 1.56-23.72 2.793-33.157-1.562l10.477-22.699c3.037 1.403 10.785.49 19.756-.567 15.845-1.867 39.788-4.685 73.662.333 38.416 5.691 80.025 21.888 114.16 44.438zM231.143 873.188l.087-.063-15.015-19.989c4.172-3.134 10.401-5.462 24.05-10.564 15.083-5.638 37.875-14.159 72.973-29.299 49.546-21.373 82.958-36.496 95.477-51.388l19.137 16.087c-16.426 19.541-50.491 34.867-104.711 58.256-35.667 15.386-58.809 24.037-74.122 29.761-8.279 3.095-16.099 6.019-17.876 7.199z"/></g><path d="M556.981 1107.75c-3.383 0-6.771-.16-10.159-.483-50.854-4.845-134.505-69.056-179.842-106.899-13.436-11.215-27.274-22.209-40.656-32.841-34.331-27.273-66.757-53.035-89.787-80.055-26.192-30.73-36.35-58.563-31.969-87.592 6.201-41.08 40.35-122.31 86.998-206.942 48.917-88.749 96.724-155.375 127.881-178.224 56.011-41.074 120.053-56.392 175.7-42.032a2.5 2.5 0 1 1-1.249 4.841c-54.193-13.987-116.699 1.04-171.494 41.223-30.145 22.105-78.601 89.777-126.459 176.605-46.386 84.157-80.313 164.731-86.433 205.274-4.149 27.491 5.647 54.056 30.83 83.603 22.714 26.65 54.956 52.265 89.091 79.383 13.406 10.65 27.269 21.664 40.75 32.917 76.392 63.767 140.947 102.315 177.112 105.761 30.41 2.897 60.975-7.974 86.057-30.611 23.533-21.238 40.156-51.074 45.609-81.855 5.22-29.464.085-57.212-14.848-80.244-17.284-26.657-46.379-45.488-86.478-55.97-68.041-17.787-144.833-69.938-145.601-70.462a2.5 2.5 0 0 1-.994-2.748c4.646-16.324 24.352-76.924 82.894-171.355a2.5 2.5 0 0 1 4.25 2.634c-14.581 23.519-63.244 104.656-81.832 168.345 11.015 7.327 80.568 52.547 142.547 68.749 41.344 10.808 71.425 30.351 89.409 58.088 15.634 24.113 21.02 53.103 15.576 83.836-5.643 31.856-22.841 62.726-47.183 84.695-23.352 21.076-51.324 32.359-79.72 32.359z"/><path d="M433.444 783.583c-.45 0-.906-.122-1.317-.377-18.756-11.656-28.264-30.375-28.66-31.166a2.5 2.5 0 0 1 4.471-2.238c.091.181 9.308 18.269 26.827 29.156a2.5 2.5 0 0 1-1.321 4.625z"/><path d="M729.115 449.848c7.955-3.712 16.029-8.982 17.5-22.273 2.452-22.152-13.459-57.933-61.864-76.841-46.802-18.282-82.382-1.116-93.511 14.965-8.178 11.817-4.406 28.199 6.168 38.774 29.805 37.061 72.083 54.712 131.707 45.375z" fill="#fff"/><path d="M729.115 452.349a2.5 2.5 0 0 1-1.059-4.766c8.752-4.084 14.834-9.097 16.073-20.283 1.297-11.714-2.871-25.542-11.433-37.941-10.648-15.42-27.543-27.971-48.856-36.296-25.714-10.044-46.069-8.429-58.62-5.306-20.766 5.168-29.687 16.129-31.926 19.366-7.039 10.171-4.566 25.137 5.88 35.583a2.498 2.498 0 0 1 0 3.535 2.498 2.498 0 0 1-3.535 0c-12.156-12.156-14.872-29.805-6.457-41.964 11.281-16.3 47.45-35.022 96.477-15.871 47.573 18.583 66.233 54.208 63.44 79.445-1.588 14.338-10.459 20.312-18.929 24.264a2.507 2.507 0 0 1-1.055.234z"/><path d="m681.285 280.94-48.543 88.313c24.896 53.857 83.454 48.667 83.454 48.667l40.537-68.878z" fill="#fbb348"/><path d="M711.917 420.563c-5.787 0-16.547-.625-28.844-4.39-16.684-5.108-39.353-17.212-52.601-45.872a2.502 2.502 0 0 1 .078-2.253l48.543-88.313a2.5 2.5 0 0 1 4.382 2.408l-47.93 87.197c10.04 20.977 26.457 35.103 48.815 41.997 14.189 4.375 26.493 4.315 30.359 4.162l39.858-67.726a2.5 2.5 0 0 1 4.31 2.536l-40.537 68.878a2.5 2.5 0 0 1-1.934 1.222c-.195.019-1.81.154-4.499.154z"/><path d="M805.532 125.207c8.301 3.727 68.557 26.208 67.551 104.065 0 0 21.738-11.26 27.629 1.942s-28.039 33.706-28.039 33.706-5.714 95.313-100.375 99.399c-57.886 2.043-97.06-46.347-97.06-46.347s-86.755 20.824-114.905-41.479c-23.797-77.433 69.804-111.827 126.1-40.64-82.543-75.351 42.075-139.255 119.099-110.646z" fill="#fbb348"/><path d="M771.208 366.822c-.325 0-.646-.001-.972-.003-52.554-.375-89.419-38.828-95.91-46.087-5.403 1.127-24.546 4.591-46.496 2.352-34.04-3.475-58.172-19.237-69.786-45.582-6.501-14.747-7.442-29.694-2.721-43.228 4.321-12.384 13.365-23.142 25.467-30.291 28.037-16.563 73.676-14.128 107.629 30.353a2.5 2.5 0 0 1-3.974 3.034c-22.503-29.481-63.744-51.158-101.112-29.083-11.086 6.549-19.357 16.363-23.289 27.633-4.297 12.316-3.406 25.998 2.575 39.564 6.033 13.685 15.596 24.304 28.422 31.562 10.348 5.856 22.853 9.573 37.167 11.049 24.598 2.538 46.234-2.504 46.449-2.556a2.504 2.504 0 0 1 2.509.843c.371.45 37.749 45.041 93.105 45.436 38.488.258 66.977-15.875 84.673-48.002 13.315-24.174 15.216-48.828 15.233-49.074a2.503 2.503 0 0 1 1.2-1.962c12.386-7.49 30.682-22.407 27.049-30.548-.956-2.142-2.457-3.546-4.589-4.294-6.212-2.179-16.26 1.827-19.608 3.555a2.5 2.5 0 0 1-3.646-2.121c-1.749-43.422-19.503-68.758-34.09-82.365-15.833-14.771-31.489-19.351-31.645-19.395a2.502 2.502 0 0 1-1.722-3.087 2.495 2.495 0 0 1 3.083-1.724c.678.191 16.794 4.866 33.498 20.368 14.938 13.861 33.027 39.301 35.684 82.326 4.735-1.914 13.387-4.625 20.09-2.278 3.458 1.209 5.984 3.558 7.511 6.979 6.162 13.809-21.288 32.034-27.944 36.196-.561 5.534-3.458 27.488-15.642 49.687-12.731 23.194-38.357 50.741-88.198 50.743z"/><path d="M663.162 292.189a2.5 2.5 0 0 1-2.367-1.696c-.187-.546-17.121-48.407-70.245-61.073a2.5 2.5 0 0 1-1.852-3.011 2.495 2.495 0 0 1 3.011-1.852c29.22 6.967 47.725 24.057 58.104 37.167 11.245 14.205 15.54 26.639 15.717 27.161a2.5 2.5 0 0 1-2.368 3.304z"/><path d="M621.979 280.847a2.5 2.5 0 0 1-2.274-3.536c6.121-13.452 26.902-15.845 27.784-15.94a2.5 2.5 0 0 1 .539 4.971c-.188.021-18.834 2.187-23.772 13.041a2.502 2.502 0 0 1-2.277 1.464zm238.607 27.03h-.004c-1.225-.002-30.171-.351-45.217-26.635a2.5 2.5 0 1 1 4.34-2.484c13.579 23.722 40.618 24.118 40.889 24.119a2.5 2.5 0 0 1-.008 5zm-15.955-88.331a5.423 5.423 0 0 0-5.401-5.439 5.417 5.417 0 0 0-5.437 5.402 5.419 5.419 0 1 0 10.838.037z"/><path d="M785.743 288.101c.073-21.752-17.506-39.447-39.256-39.52-21.758-.073-39.455 17.504-39.528 39.256-.073 21.758 17.506 39.455 39.264 39.528 21.751.073 39.448-17.506 39.52-39.264z" fill="#e79f33"/><path d="M668.097 213.774c43.341-.869 66.271-37.457 72.034-78.756 67.231 21.13 83.559-47.062 141.185 3.842 0 0-72.61-134.643-179.543-64.726s-33.676 139.64-33.676 139.64z" fill="#6f5490"/><path d="M668.096 216.274a2.5 2.5 0 0 1-.05-5c19.593-.393 35.82-8.234 48.229-23.306 10.982-13.34 18.375-31.769 21.379-53.296a2.496 2.496 0 0 1 3.225-2.039c29.249 9.192 48.078 1.182 66.288-6.566 22.021-9.369 42.819-18.217 75.804 10.919a2.5 2.5 0 1 1-3.311 3.747c-30.619-27.047-48.235-19.554-70.536-10.065-17.605 7.489-37.488 15.949-66.948 7.572-3.377 21.214-10.97 39.458-22.042 52.906-13.19 16.021-31.167 24.71-51.988 25.127l-.05.001zm276.733 687.497a2.5 2.5 0 0 1-2.432-1.93l-13.943-59.485a2.5 2.5 0 1 1 4.868-1.14l13.943 59.485a2.5 2.5 0 0 1-2.436 3.07z"/></svg></g><g transform="translate(1968.0 916.0) rotate(0.0 61.5 65.5) scale(0.9882772639985858 0.9912527618874662)"><svg width="124.459" height="132.156" viewBox="0 0 124.459 132.156"><path d="M124.459 130.169c-6.151-24.092-41.061-45.645-49.357-55.025-6.926-7.831-18.825-33.951-25.167-45.879C39.135 8.956 17.14-4.212 5.255 9.711-9.333 26.8 18.866 60.97 16.304 129.656z" fill="#ffaac3"/><path d="M16.305 132.156c-.031 0-.063 0-.095-.002a2.499 2.499 0 0 1-2.405-2.591c1.155-30.952-4.419-56.39-8.897-76.83C-.423 28.399-4.276 10.818 9.586 3.081 15.164-.032 20.778-.791 26.271.828c9.074 2.672 17.536 11.59 25.871 27.263 1.713 3.222 3.852 7.518 6.116 12.065C64.435 52.561 72.121 68 76.975 73.488c2.101 2.375 6.282 5.798 11.123 9.76 8.904 7.289 21.099 17.271 29.496 28.338a2.5 2.5 0 0 1-3.983 3.023c-8.04-10.596-19.484-19.964-28.68-27.492-5.214-4.269-9.333-7.64-11.701-10.317-5.291-5.981-13.14-21.747-19.447-34.415-2.249-4.517-4.373-8.783-6.055-11.946C40.163 16.215 32.469 7.866 24.859 5.623c-4.215-1.242-8.414-.646-12.836 1.824C1.875 13.111 4.28 26.503 9.792 51.663c4.539 20.716 10.188 46.499 9.009 78.086a2.499 2.499 0 0 1-2.496 2.407z"/></svg></g></svg>