<svg xmlns="http://www.w3.org/2000/svg" viewBox="0 0 3000 2250" width="3000" height="2250"><g transform="translate(254.25 1011.75) rotate(0.0 400.125 541.875) scale(0.8842541436464089 0.8846938775510204)"><svg width="905" height="1225" viewBox="0 0 905 1225"><path d="m622.5 662.5-160-660h-340l160 660-280 560h60l260-500h360l160 500h60l-180-560h-380" fill="#fff"/><path d="M902.5 1225h-60a2.499 2.499 0 0 1-2.381-1.738L680.675 725H324.018l-259.3 498.653A2.5 2.5 0 0 1 62.5 1225h-60a2.501 2.501 0 0 1-2.235-3.619L279.855 662.2 120.07 3.089A2.499 2.499 0 0 1 122.5 0h340a2.5 2.5 0 0 1 2.43 1.911L624.466 660H722.5a2.5 2.5 0 0 1 2.38 1.735l180 560a2.498 2.498 0 0 1-2.38 3.265zm-58.175-5h54.746L720.678 665H342.5a2.5 2.5 0 1 1 0-5h276.821L460.534 5H125.679L284.93 661.911c.139.574.07 1.179-.194 1.707L6.545 1220h54.438l259.3-498.653a2.5 2.5 0 0 1 2.218-1.347h360c1.087 0 2.05.702 2.381 1.738z"/></svg></g><g transform="translate(1465.5 276.0) rotate(0.0 627.75 466.5) scale(0.5772108601154422 0.5769815885360623)"><svg width="2175.115" height="1617.036" viewBox="0 0 2175.115 1617.036"><path d="M1944.49 1614.536H230.624c-125.99 0-228.124-102.135-228.124-228.125V230.624C2.5 104.635 104.635 2.5 230.624 2.5H1944.49c125.99 0 228.125 102.135 228.125 228.124v1155.787c0 125.99-102.135 228.125-228.125 228.125z" fill="#fff"/><path d="M8.225 180.485h2158.664C2147.501 77.848 2051.834 2.5 1948.548 2.5H226.568C123.28 2.5 30.251 79.38 8.225 180.485z" fill="#cad5f3"/><path d="M8.523 180.485h2158.069m-217.938 1434.051H226.461c-123.69 0-223.961-100.271-223.961-223.961V226.461C2.5 102.771 102.771 2.5 226.461 2.5h1722.193c123.69 0 223.961 100.271 223.961 223.961v1164.114c0 123.69-100.271 223.961-223.961 223.961z" fill="none" stroke="#000" stroke-linecap="round" stroke-linejoin="round" stroke-width="5"/><circle cx="198.527" cy="96.685" fill="#ff6996" r="41.057"/><circle cx="328.804" cy="96.685" fill="#fbb348" r="41.057"/><circle cx="459.081" cy="96.685" fill="#92acef" r="41.057"/><g fill="none" stroke="#000" stroke-linecap="round" stroke-linejoin="round" stroke-width="5"><circle cx="198.527" cy="96.685" r="41.057"/><circle cx="328.804" cy="96.685" r="41.057"/><circle cx="459.081" cy="96.685" r="41.057"/></g></svg></g><g transform="translate(1287.75 400.5) rotate(0.0 662.625 780.0) translate(0.0 0.0) scale(0.9056875331880406 0.9057092777723268)"><svg width="1462.425" height="889.358" viewBox="0 0 1462.425 889.358"><path d="M1054.884 418.074c-36.144-47.356-55.945-67.802-100.033-107.408-32.771-29.44-112.085-108.297-98.553-209.148 9.569-71.316 62.851-97.21 94.468-98.853 53.178-2.764 87.83 29.917 106.13 59.635 0 0 108.717-31.214 170.175 66.01 62.07 98.193 4.907 217.954 4.907 217.954 23.249 15.515 53.328 33.457 54.287 94.583 137.118 90.375 59.874 382.83-130.406 285.326" fill="#fbb348"/><path d="M1228.644 748.371c-23.226 0-47.964-6.671-73.925-19.975a2.498 2.498 0 1 1 2.279-4.449c70.675 36.215 134.65 20.504 171.134-42.027 41.951-71.906 34.51-187.74-43.243-238.986a2.504 2.504 0 0 1-1.124-2.049c-.907-57.815-28.612-76.222-50.873-91.012l-2.302-1.531a2.5 2.5 0 0 1-.868-3.155c.142-.298 14.247-30.206 20.631-71.607 5.868-38.052 6.226-93.912-25.395-143.935-31.226-49.397-75.058-64.417-106.33-68.319-33.959-4.238-60.773 3.3-61.042 3.377a2.5 2.5 0 0 1-2.818-1.093c-14.228-23.104-46.635-61.432-103.871-58.448-18.095.939-38.288 9.431-54.02 22.712-20.787 17.551-33.962 43.132-38.101 73.976-11.792 87.885 46.646 161.053 97.746 206.957 43.224 38.83 63.786 59.846 100.35 107.751a2.5 2.5 0 1 1-3.975 3.033c-36.602-47.954-56.053-67.84-99.717-107.065-27.893-25.057-50.468-51.414-67.097-78.341-27.315-44.229-38.17-88.977-32.263-132.999 4.306-32.096 18.079-58.767 39.83-77.132C910.186 10.092 931.489 1.163 950.635.168c24.666-1.274 47.432 4.788 67.645 18.043 19.127 12.542 32.055 29.035 39.761 41.203 6.739-1.673 30.972-6.822 61.205-3.049 32.342 4.035 77.668 19.561 109.938 70.608 32.478 51.378 32.112 108.579 26.087 147.518-5.567 35.979-16.883 63.457-20.142 70.867l.528.352c23.067 15.325 51.734 34.375 53.081 93.78 79.058 53.143 86.594 171.447 43.711 244.95-17.326 29.698-41.551 50.063-70.053 58.894-10.845 3.36-22.11 5.037-33.754 5.038z"/><path d="M1222.98 382.22a2.5 2.5 0 0 1-2.5-2.5c0-17.161 8.917-33.936 9.296-34.642a2.502 2.502 0 0 1 3.385-1.018 2.502 2.502 0 0 1 1.02 3.386c-.087.162-8.7 16.396-8.7 32.273a2.5 2.5 0 0 1-2.5 2.5zM1088.3 107.932a2.494 2.494 0 0 1-1.913-.89c-.158-.188-15.986-19.047-31.595-43.394a2.5 2.5 0 0 1 4.209-2.699c15.435 24.077 31.054 42.687 31.21 42.872a2.498 2.498 0 0 1-1.911 4.11zm-102.61 40.651a2.49 2.49 0 0 1-1.305-.369c-.167-.103-16.883-10.319-30.492-15.962a2.502 2.502 0 0 1 1.916-4.62c13.978 5.796 30.493 15.892 31.189 16.319a2.499 2.499 0 0 1-1.309 4.631zm299.466 316.046c-.044 0-.088 0-.132-.003a2.501 2.501 0 0 1-2.367-2.627l1.11-21.283c.072-1.38 1.269-2.444 2.627-2.367a2.501 2.501 0 0 1 2.367 2.627l-1.11 21.283a2.5 2.5 0 0 1-2.495 2.37z"/><path d="M516.393 1457.402s106.63 168.447 50.297 262.336H3.353s-22.477-188.577 163.292-226.236c147.369-29.866 211.496 66.38 349.747-36.101z" fill="#fff"/><path d="M566.689 1722.239H3.354a2.499 2.499 0 0 1-2.482-2.204c-.057-.478-5.483-48.307 12.098-100.096 10.351-30.49 26.521-56.398 48.063-77.006 26.907-25.74 62.274-43.195 105.117-51.881 59.346-12.026 106.307-3.583 147.74 3.866 63.782 11.467 118.865 21.369 201.015-39.525a2.498 2.498 0 0 1 3.601.672c.269.423 27.027 42.958 46.51 96.441 11.469 31.482 18.223 60.569 20.075 86.454 2.332 32.589-3.138 60.199-16.257 82.064a2.5 2.5 0 0 1-2.144 1.214zm-561.061-5h559.634c27.618-47.59 12.616-114.814-4.945-163.021-16.743-45.964-38.886-83.723-44.63-93.192-37.466 27.371-71.765 42.072-107.749 46.217-32.772 3.775-62.965-1.654-94.934-7.402-42.997-7.729-87.454-15.722-145.862-3.887-76.04 15.415-126.3 57.614-149.381 125.426-15.144 44.488-12.941 85.995-12.132 95.86z"/><path d="M580.341 1663.17s-.404 27.453-14.459 54.033l-560.106-.028s-2.591-19.379 1.709-53.254z" fill="#ff6996"/><path d="M5.963 1666.289a2.5 2.5 0 0 1-.002-5l576.387-.395h.002a2.5 2.5 0 0 1 .002 5l-576.387.395h-.002z"/><path d="m491.352 1663.705.592 54.061" fill="#fff"/><path d="M491.942 1720.266a2.502 2.502 0 0 1-2.499-2.473l-.591-54.061a2.5 2.5 0 0 1 2.473-2.527h.028a2.502 2.502 0 0 1 2.499 2.473l.591 54.061a2.5 2.5 0 0 1-2.473 2.527z"/><path d="m452.333 1664.4.592 54.061" fill="#fff"/><path d="M452.923 1720.961a2.502 2.502 0 0 1-2.499-2.473l-.591-54.062a2.5 2.5 0 0 1 2.473-2.527h.028a2.502 2.502 0 0 1 2.499 2.473l.591 54.062a2.5 2.5 0 0 1-2.473 2.527z"/><path d="m419.762 1664.005.592 54.061" fill="#fff"/><path d="M420.353 1720.567a2.502 2.502 0 0 1-2.499-2.473l-.592-54.062a2.5 2.5 0 0 1 2.473-2.527h.028a2.502 2.502 0 0 1 2.499 2.473l.592 54.062a2.5 2.5 0 0 1-2.473 2.527z"/><path d="m321.253 1665.423.592 54.061" fill="#fff"/><path d="M321.844 1721.985a2.502 2.502 0 0 1-2.499-2.473l-.592-54.062a2.5 2.5 0 0 1 2.473-2.527h.028a2.502 2.502 0 0 1 2.499 2.473l.592 54.062a2.5 2.5 0 0 1-2.473 2.527z"/><path d="m285.528 1664.672.592 54.061" fill="#fff"/><path d="M286.118 1721.234a2.502 2.502 0 0 1-2.499-2.473l-.591-54.062a2.5 2.5 0 0 1 2.473-2.527h.028a2.502 2.502 0 0 1 2.499 2.473l.591 54.062a2.5 2.5 0 0 1-2.473 2.527z"/><path d="m153.746 1663.949.592 54.052" fill="#fff"/><path d="M154.337 1720.501a2.502 2.502 0 0 1-2.499-2.473l-.592-54.052a2.5 2.5 0 0 1 2.473-2.527h.028a2.502 2.502 0 0 1 2.499 2.473l.592 54.052a2.5 2.5 0 0 1-2.473 2.527z"/><path d="m77.037 1665.771.592 54.052" fill="#fff"/><path d="M77.628 1722.323a2.502 2.502 0 0 1-2.499-2.473l-.592-54.052a2.5 2.5 0 0 1 2.473-2.527h.028a2.502 2.502 0 0 1 2.499 2.473l.592 54.052a2.5 2.5 0 0 1-2.473 2.527z"/><path d="m43.585 1665.217.601 54.061" fill="#fff"/><path d="M44.185 1721.778a2.5 2.5 0 0 1-2.499-2.473l-.601-54.062a2.5 2.5 0 0 1 2.473-2.527h.028a2.5 2.5 0 0 1 2.499 2.473l.601 54.062a2.5 2.5 0 0 1-2.473 2.527z"/><path d="M506.478 1585.796c0-25.078-20.327-45.405-45.405-45.405s-45.405 20.327-45.405 45.405 20.327 45.405 45.405 45.405 45.405-20.327 45.405-45.405z" fill="#ff6996"/><path d="M461.073 1633.701c-26.415 0-47.905-21.49-47.905-47.905s21.49-47.904 47.905-47.904 47.904 21.49 47.904 47.904-21.49 47.905-47.904 47.905zm0-90.81c-23.658 0-42.905 19.247-42.905 42.904s19.247 42.905 42.905 42.905 42.904-19.247 42.904-42.905-19.247-42.904-42.904-42.904z" fill="#111"/><path d="M290.072 1493.549s-169.001 136.966-238.319 63.413c0 0 56.917-90.359 238.319-63.413z" fill="#ff6996"/><path d="M106.661 1581.165c-23.594 0-42.639-7.539-56.728-22.488l-1.328-1.409 1.032-1.638c.596-.946 15.016-23.385 52.094-42.696 21.672-11.288 46.636-19.133 74.199-23.316 34.358-5.213 72.886-4.725 114.509 1.459l5.624.835-4.417 3.58c-.425.344-43.054 34.706-93.636 59.59-29.833 14.676-56.592 23.252-79.534 25.491-4.057.396-7.996.593-11.815.593zm-51.676-24.464c15.161 15.133 36.329 21.489 62.973 18.897 22.331-2.173 48.5-10.574 77.778-24.971 40.515-19.922 75.902-46.007 88.173-55.433-89.481-12.214-146.913 5.092-179.53 21.997-30.439 15.777-45.4 34.078-49.394 39.509z" fill="#111"/><path d="M1001.021 896.536s-265.333-21.258-444.26 34.091c-71.796 22.21-108.405 58.471-141.093 110.749-94.181 150.622-202.754 446.578-202.754 446.578s46.41-5.183 114.592 14.543c109.897 31.782 173.047 29.143 216.612 2.394l135.905-311.299h398.861s125.755-203.956-77.863-297.057z" fill="#92acef"/><path d="M460.243 1528.068c-36.253 0-79.992-7.714-133.432-23.169-66.845-19.339-113.16-14.511-113.621-14.461a2.498 2.498 0 0 1-2.623-3.345c1.086-2.962 109.741-297.925 202.98-447.042 31.521-50.41 67.813-88.716 142.475-111.813 92.708-28.678 208.831-36.446 289.921-37.912 87.8-1.596 154.611 3.665 155.276 3.718.291.023.575.098.841.219 58.365 26.687 95.499 65.056 110.369 114.043 14.271 47.014 4.96 95.258-5.364 127.451-11.16 34.801-25.906 58.908-26.054 59.148a2.501 2.501 0 0 1-2.128 1.188H681.658l-135.25 309.799a2.502 2.502 0 0 1-.983 1.131c-22.838 14.022-50.606 21.044-85.183 21.046zm-232.13-43.194c19.255 0 55.143 2.219 100.087 15.223 102.439 29.624 168.483 30.581 213.942 3.071l135.589-310.575a2.5 2.5 0 0 1 2.291-1.5h397.439c3.044-5.208 15.304-27.07 24.885-56.997 10.082-31.488 19.184-78.626 5.29-124.365-14.407-47.43-50.493-84.686-107.253-110.736-5.914-.45-70.551-5.189-154.404-3.668-80.75 1.463-196.347 9.188-288.479 37.689-73.188 22.64-108.784 60.223-139.713 109.686-87.341 139.684-188.375 408.063-201.178 442.472 2.624-.149 6.504-.299 11.503-.299z"/><path d="M1391.413 854.238c2.845-1.84 88.084 89.43 65.554 208.669-22.533 119.239-125.812 130.506-125.812 130.506H976.253s161.715 195.534 197.393 265.951c0 0-40.363 44.823-105.475 48.607-65.122 3.784-172.165-24.918-255.595-12.609 0 0-212.19-290.616-241.324-367.032-43.781-114.798-22.843-268.354 567.232-240.939 0 0 183.45 11.915 252.928-33.152z" fill="#92acef"/><path d="M1055.497 1510.816c-25.168 0-55.155-3.561-86.629-7.297-50.507-5.996-107.75-12.795-155.927-5.684a2.52 2.52 0 0 1-2.385-.999c-8.672-11.878-212.72-291.76-241.641-367.616-21.771-57.087-19.342-102.818 7.427-139.808 27.896-38.549 83.159-67.098 164.253-84.854 95.393-20.887 229.302-27.503 398.005-19.665 1.872.122 183.468 11.346 251.452-32.753h.002c1.056-.685 2.302-.554 3.705.39 9.541 6.41 87.533 95.097 65.663 210.841-11.81 62.49-45.942 95.196-72.497 111.63-28.787 17.814-54.423 20.78-55.5 20.897-.091.01-.181.015-.271.015H981.548c23.439 28.547 161.798 198.117 194.328 262.321a2.5 2.5 0 0 1-.373 2.803c-.41.456-41.806 45.63-107.188 49.43-4.11.238-8.391.349-12.818.349zm-196.429-21.022c36.602 0 75.125 4.574 110.39 8.761 36.785 4.368 71.53 8.497 98.568 6.921 57.317-3.331 95.528-39.386 102.583-46.552-36.718-70.675-194.68-261.978-196.283-263.916a2.5 2.5 0 0 1 1.927-4.094h354.753c1.964-.245 26.634-3.613 53.479-20.282 25.624-15.911 58.573-47.597 70.024-108.188 20.944-110.846-52.613-197.238-62.936-205.342-29.396 18.475-80.709 29.613-152.559 33.11-54.063 2.631-100.233-.297-100.693-.326-310.561-14.436-498.287 20.041-557.929 102.458-25.703 35.517-27.929 79.706-6.806 135.095 27.729 72.733 225.128 344.634 240.122 365.233 14.5-2.048 29.756-2.879 45.358-2.879zm533.705-633.457-.016.01.014-.009h.002z"/><path d="M977.728 1197.51a2.494 2.494 0 0 1-1.878-.849l-85.045-96.612a2.5 2.5 0 0 1 3.754-3.303l85.045 96.613a2.499 2.499 0 0 1-1.876 4.151z"/><path d="M1172.763 1457.487s106.63 168.447 50.297 262.336H659.724s-22.468-188.577 163.292-226.236c147.378-29.876 211.495 66.37 349.747-36.101z" fill="#fff"/><path d="M1223.06 1722.323H659.724a2.499 2.499 0 0 1-2.482-2.204c-.057-.478-5.48-48.306 12.102-100.095 10.351-30.49 26.521-56.398 48.063-77.006 26.906-25.74 62.272-43.195 105.113-51.881 59.354-12.032 106.318-3.588 147.754 3.861 63.774 11.464 118.854 21.367 201.002-39.521a2.498 2.498 0 0 1 3.6.672c.268.423 27.027 42.958 46.51 96.44 11.469 31.482 18.223 60.57 20.074 86.454 2.332 32.589-3.138 60.199-16.257 82.064a2.5 2.5 0 0 1-2.144 1.214zm-561.061-5h559.633c27.607-47.57 12.627-114.758-4.914-162.938-16.74-45.98-38.912-83.797-44.66-93.273-37.464 27.366-71.761 42.065-107.743 46.209-32.767 3.777-62.961-1.653-94.926-7.4-42.999-7.73-87.46-15.725-145.875-3.882-76.038 15.415-126.296 57.614-149.379 125.425-15.145 44.488-12.944 85.995-12.136 95.86z"/><path d="M1236.711 1663.254s-.404 27.453-14.459 54.033l-560.097-.038s-2.601-19.369 1.699-53.254l572.856-.742z" fill="#ff6996"/><path d="M662.334 1666.374a2.5 2.5 0 0 1-.002-5l576.387-.404h.002a2.5 2.5 0 0 1 .002 5l-576.387.404z"/><path d="m1147.723 1663.79.592 54.061" fill="#fff"/><path d="M1148.314 1720.351a2.502 2.502 0 0 1-2.499-2.473l-.592-54.062a2.5 2.5 0 0 1 2.473-2.527h.028a2.502 2.502 0 0 1 2.499 2.473l.592 54.062a2.5 2.5 0 0 1-2.473 2.527z"/><path d="m1108.703 1664.484.592 54.061" fill="#fff"/><path d="M1109.293 1721.045a2.502 2.502 0 0 1-2.499-2.473l-.592-54.061a2.5 2.5 0 0 1 2.473-2.527h.028a2.502 2.502 0 0 1 2.499 2.473l.592 54.061a2.5 2.5 0 0 1-2.473 2.527z"/><path d="m1076.132 1664.09.592 54.052" fill="#fff"/><path d="M1076.723 1720.642a2.502 2.502 0 0 1-2.499-2.473l-.591-54.052a2.5 2.5 0 0 1 2.473-2.527h.028a2.502 2.502 0 0 1 2.499 2.473l.591 54.052a2.5 2.5 0 0 1-2.473 2.527z"/><path d="m977.624 1665.508.592 54.061" fill="#fff"/><path d="M978.214 1722.069a2.502 2.502 0 0 1-2.499-2.473l-.591-54.061a2.5 2.5 0 0 1 2.473-2.527h.028a2.502 2.502 0 0 1 2.499 2.473l.591 54.061a2.5 2.5 0 0 1-2.473 2.527z"/><path d="m941.899 1664.757.592 54.061" fill="#fff"/><path d="M942.489 1721.318a2.502 2.502 0 0 1-2.499-2.473l-.592-54.062a2.5 2.5 0 0 1 2.473-2.527h.028a2.502 2.502 0 0 1 2.499 2.473l.592 54.062a2.5 2.5 0 0 1-2.473 2.527z"/><path d="m810.116 1664.034.592 54.052" fill="#fff"/><path d="M810.706 1720.585a2.502 2.502 0 0 1-2.499-2.473l-.591-54.052a2.5 2.5 0 0 1 2.473-2.527h.028a2.502 2.502 0 0 1 2.499 2.473l.591 54.052a2.5 2.5 0 0 1-2.473 2.527z"/><path d="m733.408 1665.846.592 54.061" fill="#fff"/><path d="M733.999 1722.408a2.502 2.502 0 0 1-2.499-2.473l-.592-54.062a2.5 2.5 0 0 1 2.473-2.527h.028a2.502 2.502 0 0 1 2.499 2.473l.592 54.062a2.5 2.5 0 0 1-2.473 2.527z"/><path d="m699.965 1665.301.592 54.061" fill="#fff"/><path d="M700.556 1721.863a2.502 2.502 0 0 1-2.499-2.473l-.592-54.062a2.5 2.5 0 0 1 2.473-2.527h.028a2.502 2.502 0 0 1 2.499 2.473l.592 54.062a2.5 2.5 0 0 1-2.473 2.527z"/><path d="M1162.858 1585.88c0-25.078-20.336-45.405-45.405-45.405s-45.405 20.327-45.405 45.405 20.327 45.405 45.405 45.405 45.405-20.327 45.405-45.405z" fill="#ff6996"/><path d="M1117.453 1633.786c-26.415 0-47.905-21.49-47.905-47.905s21.49-47.905 47.905-47.905 47.905 21.49 47.905 47.905-21.49 47.905-47.905 47.905zm0-90.811c-23.658 0-42.905 19.247-42.905 42.905s19.247 42.905 42.905 42.905 42.905-19.247 42.905-42.905-19.247-42.905-42.905-42.905z" fill="#111"/><path d="M946.443 1493.634s-169.001 136.966-238.31 63.413c0 0 56.906-90.359 238.31-63.413z" fill="#ff6996"/><path d="M763.036 1581.25c-23.593 0-42.636-7.539-56.723-22.488l-1.328-1.409 1.032-1.638c.596-.946 15.014-23.385 52.09-42.696 21.67-11.288 46.633-19.133 74.195-23.316 34.357-5.214 72.883-4.725 114.508 1.459l5.624.835-4.417 3.58c-.425.344-43.054 34.706-93.635 59.59-29.832 14.676-56.59 23.252-79.531 25.491a121.64 121.64 0 0 1-11.815.593zm-51.674-24.466c15.164 15.14 36.344 21.497 63.004 18.896 22.34-2.181 48.52-10.592 77.81-25.001 40.502-19.926 75.845-45.98 88.105-55.399-89.715-12.244-147.221 5.169-179.864 22.173-30.295 15.779-45.095 33.926-49.055 39.331z" fill="#111"/><path d="M1173.974 443.219s-12.797-78.805-153.271-53.875c-107.393 15.821-99.169 75.648-99.169 75.648s-94.246 17.522-168.835 172.88c0 0-17.109-114.153-45.923-200.105-32.225-96.127-168.384-91.093-189.959 28.644-18.992 105.406-2.28 432.722 174.673 432.722 188.963-16.426 479.704 1.119 644.236-5.537 53.151-2.15 118.169-42.691 113.953-138.872-4.224-96.171-148.495-296.7-275.706-311.506z" fill="#ff6996"/><path d="M691.6 901.634h-.108c-40.934 0-76.135-17.282-104.627-51.367-44.911-53.727-63.959-137.615-72.03-198.529-9.938-75.003-7.4-147.346-.477-185.77 5.25-29.14 17.744-53.68 36.132-70.967 16.774-15.771 37.505-24.97 59.951-26.602 20.672-1.509 41.505 3.875 58.679 15.145 18.549 12.17 32.39 30.646 40.027 53.428 24.22 72.246 40.343 165.382 44.783 192.689 37.898-76.147 80.356-117.282 109.692-138.514 27.645-20.008 48.639-26.452 55.274-28.119-.142-5.018.615-17.528 9.874-31.32 15.496-23.084 46.304-38.169 91.568-44.838 56.209-9.976 99.116-4.847 127.452 15.258 20.831 14.78 26.811 32.99 28.253 38.827 57.329 7.445 124.214 53.228 183.837 125.92 53.947 65.773 90.177 139.466 92.298 187.74 1.843 42.047-9.548 77.726-32.941 103.178-21.189 23.054-51.591 37.015-83.41 38.302-67.121 2.717-155.344 1.407-248.744.019-132.905-1.974-283.547-4.209-395.375 5.511l-.108.01zm-73.888-528.5c-2.284 0-4.587.083-6.909.252-36.583 2.66-79.839 28.611-91.525 93.469-15.681 87.03-5.225 288.512 71.423 380.205 27.473 32.865 61.347 49.544 100.683 49.574 112.07-9.734 262.788-7.494 395.774-5.52 93.331 1.386 181.486 2.695 248.468-.016 30.501-1.233 59.634-14.606 79.931-36.689 22.475-24.452 33.411-58.885 31.627-99.575-2.044-46.536-38.682-120.797-91.168-184.788-59.426-72.452-125.883-117.773-182.329-124.344l-1.876-.219-.302-1.858c-.035-.212-3.785-21.298-26.748-37.517-27.21-19.22-68.8-24.034-123.62-14.303-54.643 8.051-78.127 27.657-88.218 42.688-10.713 15.96-8.931 30.018-8.911 30.157l.325 2.363-2.345.436c-.229.043-23.63 4.649-55.747 27.973-29.683 21.554-73.085 63.952-111.291 143.531l-3.521 7.332-1.206-8.044c-.171-1.139-17.408-114.928-45.82-199.681-13.529-40.357-47.11-65.428-86.694-65.428z" fill="#111"/><path d="M988.1 893.793c-.316 0-.639-.062-.95-.189-.565-.233-13.991-5.893-26.46-22.179-11.401-14.891-24.089-41.899-19.812-86.018 1.011-25.762 12.045-47.669 32.797-65.11 21.835-18.353 54.767-32.027 97.881-40.646 34.311-6.858 75.156-10.562 121.4-11.008 78.678-.757 146.654 8.308 147.331 8.399a2.502 2.502 0 0 1 2.143 2.813c-.186 1.368-1.446 2.337-2.813 2.143-.674-.092-68.369-9.127-146.675-8.354-103.243 1.002-177.953 18.458-216.053 50.482-19.646 16.514-30.083 37.221-31.019 61.547a2.332 2.332 0 0 1-.01.146c-4.124 42.364 7.846 68.151 18.613 82.323 11.648 15.333 24.455 20.786 24.584 20.84a2.504 2.504 0 0 1 1.351 3.266 2.5 2.5 0 0 1-2.31 1.545zM761.063 690.045a2.499 2.499 0 0 1-2.462-2.085l-8.366-49.673a2.5 2.5 0 0 1 2.05-2.88 2.494 2.494 0 0 1 2.88 2.05l8.366 49.673a2.5 2.5 0 0 1-2.468 2.915z"/><path d="M921.534 464.992c0 10.411.962 17.363 1.924 20.959" fill="#fbb348"/><path d="M923.456 488.452a2.5 2.5 0 0 1-2.413-1.854c-.604-2.258-2.009-8.883-2.009-21.604a2.5 2.5 0 1 1 5 0c0 12.129 1.286 18.245 1.839 20.312a2.502 2.502 0 0 1-2.417 3.148z"/><path d="M1176.2 472.926c.737-7.991-.519-22.933-2.226-29.707" fill="#fbb348"/><path d="M1176.203 475.426a2.5 2.5 0 0 1-2.492-2.73c.737-8-.572-22.56-2.16-28.867a2.499 2.499 0 1 1 4.847-1.221c1.693 6.722 3.093 21.847 2.291 30.547a2.5 2.5 0 0 1-2.486 2.271z"/><path d="M733.521 819.997s-35.143-25.707 48.156-75.487c83.289-49.78 281.114-31.556 282.09 53.038s-108.02 69.3-178.953 41.969c0 0-108.348 27.003-117.456-1.953 0 0-36.786 10.412-33.838-17.567z" fill="#ffaac3"/><path d="M987.571 863.637c-6.082 0-12.487-.319-19.22-.961-25.801-2.456-55.495-9.747-83.704-20.545-4.641 1.118-29.441 6.932-54.87 9.752-36.592 4.062-58.073.231-63.916-11.377-5.639 1.254-20.735 3.721-29.195-3.402-4.282-3.607-6.212-9-5.746-16.042-2.393-2.228-7.693-8.321-7.231-18.259.843-18.121 19.921-38.456 56.706-60.438 60.681-36.27 182.334-37.11 245.602-1.698 26.085 14.601 40.011 34.26 40.271 56.853.271 23.5-7.729 41.068-23.774 52.219-13.307 9.246-31.731 13.899-54.922 13.899zm-102.757-26.62c.306 0 .61.056.898.167 49.286 18.991 119.172 32.598 153.927 8.447 14.602-10.146 21.879-26.314 21.628-48.054-.239-20.701-13.28-38.872-37.714-52.548-61.993-34.699-181.166-33.893-240.595 1.626-43.801 26.177-53.688 45.046-54.271 56.266-.51 9.841 6.039 14.857 6.318 15.066a2.52 2.52 0 0 1 1 2.271c-.635 6.023.633 10.281 3.875 13.016 8.29 6.988 26.615 1.936 26.797 1.883a2.501 2.501 0 0 1 3.064 1.656c6.89 21.906 84.966 7.629 114.467.277.199-.05.402-.074.604-.074z"/><path d="M767.285 839.763c-.035 0-.069 0-.104-.002a2.502 2.502 0 0 1-2.396-2.601c.878-21.318 28.549-36.338 82.243-44.641 39.178-6.058 78.623-6.212 79.017-6.213h.006a2.5 2.5 0 0 1 .006 5c-.391 0-39.504.156-78.313 6.162-35.04 5.422-77.01 16.746-77.963 39.896a2.5 2.5 0 0 1-2.496 2.397zm-33.978-16.758a2.504 2.504 0 0 1-2.429-3.1c6.172-24.965 35.938-44.035 88.47-56.681 38.617-9.297 75.974-11.518 76.347-11.539 1.371-.094 2.56.975 2.639 2.354a2.5 2.5 0 0 1-2.354 2.639c-1.464.084-146.553 9.038-160.248 64.427a2.5 2.5 0 0 1-2.425 1.901z"/><path d="m1075.314 351.432 16.348 74.531c-43.311 45.684-99.332 20.771-99.332 20.771l-15.718-80.31z" fill="#ffaac3"/><path d="M1028.229 456.013c-.864 0-1.71-.012-2.541-.034-19.688-.524-33.783-6.698-34.373-6.961a2.5 2.5 0 0 1-1.438-1.804l-15.719-80.31a2.503 2.503 0 0 1 2.078-2.952l98.702-14.992a2.503 2.503 0 0 1 2.817 1.937l16.349 74.53a2.503 2.503 0 0 1-.628 2.256c-21.958 23.161-47.151 28.33-65.248 28.33zm-33.704-11.086c3.719 1.442 15.886 5.674 31.485 6.059 24.53.607 45.682-8.071 62.924-25.791l-15.561-70.939-93.808 14.249 14.959 76.423z"/><path d="M899.922 327.671c29.746 4.428 57.434-15.944 61.833-45.499s-16.154-57.107-45.9-61.535c-29.751-4.429-57.434 15.944-61.833 45.499-4.399 29.554 16.149 57.106 45.9 61.535z" fill="#ffaac3"/><path d="M908.027 330.774c-2.796 0-5.626-.206-8.474-.63-31.065-4.625-52.601-33.505-48.005-64.377 4.595-30.872 33.606-52.228 64.674-47.603 15.044 2.239 28.323 10.167 37.391 22.323 9.071 12.16 12.841 27.096 10.614 42.053-4.174 28.043-28.495 48.233-56.2 48.233zm-7.737-5.575c28.331 4.222 54.803-15.249 58.992-43.395 2.029-13.63-1.408-27.242-9.677-38.327-8.272-11.09-20.39-18.323-34.119-20.367-28.334-4.216-54.803 15.248-58.992 43.394-4.189 28.144 15.46 54.474 43.796 58.695z"/><path d="M905.897 284.682a2.5 2.5 0 0 1-2.356-3.339c4.427-12.45 20.187-13.353 20.854-13.385 1.36-.077 2.551.997 2.618 2.376a2.5 2.5 0 0 1-2.376 2.618c-.126.007-13.088.79-16.386 10.066a2.502 2.502 0 0 1-2.355 1.663z"/><path d="M931.704 311.204a2.5 2.5 0 0 1-2.496-2.391c-.015-.301-2.012-31.189-43.83-64.681a2.5 2.5 0 1 1 3.125-3.903c43.754 35.04 45.642 67.02 45.701 68.364a2.5 2.5 0 0 1-2.389 2.607l-.111.002z"/><path d="M1087.445 261.85c15.818 23.8 31.34 29.568 43.396 12.715 23.365-32.664 83.929-9.741 75.57 46.417-3.904 26.223-25.313 46.185-53.759 46.87-36.459.878-49.897-23.933-49.897-23.933-19.261 31.486-76.343 54.22-116.919 41.236-85.778-27.448-95.87-119.049-68.397-177.038 18.119-38.246 49.373-58.068 68.254-62.033 45.394 25.988 85.935 91.965 101.753 115.766z" fill="#ffaac3"/><path d="M1011.242 391.348c-9.331 0-18.198-1.262-26.169-3.813-34.341-10.988-59.608-33.201-73.072-64.235-15.302-35.271-14.084-79.817 3.179-116.254 17.605-37.163 48.627-58.921 69.999-63.409a2.497 2.497 0 0 1 1.756.276c42.068 24.085 79.887 81.884 98.062 109.66 1.679 2.566 3.193 4.881 4.53 6.893 9.159 13.78 18.047 21.134 25.702 21.266 4.868.054 9.428-2.818 13.579-8.621 10.767-15.053 30.448-20.135 48.986-12.635 17.47 7.065 36.095 27.248 31.089 60.873-4.19 28.155-27.289 48.307-56.171 49.002-29.773.731-44.705-14.843-49.947-21.894-10.175 14.495-28.015 27.161-49.614 35.102-14.055 5.167-28.462 7.789-41.908 7.789zm-25.96-242.614c-20.167 4.672-48.964 25.37-65.585 60.453-16.663 35.173-17.854 78.136-3.109 112.123 12.873 29.674 37.082 50.927 70.009 61.464 41.445 13.258 96.266-11.128 114.025-40.16.466-.763 1.291-1.241 2.198-1.194a2.498 2.498 0 0 1 2.133 1.309c.513.936 12.8 22.647 45.796 22.647.607 0 1.221-.008 1.842-.022 26.406-.637 47.521-19.034 51.347-44.74 4.577-30.75-12.232-49.117-28.019-55.502-16.351-6.612-33.648-2.228-43.045 10.908-5.166 7.223-11.158 10.831-17.731 10.712-9.507-.163-19.526-8.069-29.78-23.497-1.343-2.021-2.864-4.346-4.551-6.923-17.839-27.265-54.831-83.798-95.529-107.577z"/><path d="M1151.243 331.685a2.5 2.5 0 0 1-2.495-2.38c-.366-7.613-10.033-11.187-10.131-11.222a2.501 2.501 0 0 1-1.508-3.195 2.496 2.496 0 0 1 3.188-1.514c.527.188 12.917 4.714 13.445 15.69a2.5 2.5 0 0 1-2.499 2.62z"/><path d="M1128.442 333.301a2.497 2.497 0 0 1-2.357-3.329c.359-1.019 9.279-25.138 50.883-41.769a2.497 2.497 0 0 1 3.249 1.394 2.499 2.499 0 0 1-1.394 3.249c-39.305 15.712-47.943 38.569-48.026 38.798a2.506 2.506 0 0 1-2.355 1.656zm-162.844-91.117a4.51 4.51 0 0 0 5.124-3.801 4.511 4.511 0 1 0-8.924-1.328 4.513 4.513 0 0 0 3.8 5.129z"/><path d="M966.274 244.735c-.347 0-.695-.026-1.045-.078-3.824-.57-6.473-4.146-5.903-7.97a6.968 6.968 0 0 1 2.76-4.603 6.957 6.957 0 0 1 5.211-1.302 6.962 6.962 0 0 1 4.6 2.762 6.973 6.973 0 0 1 1.299 5.207 6.968 6.968 0 0 1-2.759 4.602 6.956 6.956 0 0 1-4.161 1.382zm-.309-5.023a2.012 2.012 0 0 0 2.283-1.695 2.01 2.01 0 1 0-3.978-.593 2.017 2.017 0 0 0 1.695 2.288zm78.554 13.977a4.51 4.51 0 0 0 5.124-3.801 4.51 4.51 0 1 0-8.924-1.328 4.512 4.512 0 0 0 3.8 5.129z"/><path d="M1045.196 256.24c-.347 0-.696-.026-1.045-.078a6.963 6.963 0 0 1-4.604-2.763 6.971 6.971 0 0 1-1.3-5.208c.276-1.853 1.256-3.487 2.761-4.603s3.353-1.578 5.21-1.301a6.955 6.955 0 0 1 4.6 2.763 6.97 6.97 0 0 1 1.299 5.206 6.968 6.968 0 0 1-2.759 4.602 6.953 6.953 0 0 1-4.16 1.382zm-.311-5.023c.532.078 1.061-.054 1.492-.374s.713-.789.792-1.321a2.004 2.004 0 0 0-.373-1.497 2.01 2.01 0 0 0-3.605.903 2.002 2.002 0 0 0 .373 1.496c.319.432.789.714 1.321.793z"/><path d="M1055.653 331.612c14.791 2.202 28.558-8.002 30.759-22.793 2.202-14.791-7.995-28.562-22.787-30.764-14.791-2.202-28.563 8.001-30.765 22.793-2.201 14.792 8.001 28.564 22.793 30.765zm-120.054-24.376c14.671 2.184 28.339-7.941 30.524-22.62 2.185-14.678-7.942-28.345-22.613-30.529-14.676-2.185-28.344 7.94-30.529 22.619-2.184 14.678 7.942 28.346 22.618 30.53z" fill="#ff6996"/><path d="M1003.946 275.85c-.749 0-1.49-.335-1.982-.975-6.388-8.292-15.48-3.033-15.865-2.805a2.503 2.503 0 0 1-3.425-.862 2.496 2.496 0 0 1 .846-3.422c4.555-2.752 15.097-5.45 22.405 4.038a2.5 2.5 0 0 1-1.978 4.026zm-10.466 48.981c-1.708 0-3.406-.16-5.096-.481-12.915-2.456-20.34-13.45-20.649-13.917a2.499 2.499 0 1 1 4.166-2.764c.063.093 6.63 9.739 17.463 11.776 6.739 1.271 13.828-.644 21.056-5.686a2.5 2.5 0 0 1 2.861 4.101c-6.646 4.636-13.286 6.97-19.801 6.97z"/><path d="M620.384 428.836c25.206.639 50.656-14.809 65.952-36.697 12.727-18.213 17.889-42.317 19.719-76.574 2.656-49.707-2.29-148.88-15.203-202.375-4.475-18.538-14.383-26.848-27.168-26.848-10.867 0-22.054 10.867-24.611 31.003-5.607 44.159-2.139 108.675-2.139 108.675-6.848-16.759-42.934-21.865-56.551 3.326-10.213-16.34-45.011-14.302-55.489 36.766-6.638 32.351-2.904 67.309 15.319 76.255 0 0-.34 84.426 80.17 86.468z" fill="#ffaac3"/><path d="M621.854 431.355c-.513 0-1.021-.007-1.533-.02-42.867-1.088-63.075-25.312-72.479-45.441-8.674-18.566-9.923-36.698-10.1-42.01-19.261-11.065-21.511-47.99-15.297-78.274 5.467-26.643 18.847-44.37 35.79-47.421 8.479-1.524 16.686 1.088 21.91 6.745 7.113-10.444 19.003-16.155 32.509-15.43 8.546.461 16.288 3.588 21.424 8.328-.71-18.943-1.868-66.286 2.515-100.802 2.896-22.803 16.074-33.188 27.092-33.188 10.335 0 23.86 4.988 29.599 28.761 13.25 54.897 17.822 155.288 15.268 203.096-1.987 37.2-8.018 60.489-20.166 77.872-16.133 23.088-42.099 37.782-66.531 37.784zm-58.862-208.594c-1.27 0-2.564.114-3.87.349-14.857 2.675-26.736 18.938-31.777 43.506-6.175 30.089-3.358 65.001 13.971 73.509a2.502 2.502 0 0 1 1.398 2.253c0 .207.052 20.933 9.729 41.549 12.823 27.322 35.704 41.591 68.006 42.411.471.012.947.018 1.419.018 22.841.002 47.198-13.864 62.421-35.647 11.574-16.563 17.337-39.075 19.271-75.276 2.538-47.502-1.992-147.198-15.137-201.654-3.993-16.547-12.316-24.936-24.737-24.935-8.896 0-19.616 9.019-22.131 28.818-5.515 43.424-2.157 107.583-2.123 108.227a2.5 2.5 0 0 1-4.81 1.079c-2.817-6.894-11.753-11.904-22.234-12.469-12.876-.69-23.999 5.303-29.803 16.038a2.501 2.501 0 0 1-4.319.137c-3.134-5.015-8.883-7.911-15.272-7.911z"/><path d="M614.754 368.695c14.443-49.519 53.13-60.352 53.13-60.352-24.416-18.981-45.049-73.591-23.728-85.627 20.628-11.645 74.79 34.125 81.501 72.56 3.783 21.665-14.443 66.37-39.321 96.863" fill="#ffaac3"/><path d="M686.334 394.639a2.501 2.501 0 0 1-1.935-4.081c24.291-29.774 42.419-74.099 38.795-94.854-4.667-26.73-33.448-57.439-56.359-68.282-9.095-4.305-16.712-5.201-21.45-2.53-4.465 2.521-6.997 7.435-7.524 14.603-1.486 20.213 14.146 53.337 31.559 66.874a2.5 2.5 0 0 1-.86 4.381c-.37.105-37.551 11.146-51.403 58.646a2.501 2.501 0 0 1-4.801-1.401c11.978-41.065 39.898-56.146 50.616-60.542-17.343-15.903-31.614-47.692-30.097-68.324.648-8.815 4.125-15.243 10.053-18.59 6.283-3.545 15.288-2.728 26.047 2.364 24.524 11.605 54.143 43.283 59.146 71.942 3.9 22.339-14.347 67.617-39.846 98.873a2.495 2.495 0 0 1-1.939.92zM547.781 346.37c-2.99 0-5.896-.565-8.553-1.704a2.499 2.499 0 1 1 1.969-4.595c4.641 1.987 10.346 1.688 15.657-.818 6.776-3.199 11.935-9.391 14.15-16.988a2.501 2.501 0 0 1 4.801 1.401c-2.617 8.971-8.747 16.3-16.817 20.109-3.657 1.727-7.497 2.597-11.207 2.597z"/><path d="M598.154 345.582c-.738 0-1.493-.024-2.27-.073-8.458-.538-15.642-5.483-20.775-14.302-13.421-23.056-11.979-72.127 3.026-102.954a2.5 2.5 0 1 1 4.496 2.188c-14.137 29.045-15.692 76.793-3.201 98.251 4.316 7.415 9.959 11.395 16.771 11.827.629.04 1.244.06 1.843.06 20.221.002 23.569-22.643 27.262-59.036 1.795-17.694 3.829-37.75 9.229-56.223a2.5 2.5 0 0 1 4.799 1.403c-5.271 18.032-7.28 37.845-9.054 55.325-3.452 34.021-6.447 63.534-32.126 63.535z"/></svg></g><g transform="translate(506.25 473.25) rotate(0.0 689.625 811.125) scale(0.8851775360970169 0.8841399276446806)"><svg width="1558.162" height="1834.834" viewBox="0 0 1558.162 1834.834"><path d="M1008.324 1552.744s-113.57 179.41-53.57 279.41h600s23.94-200.85-173.92-240.96c-156.96-31.81-225.261 70.7-372.51-38.45z" fill="#fff"/><path d="M1554.754 1834.653h-600a2.501 2.501 0 0 1-2.144-1.214c-13.955-23.259-19.773-52.634-17.292-87.31 1.971-27.554 9.161-58.52 21.371-92.037 20.745-56.947 49.236-102.235 49.521-102.686a2.5 2.5 0 0 1 3.6-.672c87.557 64.901 146.258 54.346 214.224 42.127 44.118-7.932 94.122-16.923 157.294-4.119 45.603 9.244 83.243 27.821 111.88 55.215 22.925 21.931 40.134 49.504 51.149 81.953 18.714 55.125 12.938 106.03 12.878 106.538a2.496 2.496 0 0 1-2.481 2.205zm-598.573-5h596.299c.854-10.245 3.299-54.669-12.913-102.304-10.77-31.644-27.556-58.51-49.892-79.853-27.933-26.689-64.72-44.809-109.339-53.854-62.237-12.614-109.607-4.098-155.415 4.14-34.036 6.119-66.186 11.898-101.064 7.882-38.343-4.415-74.892-20.097-114.828-49.297-5.979 9.843-29.747 50.287-47.671 99.519-12.039 33.067-19.123 63.564-21.056 90.645-2.355 33.005 2.986 60.961 15.879 83.122z"/><path d="M940.214 1771.904s.43 29.24 15.4 57.55l596.56-.03s2.76-20.64-1.82-56.72z" fill="#92acef"/><path d="M1551.974 1775.063h-.002l-613.9-.42a2.5 2.5 0 0 1 .002-5h.002l613.9.42a2.5 2.5 0 0 1-.002 5z"/><path d="m1034.994 1772.474-.63 57.58" fill="#fff"/><path d="M1034.364 1832.554h-.028a2.501 2.501 0 0 1-2.473-2.527l.63-57.58a2.502 2.502 0 0 1 2.499-2.473h.028a2.501 2.501 0 0 1 2.473 2.527l-.63 57.58a2.5 2.5 0 0 1-2.499 2.473z"/><path d="m1076.553 1773.214-.63 57.58" fill="#fff"/><path d="M1075.925 1833.294h-.028a2.501 2.501 0 0 1-2.473-2.527l.63-57.58a2.502 2.502 0 0 1 2.499-2.473h.028a2.501 2.501 0 0 1 2.473 2.527l-.63 57.58a2.502 2.502 0 0 1-2.499 2.473z"/><path d="m1111.244 1772.794-.63 57.58" fill="#fff"/><path d="M1110.614 1832.874h-.028a2.501 2.501 0 0 1-2.473-2.527l.63-57.58a2.502 2.502 0 0 1 2.499-2.473h.028a2.501 2.501 0 0 1 2.473 2.527l-.63 57.58a2.5 2.5 0 0 1-2.499 2.473z"/><path d="m1216.164 1774.304-.63 57.58" fill="#fff"/><path d="M1215.534 1834.384h-.028a2.501 2.501 0 0 1-2.473-2.527l.63-57.58c.016-1.381 1.108-2.511 2.527-2.473a2.501 2.501 0 0 1 2.473 2.527l-.63 57.58a2.5 2.5 0 0 1-2.499 2.473z"/><path d="m1254.214 1773.504-.63 57.58" fill="#fff"/><path d="M1253.584 1833.584h-.028a2.501 2.501 0 0 1-2.473-2.527l.631-57.58a2.502 2.502 0 0 1 2.499-2.473h.028a2.501 2.501 0 0 1 2.473 2.527l-.631 57.58a2.502 2.502 0 0 1-2.499 2.473z"/><path d="m1394.573 1772.734-.63 57.57" fill="#fff"/><path d="M1393.944 1832.804h-.028a2.501 2.501 0 0 1-2.473-2.527l.63-57.57c.015-1.381 1.151-2.455 2.527-2.473a2.501 2.501 0 0 1 2.473 2.527l-.63 57.57a2.5 2.5 0 0 1-2.499 2.473z"/><path d="m1476.274 1774.674-.63 57.57" fill="#fff"/><path d="M1475.645 1834.744h-.028a2.501 2.501 0 0 1-2.473-2.527l.63-57.57c.016-1.381 1.104-2.468 2.527-2.473a2.501 2.501 0 0 1 2.473 2.527l-.63 57.57a2.502 2.502 0 0 1-2.499 2.473z"/><path d="m1511.904 1774.084-.64 57.58" fill="#fff"/><path d="M1511.265 1834.164h-.028a2.501 2.501 0 0 1-2.473-2.527l.64-57.58a2.502 2.502 0 0 1 2.499-2.473h.028a2.501 2.501 0 0 1 2.473 2.527l-.64 57.58a2.502 2.502 0 0 1-2.499 2.473z"/><path d="M1018.884 1689.494c0-26.71 21.65-48.36 48.36-48.36s48.36 21.65 48.36 48.36-21.65 48.36-48.36 48.36-48.36-21.65-48.36-48.36z" fill="#92acef"/><path d="M1067.243 1740.353c-28.044 0-50.859-22.815-50.859-50.859 0-28.045 22.815-50.86 50.859-50.86 28.045 0 50.86 22.815 50.86 50.86.001 28.044-22.815 50.859-50.86 50.859zm0-96.719c-25.287 0-45.859 20.573-45.859 45.86s20.572 45.859 45.859 45.859 45.86-20.572 45.86-45.859-20.573-45.86-45.86-45.86z"/><path d="M1249.374 1591.244s180 145.88 253.83 67.54c0 0-60.621-96.24-253.83-67.54z" fill="#92acef"/><path d="M1444.72 1684.4c-4.063 0-8.252-.211-12.567-.632-24.416-2.382-52.897-11.512-84.654-27.134-53.857-26.495-99.247-63.082-99.699-63.448a2.499 2.499 0 0 1 1.207-4.415c44.318-6.583 85.335-7.105 121.914-1.554 29.339 4.453 55.91 12.803 78.977 24.816 20.579 10.719 34.509 22.438 42.57 30.38 8.808 8.678 12.69 14.782 12.852 15.038a2.502 2.502 0 0 1-.296 3.047c-14.974 15.889-35.221 23.902-60.304 23.902zm-189.19-91.509c12.782 9.836 50.735 37.897 94.242 59.291 31.203 15.343 59.094 24.297 82.899 26.614 28.486 2.772 51.111-4.047 67.303-20.272-4.137-5.653-20.078-25.304-52.726-42.23-62.087-32.191-137.455-30.827-191.718-23.403z"/><path d="M492.154 955.374s515.69-44.01 618.12 115.06c102.43 159.08 221.28 514.85 221.28 514.85s-49.43-5.52-122.05 15.49c-117.05 33.85-184.31 31.04-230.71 2.55l-144.75-331.56h-424.82s-133.94-217.23 82.93-316.39z" fill="#6f5490"/><path d="M1068.127 1627.846c-36.806.002-66.337-7.469-90.642-22.391a2.5 2.5 0 0 1-.982-1.131l-144.096-330.061H409.224c-.867 0-1.673-.45-2.128-1.188-.157-.255-15.853-25.915-27.733-62.962-10.988-34.267-20.9-85.616-5.713-135.649 15.823-52.128 55.345-92.961 117.464-121.364.262-.12.541-.193.827-.217 1.292-.11 130.73-10.916 271.019-2.126 82.47 5.168 152.525 15.999 208.219 32.19 69.992 20.349 117.498 49.328 141.197 86.133 53.024 82.35 110.445 218.125 149.278 317.524 42.053 107.641 71.975 196.998 72.271 197.888a2.498 2.498 0 0 1-2.648 3.276c-.491-.052-49.85-5.2-121.079 15.406-56.893 16.454-103.48 24.671-142.071 24.672zM980.77 1601.6c48.465 29.354 118.856 28.347 228.04-3.229 60.847-17.604 106.094-16.642 119.169-15.866-5.986-17.676-33.718-98.698-70.991-194.105-38.748-99.179-96.019-234.617-148.815-316.614-23.025-35.757-69.578-64.03-138.366-84.032-55.332-16.089-125.013-26.857-207.104-32.004-135.879-8.52-261.567 1.397-269.905 2.078-60.518 27.768-98.992 67.488-114.354 118.06-14.811 48.759-5.108 99.001 5.639 132.563 10.26 32.041 23.398 55.405 26.563 60.811h423.399a2.5 2.5 0 0 1 2.291 1.5z"/><path d="M76.354 910.324c-3.03-1.96-93.817 95.25-69.82 222.25 24 127 134 139 134 139h378s-172.24 208.26-210.24 283.26c0 0 42.99 47.74 112.34 51.77 69.36 4.03 183.37-26.54 272.23-13.43 0 0 226-309.53 257.03-390.92 46.63-122.27 24.33-285.82-604.15-256.62 0 0-195.39 12.69-269.39-35.31z" fill="#6f5490"/><path d="M434.135 1609.471c-4.716 0-9.268-.117-13.646-.371-69.571-4.042-113.616-52.107-114.053-52.593a2.5 2.5 0 0 1-.373-2.803c34.741-68.567 182.857-250.021 207.174-279.63H140.533c-.091 0-.181-.005-.271-.015-1.146-.125-28.415-3.279-59.044-22.234-28.255-17.486-64.574-52.288-77.141-118.787-23.276-123.185 59.715-217.575 69.867-224.398.535-.359 2.163-1.455 3.767-.416l.003.001c72.467 47.005 265.921 35.039 267.867 34.913 179.72-8.351 322.325-1.304 423.913 20.939 86.331 18.903 145.157 49.289 174.846 90.313 28.476 39.349 31.057 88.006 7.89 148.753-30.796 80.774-248.111 378.854-257.347 391.504a2.513 2.513 0 0 1-2.385.999c-51.333-7.573-112.314-.335-166.116 6.053-33.514 3.981-65.452 7.772-92.247 7.772zm-122.805-55.079c7.322 7.447 48.197 46.156 109.448 49.715 28.821 1.677 65.828-2.719 105.015-7.372 53.593-6.362 114.269-13.565 165.937-6.251 15.522-21.324 226.25-311.541 255.828-389.121 22.52-59.049 20.142-106.165-7.269-144.041-28.946-40-86.77-69.728-171.864-88.36-101.161-22.15-243.332-29.159-422.565-20.831-.444.029-49.61 3.146-107.183.344-76.563-3.726-131.219-15.599-162.49-35.292-4.808 3.828-25.933 26.5-44.474 64.73-17.024 35.104-34.786 90.352-22.723 154.195 5.405 28.605 15.712 53.604 30.634 74.299 11.917 16.529 26.796 30.378 44.225 41.164 28.645 17.727 54.807 21.251 56.832 21.501h377.853a2.5 2.5 0 0 1 1.927 4.094c-1.71 2.067-170.11 206.014-209.131 281.226z"/><path d="M516.963 1275.774a2.5 2.5 0 0 1-1.876-4.152l90.58-102.9a2.5 2.5 0 0 1 3.754 3.303l-90.58 102.9a2.494 2.494 0 0 1-1.878.849z"/><path d="M309.234 1552.834s-113.57 179.41-53.57 279.41h600s23.93-200.85-173.92-240.96c-156.97-31.82-225.26 70.69-372.51-38.45z" fill="#fff"/><path d="M855.663 1834.744h-600a2.501 2.501 0 0 1-2.144-1.214c-13.955-23.259-19.773-52.634-17.292-87.31 1.972-27.555 9.162-58.52 21.372-92.037 20.744-56.947 49.236-102.236 49.521-102.687a2.5 2.5 0 0 1 3.6-.672c87.55 64.893 146.245 54.338 214.21 42.122 44.12-7.932 94.124-16.922 157.309-4.113 45.599 9.244 83.239 27.821 111.874 55.215 22.925 21.931 40.134 49.503 51.15 81.953 18.714 55.125 12.941 106.03 12.881 106.538a2.497 2.497 0 0 1-2.481 2.205zm-598.573-5h596.299c.853-10.245 3.296-54.669-12.916-102.304-10.771-31.645-27.557-58.511-49.893-79.853-27.932-26.689-64.717-44.809-109.334-53.854-62.243-12.619-109.618-4.103-155.43 4.134-34.033 6.118-66.184 11.896-101.057 7.881-38.341-4.416-74.887-20.095-114.821-49.292-5.979 9.843-29.747 50.288-47.671 99.521-12.04 33.067-19.124 63.564-21.056 90.644-2.355 33.006 2.986 60.962 15.879 83.123z"/><path d="M241.124 1771.994s.43 29.24 15.4 57.55l596.55-.04s2.77-20.63-1.81-56.72z" fill="#92acef"/><path d="M852.884 1775.153h-.002l-613.9-.43a2.5 2.5 0 0 1 .002-5h.002l613.9.43a2.5 2.5 0 0 1-.002 5z"/><path d="m335.904 1772.564-.63 57.58" fill="#fff"/><path d="M335.274 1832.643h-.028a2.501 2.501 0 0 1-2.473-2.527l.63-57.58a2.502 2.502 0 0 1 2.499-2.473h.028a2.501 2.501 0 0 1 2.473 2.527l-.63 57.58a2.5 2.5 0 0 1-2.499 2.473z"/><path d="m377.464 1773.304-.63 57.58" fill="#fff"/><path d="M376.835 1833.384h-.028a2.501 2.501 0 0 1-2.473-2.527l.63-57.58c.016-1.381 1.105-2.475 2.527-2.473a2.501 2.501 0 0 1 2.473 2.527l-.63 57.58a2.502 2.502 0 0 1-2.499 2.473z"/><path d="m412.154 1772.884-.63 57.57" fill="#fff"/><path d="M411.524 1832.954h-.028a2.501 2.501 0 0 1-2.473-2.527l.63-57.57c.016-1.381 1.115-2.468 2.527-2.473a2.501 2.501 0 0 1 2.473 2.527l-.63 57.57a2.5 2.5 0 0 1-2.499 2.473z"/><path d="m517.074 1774.394-.63 57.58" fill="#fff"/><path d="M516.444 1834.474h-.028a2.501 2.501 0 0 1-2.473-2.527l.63-57.58c.016-1.381 1.119-2.463 2.527-2.473a2.501 2.501 0 0 1 2.473 2.527l-.63 57.58a2.5 2.5 0 0 1-2.499 2.473z"/><path d="m555.124 1773.594-.63 57.58" fill="#fff"/><path d="M554.494 1833.674h-.028a2.501 2.501 0 0 1-2.473-2.527l.63-57.58a2.502 2.502 0 0 1 2.499-2.473h.028a2.501 2.501 0 0 1 2.473 2.527l-.63 57.58a2.5 2.5 0 0 1-2.499 2.473z"/><path d="m695.484 1772.824-.63 57.57" fill="#fff"/><path d="M694.855 1832.893h-.028a2.501 2.501 0 0 1-2.473-2.527l.63-57.569a2.502 2.502 0 0 1 2.499-2.473h.028a2.501 2.501 0 0 1 2.473 2.527l-.63 57.569a2.5 2.5 0 0 1-2.499 2.473z"/><path d="m777.184 1774.754-.63 57.58" fill="#fff"/><path d="M776.555 1834.834h-.028a2.501 2.501 0 0 1-2.473-2.527l.63-57.58a2.502 2.502 0 0 1 2.499-2.473h.028a2.501 2.501 0 0 1 2.473 2.527l-.63 57.58a2.502 2.502 0 0 1-2.499 2.473z"/><path d="m812.804 1774.174-.63 57.58" fill="#fff"/><path d="M812.175 1834.254h-.028a2.501 2.501 0 0 1-2.473-2.527l.63-57.58c.015-1.381 1.158-2.519 2.527-2.473a2.501 2.501 0 0 1 2.473 2.527l-.63 57.58a2.502 2.502 0 0 1-2.499 2.473z"/><path d="M319.784 1689.584c0-26.71 21.66-48.36 48.36-48.36 26.71 0 48.36 21.65 48.36 48.36s-21.65 48.36-48.36 48.36c-26.7 0-48.36-21.65-48.36-48.36z" fill="#92acef"/><path d="M368.144 1740.443c-28.045 0-50.86-22.815-50.86-50.859 0-28.045 22.815-50.86 50.86-50.86s50.86 22.815 50.86 50.86c0 28.044-22.815 50.859-50.86 50.859zm0-96.719c-25.287 0-45.86 20.573-45.86 45.86s20.573 45.859 45.86 45.859 45.86-20.572 45.86-45.859-20.573-45.86-45.86-45.86z"/><path d="M550.284 1591.334s180 145.88 253.82 67.54c0 0-60.61-96.24-253.82-67.54z" fill="#92acef"/><path d="M745.625 1684.49c-4.062 0-8.252-.211-12.566-.632-24.415-2.382-52.896-11.512-84.651-27.134-53.856-26.495-99.246-63.082-99.698-63.448a2.499 2.499 0 0 1 1.207-4.415c44.316-6.584 85.333-7.106 121.912-1.554 29.339 4.453 55.909 12.803 78.974 24.816 20.578 10.719 34.507 22.438 42.567 30.38 8.806 8.678 12.688 14.782 12.85 15.038a2.502 2.502 0 0 1-.296 3.047c-14.972 15.888-35.217 23.902-60.299 23.902zm-189.185-91.51c12.782 9.836 50.735 37.897 94.241 59.291 31.202 15.343 59.092 24.297 82.896 26.614 28.487 2.776 51.109-4.047 67.298-20.272-4.136-5.653-20.075-25.304-52.721-42.23-62.084-32.19-137.45-30.827-191.714-23.403z"/><path d="M307.944 472.554s32.57-72.87 148.51-48.03c115.94 24.85 120.36 71.22 120.36 71.22s116.25 27.58 192.24 238.34c0 0 365.46-55.82 365.37 115.37-.03 61.84-53.37 98.79-115.26 101.53-232.84 10.31-708.26 8.35-883.5 1.26-56.61-2.29-125.86-45.47-121.37-147.91 4.499-102.43 158.16-316.01 293.65-331.78z" fill="#fbb348"/><path d="M567.65 960.666c-174.986 0-343.447-2.338-432.088-5.925-33.846-1.369-66.185-16.219-88.724-40.742-24.887-27.076-37.004-65.036-35.044-109.775 1.112-25.31 11.135-57.757 28.985-93.835 17.587-35.545 41.544-72.209 69.283-106.029 63.661-77.615 135.095-126.416 196.232-134.126 2.338-4.536 11.284-19.902 31.037-33.091 38.143-25.466 86.116-22.248 119.644-15.065 105.134 22.534 119.991 62.663 122.021 71.666 6.691 1.946 33.132 10.983 67.072 40.24 22.56 19.446 43.744 43.856 62.966 72.552 23.666 35.332 44.411 77.302 61.676 124.78 11.146-1.573 66.526-8.881 130.162-8.409 41.717.306 78.798 3.84 110.215 10.503 39.481 8.374 70.137 21.76 91.113 39.785 23.057 19.813 34.738 45.47 34.723 76.258-.015 29.992-12.237 55.878-35.346 74.858-21.182 17.397-50.411 27.756-82.305 29.168-115.097 5.099-286.273 7.187-451.622 7.187zM411.114 421.943c-23.715 0-48.957 4.734-70.751 19.19-21.891 14.521-30.059 32.266-30.139 32.444a2.507 2.507 0 0 1-1.992 1.46c-60.162 7.002-130.982 55.294-194.303 132.495-27.502 33.531-51.247 69.865-68.668 105.075-17.544 35.459-27.39 67.216-28.472 91.837-1.9 43.383 9.763 80.097 33.729 106.173 21.647 23.551 52.718 37.813 85.245 39.129 172.316 6.972 646.496 9.226 883.288-1.259 30.819-1.365 59-11.322 79.352-28.037 21.915-18 33.506-42.55 33.52-70.997.016-29.262-11.08-53.642-32.979-72.46-25.495-21.909-80.548-48.209-198.038-49.083-70.553-.525-130.875 8.555-131.477 8.646a2.507 2.507 0 0 1-2.729-1.623c-21.518-59.68-60.425-142.282-123.582-196.888-37.716-32.609-66.599-39.8-66.887-39.869a2.5 2.5 0 0 1-1.908-2.194c-.011-.094-1.38-11.218-16.438-25.185-25.466-23.62-69.501-36.871-101.957-43.828-13.172-2.823-28.638-5.026-44.814-5.026zm-103.171 50.611h.01z"/><path d="M505.352 959.354a2.501 2.501 0 0 1-.568-4.935c.116-.028 12.635-3.207 24.517-19.002 20.077-26.693 22.912-68.095 21.755-98.127-.999-25.958-12.134-48.053-33.095-65.672-22.579-18.978-56.867-33.168-101.912-42.176-36.22-7.243-79.389-11.156-128.31-11.63-83.411-.816-155.522 8.802-156.241 8.899a2.5 2.5 0 0 1-.669-4.955c.722-.098 73.137-9.762 156.896-8.944 49.245.475 92.738 4.418 129.272 11.721 45.893 9.174 80.943 23.727 104.179 43.256 22.087 18.564 33.821 41.883 34.876 69.309 1.74 45.145-6.018 79.37-23.058 101.724-12.963 17.006-26.501 20.333-27.071 20.467a2.552 2.552 0 0 1-.571.065zm279.641-174.26a2.501 2.501 0 0 1-2.374-1.717l-16.04-48.58a2.5 2.5 0 0 1 4.748-1.568l16.04 48.58a2.5 2.5 0 0 1-2.374 3.285z"/><path d="M777.064 873.854s37.43-27.38-51.29-80.4c-88.71-53.02-299.41-33.61-300.45 56.49s115.05 73.81 190.6 44.7c0 0 115.4 28.76 125.1-2.08 0 0 39.18 11.09 36.04-18.71z" fill="#ffaac3"/><path d="M506.476 920.172c-24.667 0-44.256-4.946-58.4-14.775-17.044-11.844-25.54-30.51-25.252-55.481.277-24.002 15.08-44.893 42.809-60.413 67.345-37.693 196.835-36.798 261.424 1.805 39.129 23.384 59.423 44.998 60.317 64.24.492 10.603-5.209 17.068-7.707 19.374.512 7.483-1.523 13.208-6.058 17.027-9.019 7.595-25.196 4.885-31.08 3.562-6.103 12.386-28.938 16.471-67.968 12.143-27.166-3.014-53.658-9.235-58.47-10.396-30.045 11.506-61.678 19.275-89.158 21.891-7.163.682-13.986 1.023-20.457 1.023zm88.339-153.511c-47.11 0-94.275 9.033-126.741 27.205-26.077 14.596-39.996 33.998-40.251 56.107-.269 23.212 7.506 40.478 23.104 51.318 37.067 25.758 111.564 11.262 164.098-8.979a2.5 2.5 0 0 1 1.503-.093c31.463 7.838 114.733 23.047 122.11-.404a2.505 2.505 0 0 1 3.064-1.656c.196.055 19.794 5.461 28.689-2.038 3.449-2.909 4.857-7.62 4.185-14.004a2.5 2.5 0 0 1 1.002-2.274c.327-.245 7.337-5.629 6.793-16.177-.617-11.991-11.16-32.145-57.881-60.066-32.213-19.254-80.914-28.939-129.675-28.939z"/><path d="M741.102 894.744a2.5 2.5 0 0 1-2.496-2.397c-1.02-24.769-45.795-36.864-83.177-42.648-41.346-6.398-83.015-6.563-83.431-6.564a2.5 2.5 0 0 1 .006-5h.006c.419.001 42.419.165 84.135 6.616 57.101 8.83 86.525 24.774 87.457 47.391a2.5 2.5 0 0 1-2.396 2.601l-.104.001zm36.19-17.85a2.5 2.5 0 0 1-2.425-1.9c-14.615-59.11-169.267-68.655-170.826-68.744a2.5 2.5 0 0 1-2.354-2.639c.078-1.378 1.235-2.418 2.639-2.353.397.023 40.17 2.388 81.286 12.286 55.888 13.454 87.55 33.725 94.108 60.25a2.5 2.5 0 0 1-2.428 3.1z"/><path d="M1362.034 876.234s37.43-27.38-51.28-80.4c-88.72-53.02-299.41-33.61-300.45 56.49-.58 50.06 61.98 91.15 131.98 88.17 55.97-2.38 54.84-28.73 49.4-41.26 0 0 131.72 33.74 134.38-3.41.14-2.01 33.759 9.26 35.97-19.59z" fill="#ffaac3"/><path d="M1135.312 943.141c-39.781.001-78.767-14.161-103.103-37.756-16.186-15.693-24.626-34.052-24.405-53.091.277-24.002 15.079-44.892 42.806-60.412 67.338-37.693 196.83-36.799 261.427 1.805 39.124 23.383 59.414 44.996 60.308 64.238.507 10.907-5.541 17.436-7.914 19.563-.73 6.928-3.302 12.271-7.652 15.89-8.33 6.93-21.013 5.573-27.105 4.922-.452-.048-.948-.102-1.404-.145-.818 4.091-3.121 7.52-6.866 10.218-24.077 17.346-105.521-.732-125.85-5.612 1.445 5.367 2.165 13.393-2.652 21.087-7.253 11.585-24.247 18.025-50.51 19.142-2.361.102-4.725.151-7.08.151zm44.479-174.099c-47.111 0-94.275 9.033-126.739 27.204-26.075 14.596-39.993 33.997-40.248 56.106-.204 17.633 7.709 34.73 22.886 49.443 24.825 24.068 65.63 37.941 106.487 36.2 24.173-1.028 40.247-6.837 46.484-16.8 5.24-8.369 2.256-17.451.729-20.966a2.5 2.5 0 0 1 2.913-3.418c.254.065 25.709 6.547 54.021 10.63 36.965 5.331 61.916 4.25 72.153-3.125 3.172-2.285 4.837-5.122 5.092-8.672.05-.724.389-1.386.953-1.858 1.126-.944 2.46-.802 5.681-.457 5.825.623 16.671 1.783 23.376-3.794 3.492-2.905 5.497-7.444 5.96-13.493a2.503 2.503 0 0 1 1.008-1.82c.306-.229 7.34-5.613 6.796-16.179-.617-11.99-11.158-32.144-57.872-60.064-32.217-19.252-80.919-28.937-129.68-28.937zm148.767 126.955-.001.013.001-.013z"/><path d="M1326.081 897.124a2.5 2.5 0 0 1-2.496-2.397c-1.023-24.864-42.32-38.864-76.783-46.231-38.107-8.145-76.497-10.086-76.88-10.105a2.5 2.5 0 0 1-2.376-2.619c.067-1.379 1.265-2.435 2.618-2.375 6.379.31 156.238 8.199 158.417 61.124a2.5 2.5 0 0 1-2.5 2.603zm36.19-17.85a2.5 2.5 0 0 1-2.425-1.9c-14.628-59.164-164.379-72.878-165.89-73.009a2.5 2.5 0 1 1 .434-4.982c.385.034 38.905 3.472 78.784 14.43 54.182 14.889 84.976 35.87 91.525 62.36a2.5 2.5 0 0 1-2.428 3.101zm-170.465 22.69a2.5 2.5 0 0 1-2.246-1.399c-3.754-7.65-13.361-8.887-25.525-10.452-5.735-.738-12.237-1.575-18.879-3.212-15.444-3.798-34.64-13.778-35.449-14.201a2.5 2.5 0 1 1 2.314-4.432c.193.101 19.478 10.125 34.33 13.778 6.367 1.57 12.444 2.352 18.322 3.108 13.112 1.688 24.438 3.145 29.375 13.208a2.5 2.5 0 0 1-2.242 3.602z"/><path d="M610.364 279.014c0-44.38 31.23-80.359 69.75-80.359 38.51 0 69.74 35.979 69.74 80.359s-31.23 80.36-69.74 80.36c-38.52 0-69.75-35.98-69.75-80.36z" fill="#92acef"/><path d="M680.113 361.874c-39.839 0-72.25-37.171-72.25-82.86 0-45.688 32.411-82.859 72.25-82.859 39.833 0 72.24 37.17 72.24 82.859.001 45.689-32.407 82.86-72.24 82.86zm0-160.719c-37.082 0-67.25 34.927-67.25 77.859s30.168 77.86 67.25 77.86c37.076 0 67.24-34.928 67.24-77.86.001-42.932-30.163-77.859-67.24-77.859z"/><path d="m401.644 387.634-38.37 88.86s65.03 90.48 141.37 39.59l38.78-94.93" fill="#ffaac3"/><path d="M456.516 534.04c-17.34.001-35.007-5.518-52.518-16.553-25.914-16.331-42.079-38.595-42.755-39.535a2.5 2.5 0 0 1-.265-2.45l38.37-88.86a2.5 2.5 0 1 1 4.59 1.983l-37.794 87.527c3.628 4.723 18.739 23.413 40.637 37.18 33.062 20.784 65.301 21.15 95.84 1.093l38.488-94.216a2.5 2.5 0 1 1 4.629 1.891l-38.78 94.93a2.502 2.502 0 0 1-.928 1.135c-15.878 10.583-32.539 15.874-49.514 15.875z"/><path d="M345.724 240.624c12.76-96.194 94.98-164.124 183.65-151.726s150.21 100.429 137.45 196.626c-12.75 96.19-94.98 164.12-183.65 151.72s-150.21-100.43-137.45-196.62z" fill="#ffaac3"/><path d="M504.038 441.198c-7.057 0-14.136-.489-21.211-1.479-89.885-12.57-152.501-102.031-139.582-199.424l2.479.329-2.479-.329c6.518-49.136 31.906-93.776 69.656-122.474 34.2-25.999 75.688-37.149 116.817-31.399 89.887 12.568 152.503 102.032 139.583 199.431-6.513 49.129-31.896 93.765-69.645 122.463-28.319 21.531-61.643 32.88-95.618 32.882zm4.485-351.253c-32.889 0-65.154 10.996-92.596 31.856-36.697 27.897-61.382 71.326-67.726 119.151-12.56 94.679 48.144 181.625 135.318 193.815 39.799 5.564 79.975-5.24 113.111-30.432 36.694-27.897 61.375-71.322 67.713-119.14 12.561-94.685-48.144-181.633-135.317-193.821a147.982 147.982 0 0 0-20.503-1.429z"/><path d="M455.204 259.624c0-4.31 3.49-7.81 7.81-7.81 4.31 0 7.81 3.5 7.81 7.81 0 4.32-3.5 7.81-7.81 7.81-4.32 0-7.81-3.49-7.81-7.81zm120.4 2.52c0-4.32 3.49-7.82 7.81-7.82 4.31 0 7.81 3.5 7.81 7.82 0 4.31-3.5 7.81-7.81 7.81-4.32 0-7.81-3.5-7.81-7.81zm-27.086 37.763a2.488 2.488 0 0 1-1.755-.72c-12.418-12.239-26.432-2.505-27.023-2.084-1.12.799-2.683.542-3.485-.579s-.549-2.677.569-3.482c.179-.127 17.991-12.652 33.449 2.585a2.5 2.5 0 0 1-1.755 4.28zm-31.438 73.944c-22.902 0-27.932-20.308-27.98-20.517a2.501 2.501 0 0 1 4.866-1.148c.172.71 4.258 16.665 23.125 16.665.341 0 .686-.005 1.037-.016 20.007-.607 21.112-14.92 21.149-15.53a2.52 2.52 0 0 1 2.635-2.351 2.494 2.494 0 0 1 2.358 2.614c-.338 6.746-6.204 19.663-25.991 20.264-.404.013-.804.019-1.199.019z"/><path d="M394.784 331.594c0-21.59 17.51-39.1 39.11-39.1s39.1 17.51 39.1 39.1c0 21.6-17.5 39.11-39.1 39.11s-39.11-17.51-39.11-39.11zm172.49 1.23c0-21.6 17.51-39.11 39.11-39.11 21.59 0 39.1 17.51 39.1 39.11 0 21.59-17.51 39.1-39.1 39.1-21.6 0-39.11-17.51-39.11-39.1z" fill="#ff6996"/><path d="M342.004 234.494s127.59-15.541 260.54-111.429c0 0 57.64 31.992 66.12 124.329 0 0 82.64-143.79-59.94-182.921 0 0-77.78-73.039-193.53-13.329-92.98 47.962-96.58 144.215-73.19 183.35z" fill="#6f5490"/><path d="M668.664 249.894a2.5 2.5 0 0 1-2.49-2.272c-4.312-46.947-21.707-77.712-35.541-95.254-12.33-15.634-24.101-23.839-27.974-26.306-68.469 49.111-135.32 76.61-179.464 91.051-48.191 15.765-80.567 19.823-80.889 19.862a2.489 2.489 0 0 1-2.448-1.199c-10.33-17.283-18.341-51.669-6.92-91.7 8.137-28.52 28.813-68.179 81.108-95.154C474.6 17.686 524.73 23.041 556.123 33.035c31.595 10.058 50.607 26.282 53.844 29.188 39.718 11.026 65.871 31.229 77.743 60.058 6.653 16.157 12.102 43.931.271 84.496-7.037 24.129-16.741 41.151-17.15 41.863a2.501 2.501 0 0 1-2.167 1.254zm-66.12-129.329c.417 0 .834.104 1.213.314.606.336 15.026 8.467 30.627 28.172 13.488 17.037 30.241 46.142 35.855 89.814 9.157-18.978 30.662-71.45 12.84-114.699-11.313-27.453-36.553-46.726-75.018-57.283a2.506 2.506 0 0 1-1.048-.587c-.192-.18-19.578-18.099-52.634-28.569-30.448-9.645-79.114-14.76-138.04 15.638-50.707 26.156-70.728 64.512-78.594 92.083-10.674 37.414-3.825 69.486 5.582 86.339 7.088-1.026 36.768-5.825 78.457-19.475 44.062-14.425 110.934-41.971 179.296-91.276a2.514 2.514 0 0 1 1.464-.471z"/><path d="M243.014 272.624c0-44.385 31.22-80.362 69.74-80.362s69.75 35.977 69.75 80.362c0 44.38-31.23 80.35-69.75 80.35s-69.74-35.97-69.74-80.35z" fill="#92acef"/><path d="M312.754 355.473c-39.833 0-72.24-37.166-72.24-82.85 0-45.69 32.407-82.862 72.24-82.862 39.839 0 72.25 37.172 72.25 82.862 0 45.684-32.411 82.85-72.25 82.85zm0-160.711c-37.076 0-67.24 34.929-67.24 77.862 0 42.926 30.164 77.85 67.24 77.85 37.082 0 67.25-34.923 67.25-77.85 0-42.934-30.168-77.862-67.25-77.862z"/><path d="M710.366 207.789a2.5 2.5 0 0 1-2.485-2.803c.025-.212 2.533-21.557-1.411-49.862-3.625-26.012-13.602-63.416-40.545-93.89C633.049 24.05 582.693 5.13 516.259 5.001c-69.282-.125-122.112 18.792-156.899 56.257-50.021 53.871-44.971 128.398-44.913 129.145a2.501 2.501 0 0 1-2.303 2.683c-1.361.095-2.577-.924-2.683-2.3-.061-.786-1.424-19.544 3.547-45.406 4.592-23.888 15.718-58.457 42.648-87.481C391.304 19.478 445.09 0 515.521 0l.748.001c67.946.132 119.568 19.631 153.433 57.955 27.789 31.449 38.039 69.913 41.744 96.642 4.008 28.913 1.508 50.106 1.399 50.994a2.501 2.501 0 0 1-2.479 2.197zm-285.84 260.075c-.176 0-.354-.019-.532-.057-45.123-9.766-72.21-39.798-86.987-63.273-15.961-25.354-21.225-48.074-21.441-49.028a2.5 2.5 0 0 1 4.877-1.106c.051.227 5.336 22.965 20.884 47.61 14.263 22.607 40.365 51.525 83.727 60.91a2.5 2.5 0 0 1-.528 4.944z"/><path d="M421.334 469.494c0-8.64 8.88-15.65 19.83-15.65 10.96 0 19.84 7.01 19.84 15.65 0 8.65-8.88 15.65-19.84 15.65-10.95 0-19.83-7-19.83-15.65z"/><path d="M441.163 487.644c-12.312 0-22.329-8.142-22.329-18.15s10.017-18.15 22.329-18.15c12.318 0 22.341 8.142 22.341 18.15s-10.023 18.15-22.341 18.15zm0-31.3c-9.556 0-17.329 5.899-17.329 13.15s7.773 13.15 17.329 13.15c9.562 0 17.341-5.899 17.341-13.15s-7.779-13.15-17.341-13.15z"/><path d="M574.719 489.006c2.501 5.791 1.762 12.423.684 15.839-3.236 10.259-11.056 15.877-14.146 17.854" fill="#fbb348"/><path d="M561.259 525.2a2.501 2.501 0 0 1-1.349-4.607c3.699-2.367 10.32-7.657 13.11-16.5.86-2.731 1.704-8.773-.596-14.096a2.5 2.5 0 0 1 4.59-1.984c2.695 6.239 2.102 13.371.774 17.583-3.265 10.348-10.914 16.476-15.184 19.208a2.479 2.479 0 0 1-1.345.396z"/><path d="M329.062 514.406c-13.651-2.866-23.744-12.573-25.366-24-1.144-8.058 2.259-14.62 3.927-17.378" fill="#fbb348"/><path d="M329.064 516.907c-.171 0-.344-.018-.517-.054-14.563-3.058-25.545-13.544-27.327-26.095-1.139-8.018 1.69-14.771 4.264-19.024a2.501 2.501 0 0 1 4.278 2.589c-2.152 3.557-4.521 9.173-3.59 15.732 1.486 10.476 10.892 19.278 23.403 21.905a2.5 2.5 0 0 1-.511 4.947z"/></svg></g><g transform="translate(926.25 924.0) rotate(0.0 497.625 196.5) scale(0.8846666666666667 0.8831460674157303)"><svg width="1125" height="445" viewBox="0 0 1125 445"><path d="M2.5 382.5h420v60H2.5z" fill="#cad5f3"/><path d="M422.5 445H2.5a2.5 2.5 0 0 1-2.5-2.5v-60a2.5 2.5 0 0 1 2.5-2.5h420a2.5 2.5 0 0 1 2.5 2.5v60a2.5 2.5 0 0 1-2.5 2.5zM5 440h415v-55H5z"/><path d="m382.5 442.5 140-440h600l-140 440z" fill="#cad5f3"/><path d="M982.5 445h-600a2.502 2.502 0 0 1-2.382-3.257l140-440A2.498 2.498 0 0 1 522.5 0h600a2.499 2.499 0 0 1 2.382 3.257l-140 440A2.5 2.5 0 0 1 982.5 445zm-596.582-5h594.753l138.41-435H524.328z"/><path d="M722.5 232.5c0-27.61 22.39-50 50-50s50 22.39 50 50-22.39 50-50 50-50-22.39-50-50z" fill="#92acef"/><path d="M772.5 285c-28.948 0-52.5-23.552-52.5-52.5s23.552-52.5 52.5-52.5 52.5 23.552 52.5 52.5-23.552 52.5-52.5 52.5zm0-100c-26.191 0-47.5 21.309-47.5 47.5s21.309 47.5 47.5 47.5 47.5-21.309 47.5-47.5-21.309-47.5-47.5-47.5z"/></svg></g><g transform="translate(414.75 1312.5) rotate(0.0 922.125 391.5) scale(0.8845323741007194 0.8847457627118644)"><svg width="2085" height="885" viewBox="0 0 2085 885"><path d="M222.5 2.5h1640v60h-1640z" fill="#fff"/><path d="M1862.5 65h-1640a2.5 2.5 0 0 1-2.5-2.5v-60a2.5 2.5 0 0 1 2.5-2.5h1640a2.5 2.5 0 0 1 2.5 2.5v60a2.5 2.5 0 0 1-2.5 2.5zM225 60h1635V5H225z"/><path d="m422.5 62.5-420 820h60l420-820z" fill="#fff"/><path d="M62.5 885h-60a2.5 2.5 0 0 1-2.226-3.639l420-820a2.5 2.5 0 0 1 2.226-1.36h60a2.5 2.5 0 0 1 2.226 3.639l-420 820A2.503 2.503 0 0 1 62.5 885zm-55.912-5h54.383l417.44-815h-54.383z"/><path d="m1662.5 62.5 420 820h-60l-420-820z" fill="#fff"/><path d="M2082.5 885h-60a2.502 2.502 0 0 1-2.226-1.36l-420-820a2.502 2.502 0 0 1 2.226-3.639h60c.938 0 1.798.525 2.226 1.36l420 820A2.502 2.502 0 0 1 2082.5 885zm-58.472-5h54.383l-417.44-815h-54.383z"/></svg></g><g transform="translate(1350.75 560.25) rotate(0.0 119.625 115.875) scale(1.054392088423502 1.0579148464140453)"><svg width="226.908" height="219.063" viewBox="0 0 226.908 219.063"><ellipse cx="113.454" cy="109.531" fill="#fff" rx="110.954" ry="107.031"/><path d="M113.454 219.063C50.895 219.063 0 169.927 0 109.531S50.895 0 113.454 0s113.454 49.136 113.454 109.531-50.895 109.532-113.454 109.532zm0-214.063C53.652 5 5 51.893 5 109.531s48.652 104.531 108.454 104.531 108.454-46.893 108.454-104.531S173.256 5 113.454 5z"/><path d="M179.504 84.001c-3.589-1.414-19.739 14.401-22.613 15.906-.389-13.585-2.256-26.026-19.595-27.204H80.585c-10.582 0-19.16 8.578-19.16 19.16v39.797c0 10.582 8.578 19.16 19.16 19.16h56.712c16.942-1.077 19.261-13.338 19.591-26.768 5.197 2.33 25.228 26.414 27.462 9.824l.001-44.332a5.592 5.592 0 0 0-4.847-5.543z" fill="#92acef"/></svg></g></svg>