<svg xmlns="http://www.w3.org/2000/svg" viewBox="0 0 3000 2250" width="3000" height="2250"><g transform="translate(322.0 489.0) rotate(0.0 958.5 694.5) scale(1.000284901176861 1.0005049344557622)"><svg width="1916.454" height="1388.299" viewBox="0 0 1916.454 1388.299"><path d="m931.82 1143.103 108.103 242.696-850.77-.018 466.234-310.048z" fill="#6f5490"/><path d="m1039.922 1388.299-850.77-.019a2.502 2.502 0 0 1-1.385-4.582l466.234-310.048a2.499 2.499 0 0 1 1.977-.347l276.433 67.37a2.497 2.497 0 0 1 1.691 1.412l108.102 242.696a2.498 2.498 0 0 1-.187 2.378 2.49 2.49 0 0 1-2.095 1.14zm-842.496-5.018 838.646.019-106.036-238.058-274.176-66.82z"/><path d="M602.169 165.588c-94.969 151.042-6.305 280.071-6.305 280.071-168.094 272.88 14.764 424.852 204.501 436.637 204.393 12.695 424.277-98.666 288.497-543.025-17.809-42.294 37.169-267.086-66.347-319.44C919.01-32.525 844.552 50.436 844.552 50.436S697.139 14.545 602.169 165.588z" fill="#6f5490"/><path d="M830.905 885.758c-10.057 0-20.284-.32-30.695-.967-53.361-3.314-104.467-17.258-147.79-40.323-46.69-24.857-82.53-59.696-103.646-100.751-19.854-38.601-26.957-82.345-21.114-130.018 6.391-52.138 28.34-108.66 65.239-168.011-4.303-6.761-22.853-37.756-31.946-82.931-6.035-29.977-6.811-60.278-2.306-90.062 5.629-37.21 19.56-73.694 41.406-108.439l2.116 1.331-2.116-1.331c21.854-34.757 48.325-62.505 78.68-82.471 24.31-15.991 51.14-27.048 79.743-32.864 43.923-8.931 77.859-2.801 85.227-1.237 4.33-4.521 22.061-21.898 49.99-34.464 29.285-13.175 75.603-23.111 129.95 4.38 32.767 16.572 52.939 50.844 61.672 104.775 7.372 45.528 5.19 97.305 3.438 138.91-1.465 34.773-2.729 64.804 2.412 77.016.033.078.062.158.087.24 32.407 106.056 46.19 199.001 40.968 276.254-4.679 69.2-24.591 126.512-59.185 170.344-51.634 65.424-136.877 100.617-242.13 100.619zM805.222 49.239c-13.121 0-28.835 1.125-45.973 4.627-27.941 5.711-54.148 16.537-77.893 32.178-29.7 19.564-55.631 46.774-77.071 80.874-21.478 34.159-35.169 70-40.694 106.525-4.418 29.205-3.656 58.923 2.263 88.327 10.077 50.057 31.852 82.154 32.07 82.472.563.82.587 1.897.06 2.741-70.419 112.651-85.898 214.469-44.764 294.447 20.647 40.144 55.763 74.248 101.549 98.624 42.697 22.732 93.097 36.476 145.751 39.746 54.572 3.39 104.585-2.2 148.648-16.616 50.004-16.358 90.358-43.659 119.942-81.144 33.957-43.026 53.512-99.409 58.121-167.584 5.18-76.616-8.521-168.915-40.725-274.338-5.519-13.3-4.296-42.326-2.75-79.045 1.743-41.378 3.912-92.874-3.378-137.9-8.459-52.24-27.756-85.314-58.992-101.112-23.201-11.735-46.81-17.471-70.176-17.038-18.692.344-37.295 4.609-55.289 12.678-30.763 13.795-49.324 34.201-49.509 34.406a2.5 2.5 0 0 1-2.45.759c-.234-.057-15.369-3.627-38.74-3.627z"/><path d="M916.878 616.147s83.46-29.61 192.258 28.053c91.804 48.658 131.396 118.408 207.216 139.43 0 0 73.24-104.656 92.38-215.085 22.049-127.219 113.295-173.987 185.509-103.628 0 0 129.244-8.524 156.489 48.499 24.128 50.496 9.404 143.983-52.504 216.218s-97.847 192.927-124.193 246.061c-32.567 65.682-107.846 148.402-210.774 147.647-102.596-.753-323.636-162.959-358.501-228.352z" fill="#fbb348"/><path d="M1364.659 1125.848c-.474 0-.944-.002-1.419-.005-65.646-.482-165.95-63.354-206.028-90.363-73.87-49.782-137.469-107.07-154.66-139.312a2.6 2.6 0 0 1-.179-.425l-87.879-278.844a2.501 2.501 0 0 1 1.549-3.108c.868-.308 21.66-7.546 56.151-7.741 31.775-.169 81.453 5.911 138.113 35.941 41.721 22.113 73.249 49.008 101.067 72.736 34.187 29.162 63.773 54.402 103.928 66.007 8.834-13.049 73.356-111.02 90.967-212.617 12.067-69.632 45.964-119.854 90.672-134.343 33.06-10.714 67.916-.562 98.251 28.585 6.026-.313 35.557-1.51 67.422 2.948 48.282 6.755 78.688 22.579 90.371 47.031 12.343 25.832 14.603 62.851 6.199 101.565-9.082 41.837-30.057 83.516-59.061 117.358-44.347 51.744-75.986 130.237-99.089 187.551-9.315 23.108-17.359 43.064-24.763 57.994-34.161 68.899-110.003 149.042-211.612 149.042zm-357.587-231.832c17.006 31.635 79.828 88.05 152.935 137.317 83.916 56.552 158.006 89.177 203.271 89.509.467.003.941.005 1.408.005 45.607 0 88.922-16.265 128.777-48.362 43.146-34.748 67.597-76.253 78.33-97.901 7.317-14.757 15.328-34.631 24.604-57.643 23.231-57.635 55.05-136.568 99.93-188.935 28.475-33.224 49.062-74.124 57.971-115.165 8.173-37.651 6.05-73.498-5.824-98.349-26.201-54.84-152.793-47.166-154.069-47.083a2.51 2.51 0 0 1-1.908-.704c-29.126-28.377-62.512-38.384-94.013-28.176-42.912 13.907-75.543 62.67-87.288 130.441-19.016 109.71-92.06 215.041-92.796 216.092a2.501 2.501 0 0 1-2.716.976c-42.097-11.672-72.431-37.547-107.554-67.508-27.622-23.562-58.929-50.267-100.164-72.122-54.992-29.146-103.268-35.363-134.416-35.363l-1.079.002c-27.305.126-46.161 4.889-52.455 6.735z"/><path d="M1267.353 916.937a2.499 2.499 0 0 1-2.491-2.742c3.479-35.819 14.894-87.814 49.52-132.106a2.5 2.5 0 0 1 3.94 3.079c-33.886 43.344-45.068 94.352-48.482 129.51a2.502 2.502 0 0 1-2.487 2.259zm385.078-425.574a2.52 2.52 0 0 1-.334-.022c-25.026-3.339-57.789-23.444-59.172-24.298a2.5 2.5 0 0 1 2.628-4.254c.33.204 33.244 20.399 57.206 23.596a2.5 2.5 0 0 1-.328 4.978z" fill="#161616"/><path d="M997.101 729.761c-2.801 106.419 117.621 320.658-37.361 413.342-120.808 72.246-257.208 23.354-304.353-14.655-124.572-100.432 3.387-469.559 42.457-540.184s91.289-88.297 200.105-72.609c124.566 17.958 106.808 128.691 106.808 128.691z" fill="#fbb348"/><path d="M822.711 1182.711c-15.82 0-30.368-1.276-43.127-3.115-58.189-8.39-104.116-31.748-125.766-49.202-67.63-54.525-59.638-184.36-41.025-283.676 12.018-64.123 29.499-121.954 42.048-159.177 14.219-42.175 29.858-80.679 40.816-100.487 20.461-36.985 43.667-58.517 75.243-69.815 30.897-11.055 70.192-12.307 127.406-4.058 39.912 5.754 69.603 21.521 88.248 46.864 27.805 37.792 20.976 82.8 20.672 84.697a2.496 2.496 0 0 1-2.863 2.072 2.502 2.502 0 0 1-2.074-2.863c.071-.445 6.775-44.919-19.796-80.99-17.823-24.196-46.388-39.28-84.899-44.832-56.368-8.127-94.92-6.949-125.009 3.817-30.348 10.858-52.724 31.685-72.553 67.528-17.898 32.354-60.422 141.297-82.324 258.164-18.362 97.977-26.458 225.889 39.249 278.863 33.851 27.291 87.599 42.992 123.341 48.146 44.778 6.455 112.038 5.853 178.159-33.689 48.645-29.091 74.041-72.846 77.639-133.765 3.156-53.454-10.811-112.913-23.133-165.372-9.855-41.955-19.164-81.583-18.36-112.125a2.49 2.49 0 0 1 2.564-2.434 2.5 2.5 0 0 1 2.434 2.565c-.787 29.896 8.45 69.219 18.229 110.851 12.401 52.792 26.457 112.628 23.257 166.81-3.703 62.695-29.892 107.757-80.063 137.761-48.52 29.015-97.614 37.461-138.313 37.462z"/><path d="M189.153 1385.781C75.736 1386.649 2.5 1357.494 2.5 1234.931c0-162.298 122.242-261.269 203.456-304.575 118.235-63.046 170.206-149.598 218.44-210.397 63.012-79.425 131.938-173.215 275.077-131.55l-16.094 356.992c-161.746 198.253-323.132 402.701-494.226 440.38z" fill="#fbb348"/><path d="M587.758 972.171a2.5 2.5 0 0 1-2.014-3.979c30.772-41.962 77.893-68.48 78.365-68.744a2.5 2.5 0 0 1 2.432 4.368c-.464.258-46.656 26.272-76.767 67.332a2.486 2.486 0 0 1-2.016 1.023z"/><path d="M2.5 1234.931c0 122.563 73.236 151.718 186.653 150.849 189.034-1.448 314.812-129.783 392.072-165.93 149.318-69.86 111.963-196.656 33.339-273.05-139.023-135.078-209.526-46.771-276.187 36.544-28.539 35.669-151.324 21.333-210.835 99.709-48.169 50.819-90.31 101.46-125.042 151.878z" fill="#fbb348"/><path d="M184.374 1388.299c-72.64 0-118.189-12.984-147.314-41.887C12.122 1321.665 0 1285.199 0 1234.931c0-72.648 24.166-139.427 71.827-198.48 46.115-57.137 103.094-92.379 132.954-108.301 99.168-52.879 151.951-122.987 194.362-179.319 8.072-10.721 15.696-20.848 23.295-30.425 1.838-2.317 3.681-4.646 5.53-6.984 61.466-77.672 131.135-165.709 270.718-125.842a2.5 2.5 0 1 1-1.373 4.807c-60.887-17.389-113.47-11.384-160.754 18.359-41.739 26.254-73.731 66.682-104.67 105.778-1.851 2.339-3.695 4.67-5.534 6.989-7.56 9.528-15.165 19.63-23.217 30.325-42.709 56.726-95.86 127.323-196.005 180.724-29.524 15.743-85.857 50.583-131.415 107.03C28.793 1097.732 5 1163.454 5 1234.931c0 48.868 11.639 84.172 35.581 107.932 28.739 28.52 74.6 40.981 148.553 40.417h.02a2.5 2.5 0 0 1 .02 5c-1.614.013-3.214.019-4.8.019z"/><path d="M184.375 1388.299c-72.64 0-118.19-12.984-147.315-41.887C12.122 1321.665 0 1285.199 0 1234.931a2.5 2.5 0 1 1 5 0c0 48.868 11.639 84.172 35.581 107.932 28.738 28.52 74.554 40.969 148.553 40.417 138.985-1.065 243.66-71.137 320.09-122.301 27.162-18.183 50.62-33.886 70.942-43.394 30.068-14.068 53.815-31.134 70.581-50.725 15.244-17.812 24.818-37.808 28.456-59.431 8.543-50.771-16.272-110.15-66.382-158.837-50.303-48.876-94.447-71.397-134.945-68.868-56.205 3.517-97.494 55.121-137.424 105.026l-.123.154c-11.996 14.993-39.396 21.431-71.123 28.886-46.6 10.949-104.595 24.576-139.673 70.773a2.5 2.5 0 1 1-3.982-3.024c36.165-47.629 95.132-61.484 142.512-72.617 30.824-7.243 57.445-13.498 68.362-27.142l.123-.154c40.61-50.755 82.602-103.238 141.016-106.893 41.988-2.633 87.37 20.358 138.742 70.272 51.287 49.832 76.644 110.861 67.828 163.252-3.791 22.531-13.745 43.341-29.588 61.852-17.231 20.135-41.544 37.631-72.261 52.003-19.977 9.346-43.288 24.951-70.28 43.02-76.955 51.516-182.35 122.069-322.832 123.146-1.613.015-3.213.021-4.798.021zm430.029-893.227a2.502 2.502 0 0 1-2.431-1.923c-4.603-19.398-18.198-46.084-18.335-46.351a2.499 2.499 0 1 1 4.451-2.278c.569 1.113 14.005 27.484 18.749 47.475a2.501 2.501 0 0 1-2.434 3.077zm317.417-341.639a2.5 2.5 0 0 1-1.635-4.392c.777-.671 19.166-16.507 30.675-22.487a2.5 2.5 0 1 1 2.305 4.437c-10.988 5.709-29.525 21.673-29.712 21.834a2.491 2.491 0 0 1-1.633.608z"/><path d="m801.816 439.8-21.755 121.241c67.446 90.435 154.015 32.236 154.015 32.236l22.417-126.065z" fill="#ffaac3"/><path d="M870.917 614.193c-27.054 0-61.989-10.264-92.859-51.657a2.498 2.498 0 0 1-.457-1.936l21.755-121.241a2.5 2.5 0 0 1 2.897-2.02l154.678 27.413a2.5 2.5 0 0 1 2.024 2.899l-22.418 126.065a2.494 2.494 0 0 1-1.066 1.637c-.904.608-22.503 14.932-52.841 18.206a109.44 109.44 0 0 1-11.713.634zm-88.202-53.782c14.926 19.762 31.982 33.71 50.707 41.462 15.155 6.274 31.463 8.54 48.479 6.734 25.842-2.743 45.599-14.184 49.906-16.85l21.787-122.52-149.758-26.541z"/><path d="M870.917 614.193c-27.054.001-61.989-10.264-92.859-51.657a2.498 2.498 0 0 1-.457-1.936l21.755-121.241a2.501 2.501 0 0 1 4.922.883l-21.562 120.17c14.926 19.762 31.982 33.71 50.707 41.462 15.155 6.274 31.463 8.54 48.479 6.734 25.9-2.749 45.688-14.236 49.936-16.868l26.309-130.077a2.5 2.5 0 1 1 4.9.991l-26.52 131.119a2.498 2.498 0 0 1-1.056 1.579c-.904.608-22.503 14.932-52.841 18.206-3.695.399-7.616.635-11.713.635z"/><path d="M1067.746 395.481c-38.948 10.396-78.905-12.549-89.234-51.247s12.879-78.502 51.827-88.898c38.955-10.398 78.905 12.549 89.234 51.247 10.329 38.697-12.872 78.5-51.827 88.898z" fill="#ffaac3"/><path d="M1048.824 400.474c-33.303 0-63.792-22.12-72.727-55.595-5.169-19.364-2.438-39.595 7.689-56.966 10.125-17.365 26.429-29.792 45.908-34.992 19.48-5.199 39.811-2.551 57.24 7.46 17.436 10.013 29.885 26.193 35.053 45.557 5.169 19.365 2.438 39.595-7.688 56.965-10.123 17.365-26.428 29.793-45.91 34.993a75.811 75.811 0 0 1-19.565 2.578zm18.277-7.409.645 2.416-.645-2.416c18.197-4.857 33.426-16.463 42.88-32.68 9.45-16.211 11.999-35.089 7.177-53.157-4.823-18.068-16.44-33.166-32.712-42.511-16.278-9.348-35.265-11.823-53.462-6.965-18.195 4.856-33.423 16.462-42.877 32.679-9.452 16.212-12.002 35.091-7.18 53.158 9.958 37.307 48.614 59.501 86.174 49.476z"/><path d="M1052.911 338.299a2.5 2.5 0 0 1-2.248-1.403c-6.05-12.375-23.988-11.413-24.169-11.403-1.397.089-2.564-.961-2.651-2.337s.955-2.563 2.331-2.653c.219-.014 5.381-.327 11.473 1.19 8.307 2.069 14.36 6.566 17.509 13.006a2.5 2.5 0 0 1-2.245 3.6z"/><path d="M1022.543 377.527a2.5 2.5 0 0 1-2.491-2.327c-.124-1.783-2.423-44.288 50.282-97.304a2.5 2.5 0 0 1 3.547 3.525c-51.121 51.422-48.87 93.019-48.841 93.434a2.5 2.5 0 0 1-2.497 2.672z"/><path d="M808.037 336.175c-17.468 34.091-37.269 44.12-55.874 23.497-36.059-39.97-113.255-.281-93.629 73.249 9.165 34.335 40.698 57.684 78.687 54.295 48.691-4.344 62.837-39.421 62.837-39.421 30.414 39.022 106.022 66.156 160.539 46.723 118.42-42.211 108.53-176.943 69.275-260.932-28.569-61.127-69.275-82.653-95.022-85.079-56.528 41.477-109.346 153.577-126.813 187.668z" fill="#ffaac3"/><path d="M920.656 503.51c-46.427.002-95.565-22.365-120.078-51.121-5.183 9.401-22.379 33.681-63.136 37.317a83.848 83.848 0 0 1-7.409.332c-35.012.003-64.818-22.393-73.915-56.472-11.624-43.549 9.857-72.904 31.784-84.809 23.198-12.595 49.768-8.881 66.116 9.241 6.606 7.323 13.386 10.588 20.132 9.703 10.466-1.371 21.414-12.666 31.662-32.665 1.556-3.036 3.393-6.693 5.487-10.864 20.978-41.758 70.102-139.548 122.071-177.68a2.502 2.502 0 0 1 1.713-.473c28.633 2.699 69.165 26.843 97.052 86.51 13.278 28.411 22.355 60.908 25.56 91.506 3.694 35.283-.302 68.176-11.555 95.122-15.472 37.049-43.971 63.197-84.705 77.717-12.831 4.572-26.682 6.635-40.779 6.636zm-120.599-58.214c.764 0 1.494.349 1.971.961 14.545 18.662 40.716 35.272 70.005 44.433 31.551 9.867 62.703 10.39 87.723 1.472 39.354-14.027 66.864-39.238 81.771-74.934 16.291-39.012 21.189-107.463-13.921-182.585-26.685-57.093-64.848-80.54-92.049-83.552-50.717 37.829-99.08 134.097-119.79 175.323-2.102 4.185-3.944 7.853-5.506 10.899-11.188 21.835-23.119 33.726-35.462 35.343-8.477 1.113-16.721-2.695-24.494-11.312-14.771-16.373-38.891-19.666-60.018-8.196-20.33 11.039-40.214 38.385-29.34 79.126 9.094 34.065 40.367 55.632 76.05 52.45 13.411-1.197 32.623-5.72 47.981-20.473 9.211-8.848 12.726-17.313 12.761-17.397a2.502 2.502 0 0 1 2.318-1.558zm7.98-109.121h.01z"/><path d="M733.244 438.005a2.5 2.5 0 0 1-2.492-2.338c-.918-14.135 14.406-21.792 15.059-22.111a2.5 2.5 0 0 1 2.196 4.492c-.126.062-12.964 6.521-12.264 17.294a2.5 2.5 0 0 1-2.499 2.663z"/><path d="M763.863 436.715a2.5 2.5 0 0 1-2.251-1.408c-.143-.29-15.2-29.745-70.367-44.848a2.5 2.5 0 0 1 1.32-4.823c57.557 15.757 72.919 46.198 73.545 47.486a2.5 2.5 0 0 1-2.247 3.593zm203.483-145.159a6.046 6.046 0 0 1-7.399-4.287 6.047 6.047 0 1 1 11.685-3.119 6.05 6.05 0 0 1-4.286 7.406z"/><path d="M965.791 294.261c-3.775 0-7.239-2.527-8.26-6.347-1.216-4.556 1.498-9.25 6.05-10.465 4.548-1.215 9.249 1.5 10.466 6.055 1.216 4.556-1.501 9.251-6.057 10.467a8.477 8.477 0 0 1-2.199.29zm-.006-12.101a3.552 3.552 0 0 0-3.424 4.465 3.55 3.55 0 0 0 4.34 2.516 3.556 3.556 0 0 0 2.516-4.346 3.559 3.559 0 0 0-3.432-2.635zm-101.811 36.654a6.046 6.046 0 0 1-7.399-4.287 6.048 6.048 0 1 1 11.685-3.119 6.048 6.048 0 0 1-4.286 7.406z"/><path d="M862.403 321.522a8.5 8.5 0 0 1-4.269-1.155 8.494 8.494 0 0 1-3.975-5.196c-1.216-4.555 1.498-9.249 6.049-10.464 2.21-.588 4.513-.284 6.489.86s3.388 2.989 3.977 5.196a8.497 8.497 0 0 1-.857 6.487 8.494 8.494 0 0 1-5.198 3.98 8.627 8.627 0 0 1-2.216.292zm.019-12.105a3.551 3.551 0 0 0-1.781 6.625 3.517 3.517 0 0 0 2.688.358 3.522 3.522 0 0 0 2.158-1.652c.475-.821.601-1.777.356-2.694s-.831-1.683-1.651-2.158a3.504 3.504 0 0 0-1.77-.479z"/><path d="M860.93 424.281c-19.367 5.169-39.245-6.339-44.414-25.706s6.329-39.25 25.697-44.42c19.367-5.169 39.252 6.337 44.421 25.704 5.169 19.368-6.336 39.253-25.704 44.422zm160.698-43.467c-19.21 5.127-38.945-6.29-44.074-25.51-5.13-19.219 6.291-38.953 25.5-44.08 19.216-5.129 38.951 6.289 44.081 25.508 5.129 19.219-6.291 38.954-25.507 44.082z" fill="#ff6996"/><path d="M920.985 341.364a2.5 2.5 0 0 1-2.138-3.793c7.989-13.228 21.903-11.301 28.146-8.432a2.499 2.499 0 1 1-2.087 4.543c-.566-.256-14.12-6.204-21.778 6.474a2.502 2.502 0 0 1-2.143 1.208zm17.535 63.867c-7.289 0-14.931-2.144-22.831-6.42a2.5 2.5 0 1 1 2.379-4.398c10.603 5.737 20.553 7.235 29.575 4.448 14.469-4.467 21.897-18.608 21.971-18.751a2.503 2.503 0 0 1 3.364-1.081 2.498 2.498 0 0 1 1.085 3.361c-.335.656-8.401 16.113-24.894 21.232a35.67 35.67 0 0 1-10.649 1.609zM801.065 99.345a2.5 2.5 0 0 1-1.768-4.268c19.326-19.326 43.15-46.037 43.389-46.304a2.5 2.5 0 1 1 3.732 3.327c-.239.269-24.156 27.084-43.586 46.514a2.493 2.493 0 0 1-1.767.731z"/><path d="M1631.772 301.564s-30.244 57.919-58.473 108.136c-39.549 70.351 74.824 138.401 115.866 76.268 23.413-35.446 65.376-101.816 65.376-101.816z" fill="#ffaac3"/><path d="M1643.148 512.855c-14.128 0-29.021-4.398-42.53-12.643-29.071-17.741-50.702-54.016-29.498-91.737 27.887-49.608 58.134-107.49 58.437-108.069a2.5 2.5 0 0 1 3.612-.917l122.769 82.588a2.5 2.5 0 0 1 .718 3.41c-.42.664-42.244 66.797-65.403 101.858-9.885 14.965-24.529 23.7-42.349 25.26-1.901.168-3.822.25-5.756.25zm-10.456-207.659c-6.09 11.609-32.569 61.89-57.213 105.73-8.872 15.782-10.261 32.616-4.017 48.684 5.568 14.331 16.848 27.235 31.76 36.335 37.392 22.819 69.68 10.11 83.856-11.354 20.826-31.529 56.782-88.244 64.049-99.721z"/><path d="M1612.645 393.436c-62.608-73.42-9.042-161.378-4.991-222.968 3.341-50.795.307-83.406 28.858-90.028s42.137 40.756 41.183 76.936c-.682 25.927.856 73.861.856 73.861 18.794-21.852 58.719-74.697 69.658-88.883 76.117-98.707 114.943 64.662 165.745 113.662-54.676 68.858-101.055 137.286-144.533 171.408s-79.325 22.593-79.325 22.593z" fill="#ffaac3"/><path d="M1679.996 275.564a2.5 2.5 0 0 1-2.479-2.207c-.128-1.078-3.103-26.592-1.452-42.381a2.506 2.506 0 0 1 2.746-2.226 2.5 2.5 0 0 1 2.227 2.746c-1.593 15.232 1.414 41.015 1.444 41.274a2.5 2.5 0 0 1-2.486 2.794z"/><path d="M1705.894 454.459c-9.879 0-15.961-1.867-16.564-2.061a2.5 2.5 0 0 1 1.529-4.76c.452.141 35.279 10.58 77.02-22.179 31.476-24.702 62.271-65.273 97.928-112.25 12.895-16.989 26.217-34.54 40.482-52.554-15.015-15.309-28.767-40.77-42.079-65.42-20.898-38.693-42.508-78.703-68.899-80.841-14.155-1.147-28.934 8.496-45.121 29.487-1.949 2.528-4.82 6.286-8.329 10.877-16.05 21.004-45.925 60.1-61.413 78.109a2.5 2.5 0 0 1-4.395-1.55c-.015-.48-1.532-48.304-.855-74.007.681-25.847-6.338-58.305-21.069-70.331-5.101-4.164-10.836-5.545-17.051-4.104-22.651 5.254-23.827 28.558-25.777 67.167-.331 6.561-.674 13.345-1.15 20.59-1.131 17.196-6.035 36.285-11.227 56.495-13.545 52.721-28.896 112.476 15.626 164.686a2.499 2.499 0 1 1-3.804 3.244c-46.206-54.185-30.512-115.276-16.664-169.175 5.132-19.978 9.98-38.848 11.081-55.579.474-7.207.815-13.972 1.146-20.514 1.997-39.551 3.316-65.679 29.642-71.785 7.792-1.809 14.978-.094 21.342 5.101 16.724 13.652 23.597 48.104 22.905 74.336-.523 19.889.276 53.175.664 67.188 16.142-19.401 42.365-53.719 57.028-72.908 3.514-4.599 6.39-8.362 8.343-10.895 17.301-22.437 33.475-32.716 49.484-31.418 29.097 2.358 51.362 43.582 72.895 83.449 13.606 25.194 27.678 51.246 42.764 65.797a2.5 2.5 0 0 1 .223 3.354c-14.759 18.587-28.509 36.702-41.807 54.221-35.866 47.252-66.842 88.061-98.822 113.161-26.503 20.797-50.132 25.069-65.076 25.069z"/><path d="M1683.853 371.234a2.5 2.5 0 0 1-2.147-3.777c11.435-19.254-.271-57.502-.391-57.886a2.499 2.499 0 1 1 4.774-1.486c.129.412 3.156 10.224 4.721 22.723 2.135 17.05.519 30.239-4.805 39.203a2.5 2.5 0 0 1-2.152 1.223z"/><path d="M503.711 329.607c-58.733 28.818-129.706 4.573-158.526-54.162-28.819-58.735-4.572-129.718 54.162-158.537s129.715-4.559 158.533 54.175c28.82 58.735 4.565 129.706-54.169 158.524z" fill="#6f5490"/><path d="M450.879 290.075c-13.135 0-25.806-1.574-37.919-4.723-28.92-7.518-54.648-24.055-76.47-49.154a2.501 2.501 0 0 1 .889-3.933c1.166-.507 29.056-12.472 71.447-16.461 39.123-3.682 98.265-.826 157.848 33.682a2.5 2.5 0 0 1 .162 4.224c-.336.231-34.149 23.204-79.111 32.468-12.61 2.597-24.92 3.897-36.846 3.897zm-108.27-54.511c20.611 22.815 44.658 37.924 71.522 44.926 22.342 5.823 46.712 6.1 72.432.822 35.857-7.359 64.475-23.635 74.024-29.536-57.22-31.92-113.68-34.534-151.293-30.995-33.474 3.15-58.168 11.556-66.685 14.783z"/><path d="M564.841 251.742a2.5 2.5 0 0 1-2.295-1.506c-.302-.695-30.855-69.777-91.622-91.24-32.702-11.55-68.364-7.41-106 12.307a2.5 2.5 0 1 1-2.32-4.429c38.929-20.393 75.943-24.626 110.017-12.581 32.885 11.625 56.834 36.561 71.135 55.432 15.451 20.391 23.062 37.793 23.379 38.523a2.499 2.499 0 0 1-2.294 3.494z"/><path d="M451.722 344.21c-44.726 0-87.787-24.876-108.781-67.663-14.233-29.007-16.318-61.821-5.873-92.396 10.445-30.577 32.173-55.254 61.178-69.486s61.818-16.315 92.395-5.866c30.576 10.449 55.252 32.178 69.484 61.184s16.316 61.818 5.869 92.391c-10.447 30.572-32.176 55.247-61.182 69.479l-1.102-2.244 1.102 2.244c-17.089 8.384-35.227 12.357-53.09 12.357zm-.299-236.972c-17.467 0-34.834 3.995-50.974 11.915-27.807 13.644-48.636 37.301-58.649 66.614-10.014 29.312-8.015 60.77 5.63 88.577 28.166 57.4 97.78 81.185 155.18 53.02 27.808-13.644 48.638-37.299 58.653-66.607 10.016-29.309 8.018-60.764-5.626-88.571-13.645-27.808-37.301-48.638-66.612-58.655-12.3-4.205-24.977-6.293-37.602-6.293z"/><path d="M678.199 643.53c15.28 12.993 14.03 39.671 12.36 50.804-1.671 11.133-3.615 65.066-30.686 65.066s-26.674-29.215-28.238-53.21c-1.565-23.994-1.867-51.109-1.867-51.109s29.843-27.357 48.431-11.551z" fill="#ffaac3"/><path d="M659.873 761.899c-27.478 0-29.106-27.893-30.415-50.306-.104-1.765-.205-3.517-.318-5.241-1.552-23.786-1.869-50.972-1.872-51.244a2.5 2.5 0 0 1 .811-1.871c.315-.289 7.836-7.135 17.822-12.098 13.767-6.843 25.495-6.676 33.918.486 17.877 15.201 14.143 46.883 13.213 53.079-.192 1.283-.392 3.184-.644 5.59-1.929 18.435-6.446 61.605-32.515 61.605zm-27.59-105.697c.078 5.413.484 28.946 1.847 49.825.112 1.736.216 3.498.319 5.275 1.559 26.699 4.295 45.597 25.424 45.597 21.565 0 25.754-40.031 27.542-57.125.258-2.469.462-4.418.671-5.812.861-5.738 4.354-35.042-11.506-48.528-15.102-12.837-39.513 6.685-44.297 10.768z" fill="#111"/><path d="M343.262 504.789C444.686 667.27 568.956 802.46 717.7 908.416c6.223 4.433 14.696 3.918 20.295-1.28l73.781-73.865C654.815 723.808 537.862 581.658 432.771 410.233l-86.777 74.322c-5.628 5.224-6.798 13.72-2.732 20.234z" fill="#fff"/><path d="M841.731 754.614c-37.04-27.153-69.901-52.963-103.29-82.557-9.577-8.489-24.304-7.272-32.324 2.701l-20.48 25.468c-48.773-45.645-94.345-95.114-136.771-148.341l26.352-18.141c10.541-7.257 12.848-21.853 5.094-32.035-27.031-35.495-50.328-70.183-74.655-109.138-6.32-10.121-19.482-13.505-29.902-7.69l-44.15 26.351c3.751 6.12-4.43 17.157-.615 23.2 1.19 1.886 2.394 3.758 3.591 5.636 2.687 4.216 5.386 8.418 8.103 12.597 1.358 2.087 2.719 4.17 4.085 6.248 2.728 4.151 5.475 8.28 8.234 12.394 1.239 1.847 2.471 3.701 3.716 5.54a1560.838 1560.838 0 0 0 11.874 17.312l.114.166a1533.134 1533.134 0 0 0 12.206 17.234c1.273 1.773 2.559 3.531 3.839 5.298 2.885 3.984 5.783 7.952 8.701 11.899 1.459 1.973 2.922 3.941 4.389 5.905 2.92 3.908 5.858 7.794 8.809 11.665 1.333 1.749 2.662 3.505 4.002 5.246 4.147 5.39 8.319 10.752 12.528 16.068.094.118.185.239.28.358v-.001c83.136 104.913 170.628 197.749 278.572 273.027l23.059-25.583 20.086-30.436c6.574-9.96 4.177-23.335-5.447-30.391z" fill="#fff"/><path d="M806.344 832.796c-4.705 0-9.27-1.466-13.172-4.281-99.851-72.031-190.581-159.159-269.671-258.966l-.278-.356a1450.529 1450.529 0 0 1-12.553-16.097 725.116 725.116 0 0 1-2.776-3.637l-1.231-1.618a1485.67 1485.67 0 0 1-13.219-17.6 1463.684 1463.684 0 0 1-8.715-11.918l-1.255-1.727c-.865-1.191-1.731-2.382-2.591-3.58a1532.007 1532.007 0 0 1-12.226-17.261l-.065-.094a1553.255 1553.255 0 0 1-11.942-17.412c-.857-1.265-1.708-2.539-2.56-3.812l-1.162-1.737a1577.285 1577.285 0 0 1-8.248-12.413 1627.467 1627.467 0 0 1-12.206-18.874l-1.125-1.762a885.397 885.397 0 0 1-2.472-3.883l-.102-.159c-3.36-5.324-4.35-11.597-2.8-17.683 1.557-6.109 5.445-11.165 10.95-14.237l37.612-20.989c11.601-6.475 26.203-2.719 33.24 8.549 26.605 42.605 49.589 76.206 74.524 108.948 4.175 5.483 5.876 12.248 4.789 19.048-1.085 6.784-4.798 12.666-10.455 16.56l-24.142 16.619c41.235 51.533 85.92 100.002 132.884 144.135l18.79-23.366c4.305-5.353 10.445-8.619 17.291-9.196 6.868-.578 13.483 1.62 18.641 6.191 30.8 27.299 62.6 52.715 103.108 82.41h-.001c10.716 7.855 13.376 22.695 6.058 33.785l-23.887 36.195c-3.444 5.218-8.729 8.712-14.88 9.84a23.22 23.22 0 0 1-4.153.378zM486.663 384.534c-3.289 0-6.619.817-9.689 2.53l-37.612 20.989c-4.293 2.396-7.326 6.34-8.54 11.105-1.208 4.743-.438 9.629 2.169 13.759l.1.156c.83 1.316 1.65 2.6 2.472 3.884l1.129 1.768c2.873 4.509 5.52 8.623 8.091 12.578a1529.49 1529.49 0 0 0 12.299 18.613l1.166 1.743c.846 1.265 1.692 2.53 2.544 3.788a1565.611 1565.611 0 0 0 11.855 17.285l.064.094a1495.82 1495.82 0 0 0 12.235 17.277c.854 1.19 1.713 2.372 2.573 3.555l1.259 1.734a1453.662 1453.662 0 0 0 13.069 17.774c2.799 3.747 5.675 7.556 8.794 11.646l1.235 1.624a702.337 702.337 0 0 0 2.759 3.614 1431.335 1431.335 0 0 0 12.508 16.04l.273.351c78.81 99.453 169.206 186.261 268.684 258.022 3.929 2.834 8.725 3.913 13.499 3.038 4.799-.879 8.921-3.605 11.607-7.676l23.887-36.194c5.85-8.863 3.724-20.722-4.839-26.999h-.001c-40.638-29.79-72.548-55.296-103.468-82.701-4.125-3.656-9.422-5.415-14.903-4.951-5.47.462-10.377 3.071-13.815 7.347l-20.48 25.468a2.5 2.5 0 0 1-3.656.258c-48.496-45.386-94.595-95.385-137.018-148.608a2.501 2.501 0 0 1 .537-3.618l26.353-18.141c4.521-3.112 7.487-7.81 8.354-13.231.869-5.437-.491-10.845-3.83-15.23-25.031-32.87-48.097-66.588-74.786-109.329a19.879 19.879 0 0 0-16.878-9.362z"/><path d="M727.037 913.89a18.562 18.562 0 0 1-10.787-3.438c-73.746-52.532-142.835-113.414-205.348-180.955-61.792-66.762-118.908-141.919-169.761-223.385-4.687-7.507-3.361-17.344 3.151-23.389a1.54 1.54 0 0 1 .075-.066l86.777-74.322a2.499 2.499 0 1 1 3.252 3.797L347.66 486.42c-4.729 4.42-5.688 11.581-2.276 17.044C396.07 584.663 452.992 659.569 514.572 726.1c62.281 67.29 131.111 127.945 204.579 180.279 5.24 3.733 12.451 3.279 17.144-1.076l83.062-83.155a2.499 2.499 0 1 1 3.537 3.534l-83.13 83.22a18.672 18.672 0 0 1-12.727 4.988z"/><path d="M585.589 1065.26c-52.954 13.637-108.865-68.704-91.202-101.488l53.598-46.371C522.737 870.58 482.402 808.693 446.8 740.963c-38.274-72.813 12.602-137.575 90.833-175.213 55.428-26.667 70.197 15.14 64.532 28.187 0 0 22.479-4.17 36.203 7.266 14.003 11.669 12.869 34.741 12.869 34.741s17.551-4.813 29.705 10.653c5.403 6.876 10.962 29.955-6.367 51.425-15.367 19.038-25.802 28.784-38.74 43.875 23.555 52.36 96.174 138.172 72.473 208.777-14.55 43.34-122.719 114.586-122.719 114.586z" fill="#ffaac3"/><path d="M573.658 1069.266c-24.858 0-48.172-17.977-62.933-36.827-19.594-25.022-27.218-53.747-18.54-69.853.145-.267.336-.506.565-.705l52.08-45.058c-10.61-19.542-23.954-41.965-38.058-65.665-19.574-32.892-41.759-70.172-62.186-109.032-14.169-26.955-16.8-54.258-7.819-81.151 12.66-37.914 49.034-73.446 99.795-97.485 34.065-16.132 51.64-6.456 59.082.749 8.118 7.857 11.128 18.949 9.92 26.734 7.299-.693 23.312-.933 34.404 8.309 11.781 9.819 13.559 26.708 13.77 33.673 5.972-.729 19.133-.606 29.108 12.018.804.885 6.401 7.381 9.576 19.881a2.5 2.5 0 1 1-4.846 1.231c-3.008-11.842-8.401-17.718-8.456-17.776a2.91 2.91 0 0 1-.145-.168c-11.001-13.999-26.92-9.831-27.078-9.786a2.5 2.5 0 0 1-3.159-2.534c.011-.216.885-21.983-11.973-32.698-12.64-10.533-33.935-6.768-34.149-6.728a2.499 2.499 0 0 1-2.747-3.454c2.206-5.08.731-16.945-7.703-25.109-11.249-10.887-30.237-10.824-53.465.177-49.536 23.459-84.962 57.921-97.192 94.55-8.532 25.551-6.008 51.538 7.502 77.241 20.365 38.743 42.515 75.963 62.057 108.802 14.557 24.462 28.307 47.568 39.115 67.612a2.5 2.5 0 0 1-.564 3.077l-53.241 46.062c-7.42 14.496.044 40.711 18.283 64.003 16.171 20.65 42.981 40.253 69.899 33.584 6.763-4.501 107.671-72.239 121.375-113.063 17.383-51.781-18.601-112.716-47.513-161.677-9.717-16.454-18.895-31.996-24.87-45.279a2.5 2.5 0 0 1 .383-2.653c4.834-5.639 9.669-11.026 14.788-16.73 8.538-9.515 17.368-19.354 26.974-31.254a2.5 2.5 0 0 1 3.891 3.141c-9.688 12.002-18.562 21.89-27.144 31.453-4.73 5.271-9.219 10.272-13.673 15.436 5.872 12.719 14.666 27.612 23.957 43.344 29.43 49.838 66.057 111.863 47.947 165.81-14.655 43.657-119.268 112.951-123.714 115.879-.23.152-.484.264-.752.333a50.09 50.09 0 0 1-12.551 1.586z" fill="#111"/><path d="M556.336 937.301a2.5 2.5 0 0 1-2.251-1.409l-8.441-17.385a2.5 2.5 0 0 1 4.498-2.184l8.441 17.385a2.5 2.5 0 0 1-2.247 3.593z"/><path d="M492.306 672.75a2.5 2.5 0 0 1-1.942-4.072c.131-.162 13.324-16.395 33.466-33.887 18.661-16.206 47.311-36.874 77.819-43.302a2.501 2.501 0 0 1 1.031 4.893c-56.523 11.908-107.915 74.805-108.428 75.439a2.492 2.492 0 0 1-1.946.929zm47.61 44.108a2.5 2.5 0 0 1-1.939-4.075c.141-.173 14.287-17.528 35.077-35.833 28.05-24.698 54.209-39.323 77.751-43.469a2.5 2.5 0 0 1 .868 4.925c-54.088 9.525-109.262 76.848-109.812 77.527a2.503 2.503 0 0 1-1.945.925z" fill="#111"/><path d="M1738.68 164.276c-9.749-21.93 23.997-58.158 75.379-80.917 9.579-4.243 18.192-7.59 25.943-10.056 33.822-10.761 51.203-4.739 60.663 16.857 15.019 34.326.093 49.854-51.288 72.614-51.382 22.759-100.936 23.43-110.697 1.502z" fill="#ffaac3"/><path d="M1777.063 182.881c-20.397 0-35.446-5.86-40.667-17.589v-.001c-2.684-6.037-2.528-13.033.461-20.793 8.376-21.739 38.282-46.636 76.189-63.426 9.807-4.343 18.376-7.664 26.198-10.152 34.283-10.907 53.335-5.453 63.71 18.237 16.5 37.713-2.881 53.895-52.565 75.903-26.815 11.877-52.783 17.821-73.326 17.821zm-36.099-19.621c4.229 9.494 17.873 14.788 37.422 14.523 20.577-.279 45.429-6.421 69.978-17.295 52.833-23.402 63.583-38.304 50.011-69.326-9.231-21.077-25.927-25.56-57.614-15.477-7.647 2.433-16.05 5.69-25.688 9.959-36.756 16.281-65.626 40.088-73.549 60.652-2.496 6.477-2.685 12.184-.56 16.964z"/><path d="M1735.839 238.592c-8.995-22.253 25.986-57.289 78.126-78.254s83.983-24.574 95.775 4.326c15.025 36.846-11.078 55.299-63.219 76.264s-101.699 19.92-110.682-2.336z" fill="#ffaac3"/><path d="M1777.419 258.586c-22.374.001-38.793-6.41-43.897-19.058l.001.001c-2.477-6.125-2.082-13.111 1.173-20.761 9.117-21.435 39.867-45.28 78.338-60.749 28.35-11.399 48.581-16.718 63.609-16.718l.355.001c17.476.098 28.943 7.431 35.058 22.418 5.288 12.968 5.807 24.115 1.587 34.078-7.981 18.842-32.231 31.796-66.188 45.45-25.533 10.266-50.14 15.338-70.036 15.338zm99.322-112.303c-14.665 0-34.734 5.475-61.843 16.375-37.302 14.999-66.978 37.792-75.603 58.067-2.716 6.385-3.099 12.081-1.139 16.931l.001.001c3.889 9.636 17.335 15.399 36.891 15.812 20.562.434 45.629-4.843 70.54-14.86 48.024-19.31 58.876-31.963 63.449-42.761 3.675-8.676 3.147-18.567-1.612-30.24-5.264-12.904-14.807-19.325-30.684-19.325z"/><path d="M1756.785 311.479c-10.398-21.627 15.936-51.972 66.624-76.235s79.015-13.647 85.136 1.285c11.656 28.399 1.614 52.323-49.074 76.591s-92.287 19.989-102.686-1.641z" fill="#ffaac3"/><path d="M1796.23 332.019c-20.135 0-35.48-6.523-41.698-19.457-3.12-6.489-3.321-13.709-.597-21.458 6.817-19.391 31.746-40.573 68.394-58.115 39.794-19.05 62.675-15.368 72.774-11.478 7.646 2.945 13.242 7.942 15.754 14.07 13.216 32.199-2.3 56.809-50.307 79.794-23.237 11.125-45.804 16.643-64.32 16.644zm79.89-108.665c-11.837 0-28.705 3.17-51.633 14.145-35.458 16.974-59.454 37.116-65.835 55.264-2.268 6.451-2.138 12.384.386 17.633 4.813 10.012 16.918 15.914 34.084 16.618 18.74.772 41.914-4.966 65.269-16.149 57.416-27.49 56.403-52.524 47.841-73.387-1.985-4.842-6.575-8.855-12.926-11.301-3.722-1.435-9.353-2.823-17.186-2.823z"/></svg></g><g transform="translate(1724.0 321.0) rotate(0.0 269.5 374.5) scale(1.0188458121467592 1.0167416213838816)"><svg width="529.03" height="736.667" viewBox="0 0 529.03 736.667"><path d="M38.389 111.496c-32.569 4.098-57.843 67.502-6.975 195.739l237.491-63.938c-68.631-73.298-138.421-142.45-230.516-131.801z" fill="#fff"/><path d="M31.414 309.736a2.501 2.501 0 0 1-2.325-1.579C12.153 265.46 2.507 227.256.42 194.605c-1.777-27.818 2.118-50.699 11.265-66.169 6.633-11.217 16.006-18.114 26.392-19.421a2.5 2.5 0 1 1 .625 4.96c-8.946 1.126-16.8 7.006-22.712 17.005-6.022 10.184-12.745 29.432-10.58 63.306 2.054 32.126 11.584 69.818 28.327 112.027a2.5 2.5 0 0 1-2.323 3.423z"/><path d="m37.219 734.167 438.368-112.831-7.343-540.006L29.876 194.161z" fill="#92acef"/><path d="M37.219 736.667a2.5 2.5 0 0 1-2.5-2.466l-7.343-540.006a2.5 2.5 0 0 1 1.877-2.455L467.621 78.909a2.5 2.5 0 0 1 3.123 2.387l7.343 540.006a2.5 2.5 0 0 1-1.877 2.455L37.842 736.588a2.492 2.492 0 0 1-.623.079zm-4.816-540.575 7.272 534.861 433.386-111.548-7.272-534.861z"/><path d="M37.219 736.667a2.5 2.5 0 0 1-2.5-2.466l-7.343-540.006a2.5 2.5 0 0 1 1.877-2.455L467.621 78.909a2.5 2.5 0 0 1 3.123 2.387l7.343 540.006a2.5 2.5 0 0 1-1.877 2.455L37.842 736.588a2.492 2.492 0 0 1-.623.079zm-4.816-540.575 7.272 534.861 433.386-111.548-7.272-534.861z"/><path d="M38.389 111.495c41.874-5.269 95.805 87.498 15.465 266.555l420.265-107.144c97.63-184.376 37.61-277.251-9.511-267.744z" fill="#fff"/><path d="M53.854 380.551a2.5 2.5 0 0 1-2.281-3.524c26.072-58.107 39.916-111.052 41.148-157.363.98-36.857-6.452-67.927-20.927-87.487-9.623-13.003-21.686-19.64-33.093-18.202a2.5 2.5 0 0 1-.929-4.904L463.992.74c.041-.01.081-.02.122-.028 15.811-3.189 32.463 4.569 44.55 20.753 28.391 38.016 34.805 123.815-32.336 250.611a2.503 2.503 0 0 1-1.592 1.253L54.471 380.473a2.503 2.503 0 0 1-.617.078zm-1.645-269.989c8.496 2.902 16.68 9.284 23.604 18.641 27.474 37.123 37.021 120.855-17.583 245.152l414.196-105.597c65.499-124.192 59.634-207.606 32.23-244.3-11.047-14.794-25.442-21.664-39.494-18.856z"/><path d="M37.6 114.116a2.5 2.5 0 0 1-.613-4.924L463.859.744a2.5 2.5 0 0 1 1.23 4.847L38.217 114.038a2.473 2.473 0 0 1-.617.078z"/></svg></g><g transform="translate(1222.0 1267.0) rotate(0.0 725.5 293.5) scale(1.0041522491349482 1.0034188034188034)"><svg width="1445" height="585" viewBox="0 0 1445 585"><path d="M2.5 582.5v-60h480v60z" fill="#fff"/><path d="M482.5 585H2.5a2.5 2.5 0 0 1-2.5-2.5v-60a2.5 2.5 0 0 1 2.5-2.5h480a2.5 2.5 0 0 1 2.5 2.5v60a2.5 2.5 0 0 1-2.5 2.5zM5 580h475v-55H5z" fill="#111"/><path d="m442.5 582.5 220-580h780l-220 580z" fill="#fff"/><path d="M1222.5 585h-780a2.5 2.5 0 0 1-2.338-3.387l220-580A2.5 2.5 0 0 1 662.5 0h780a2.5 2.5 0 0 1 2.338 3.387l-220 580A2.5 2.5 0 0 1 1222.5 585zm-776.378-5h774.653l218.1-575H664.226z" fill="#111"/><path d="M905.64 299.54a70 70 0 1 1 70 70 70 70 0 0 1-70-70z" fill="#fff"/><path d="M975.64 372.04a72.5 72.5 0 1 1 72.5-72.5 72.582 72.582 0 0 1-72.5 72.5zm0-140a67.5 67.5 0 1 0 67.5 67.5 67.576 67.576 0 0 0-67.5-67.5z" fill="#111"/></svg></g><g transform="translate(2394.0 1527.0) rotate(0.0 139.5 163.5) scale(1.0017341849869128 1.00068242256952)"><svg width="278.517" height="326.777" viewBox="0 0 278.517 326.777"><path d="M186.712 171.231c39.207-23.805 62-55.31 73.902-95.918-39.51 7.243-67.156 22.037-87.632 51.809 2.1-40.257-11.75-96.81-27.189-124.622-19.603 36.915-29.478 84.365-32.906 123.222-18.206-31.144-47.145-46.324-84.015-49.709 11.202 41.023 31.865 74.039 66.512 95.218z" fill="#cad5f3"/><path d="M186.712 173.731H95.383c-.46 0-.911-.127-1.304-.367-33.291-20.351-55.41-51.979-67.62-96.692a2.499 2.499 0 0 1 2.641-3.148c36.579 3.358 64.13 18.382 82.004 44.688 4.705-44.368 16.413-86.627 32.48-116.883a2.502 2.502 0 0 1 2.185-1.328c.958.015 1.765.485 2.209 1.287 14.096 25.392 27.838 77.116 27.716 117.912 19.454-24.854 45.864-39.268 84.469-46.345a2.499 2.499 0 0 1 2.851 3.162c-12.604 43.001-36.438 73.935-75.004 97.351-.392.237-.84.363-1.298.363zm-90.622-5h89.919c35.903-21.962 58.56-50.708 71.008-90.182-38.651 7.764-63.313 22.855-81.977 49.99a2.499 2.499 0 0 1-4.556-1.547c2.029-38.878-10.778-91.221-24.669-119.074-15.497 31.05-26.529 73.715-30.438 118.024a2.501 2.501 0 0 1-1.943 2.22 2.493 2.493 0 0 1-2.705-1.178C94.254 98.8 68.566 83.039 32.274 78.877c11.965 41.298 32.871 70.725 63.816 89.854z"/><path d="M2.5 157.695h273.517v166.582H2.5z" fill="#92acef"/><path d="M276.016 326.777H2.5a2.5 2.5 0 0 1-2.5-2.5V157.694a2.5 2.5 0 0 1 2.5-2.5h273.517a2.5 2.5 0 0 1 2.5 2.5v166.583a2.501 2.501 0 0 1-2.501 2.5zM5 321.777h268.517V160.194H5z"/></svg></g><g transform="translate(141.0 1846.0) rotate(0.0 1364.0 48.5) scale(1.185530787947741 1.1828258563293377)"><svg width="2301.079" height="82.007" viewBox="0 0 2301.079 82.007"><path d="M2.5 79.507V2.5h2296.079v77.007z" fill="#fff"/><path d="M2298.579 82.007H2.5a2.5 2.5 0 0 1-2.5-2.5V2.5A2.5 2.5 0 0 1 2.5 0h2296.079a2.5 2.5 0 0 1 2.5 2.5v77.007a2.5 2.5 0 0 1-2.5 2.5zM5 77.007h2291.079V5H5z" fill="#111"/></svg></g><g transform="translate(2280.0 553.0) rotate(-5.549481726229777 -111.5 132.5) scale(-1.3817717660034574 1.3809635477735218)"><svg width="161.387" height="191.895" viewBox="0 0 161.387 191.895"><path d="M157.977 171.866c5.795-17-16.485-37.198-56.319-50.701s-59.937-3.083-63.152 8.56c-6.125 22.145 3.474 39.026 43.309 52.533 39.835 13.508 70.367 6.611 76.162-10.392z" fill="#ffaac3"/><path d="M120.925 191.81c-11.916 0-25.61-2.335-39.912-7.184-38.118-12.925-51.971-30.063-44.916-55.567 1.365-4.946 5.188-9.297 10.763-12.25 7.246-3.84 24.104-8.687 55.602 1.989 28.957 9.815 49.506 23.445 56.378 37.394 2.793 5.671 3.3 11.215 1.505 16.481-4.252 12.471-19.294 19.137-39.42 19.137zm-52.763-74.534c-9.422 0-15.462 2.096-18.962 3.95-4.346 2.303-7.288 5.557-8.284 9.164-4.422 15.986-2.925 34.368 41.702 49.5 30.836 10.456 66.569 10.012 72.993-8.832 1.351-3.963.928-8.221-1.258-12.658-6.29-12.767-25.789-25.476-53.498-34.869-13.803-4.677-24.52-6.255-32.693-6.255zm89.816 54.59h.01z" fill="#161616"/><path d="M147.191 124.472c5.99-16.938-21.327-41.978-61.008-55.929s-63.611-15.595-71.472 6.404c-10.015 28.049 10.114 40.983 49.796 54.934s76.703 11.53 82.684-5.409z" fill="#ffaac3"/><path d="M112.539 141.484c-14.187 0-31.171-3.025-48.861-9.244-25.991-9.137-44.671-18.096-51.355-32.117-3.561-7.469-3.55-15.979.034-26.016 4.172-11.675 12.687-17.674 26.033-18.339 11.333-.567 26.796 2.744 48.622 10.418 29.429 10.346 53.352 27.285 60.946 43.154 2.761 5.769 3.296 11.141 1.59 15.967-3.759 10.644-17.824 16.177-37.009 16.177zM40.922 60.7c-12.888 0-20.247 4.987-23.856 15.089-3.114 8.719-3.188 15.976-.229 22.183 5.085 10.667 19.137 19.229 48.5 29.552 37.674 13.245 74.077 11.466 79.497-3.883l.001-.001c1.247-3.528.781-7.613-1.386-12.141-7.052-14.733-29.855-30.667-58.095-40.596C66.077 64.125 51.602 60.7 40.922 60.7z" fill="#161616"/><path d="M131.402 64.279c5.551-17.084-22.388-41.427-62.409-54.373S11.642 1.042 5.052 21.707c-8.509 26.722 3.809 37.12 43.829 50.065s76.961 9.59 82.521-7.493z" fill="#ffaac3"/><path d="M94.58 82.19c-13.644 0-29.709-2.618-46.469-8.039-22.434-7.257-34.364-13.209-41.175-20.544-7.553-8.133-8.868-18.206-4.266-32.658C5.39 12.42 9.835 6.67 16.263 3.367c10.857-5.579 27.356-4.296 53.5 4.16 29.676 9.599 54.02 25.928 62.018 41.601 2.908 5.698 3.581 11.056 2 15.923l-.001.001c-3.651 11.216-18.685 17.138-39.2 17.138zM32.385 5.009c-5.636 0-10.204.939-13.837 2.806-5.256 2.7-8.788 7.356-11.114 14.652-7.631 23.962 1.048 33.61 42.216 46.926 37.987 12.288 74.337 9.591 79.375-5.889l-.001.001c1.156-3.559.586-7.632-1.697-12.105-7.426-14.551-30.626-29.905-59.104-39.116-15.045-4.866-26.811-7.275-35.838-7.275zm99.017 59.27h.01z" fill="#161616"/></svg></g></svg>