<svg xmlns="http://www.w3.org/2000/svg"  viewBox="0 0 64 64" width="96px" height="96px"><path d="M 32 7 C 31.57275 7 31.144609 7.1352031 30.787109 7.4082031 C 30.787109 7.4082031 23.963938 12.604469 23.960938 12.605469 L 15.46875 13.753906 C 14.57575 13.874906 13.874906 14.57675 13.753906 15.46875 C 13.753906 15.46875 12.604516 23.96675 12.603516 23.96875 L 7.4082031 30.787109 C 6.8622031 31.503109 6.8622031 32.496891 7.4082031 33.212891 L 12.603516 40.03125 C 12.604516 40.03225 13.753906 48.53125 13.753906 48.53125 C 13.874906 49.42325 14.57575 50.125094 15.46875 50.246094 L 23.960938 51.394531 C 23.963938 51.395531 30.787109 56.591797 30.787109 56.591797 C 31.145109 56.864797 31.573 57 32 57 C 32.427 57 32.854891 56.864797 33.212891 56.591797 C 33.212891 56.591797 40.036062 51.395531 40.039062 51.394531 L 48.53125 50.246094 C 49.42425 50.125094 50.125094 49.42325 50.246094 48.53125 C 50.246094 48.53125 51.395484 40.03325 51.396484 40.03125 L 56.591797 33.212891 C 57.137797 32.496891 57.137797 31.503109 56.591797 30.787109 L 51.396484 23.96875 C 51.395484 23.96775 50.246094 15.46875 50.246094 15.46875 C 50.125094 14.57675 49.42425 13.874906 48.53125 13.753906 L 40.039062 12.605469 C 40.036062 12.604469 33.212891 7.4082031 33.212891 7.4082031 C 32.855391 7.1352031 32.42725 7 32 7 z M 32 15 C 41.374 15 49 22.626 49 32 C 49 41.374 41.374 49 32 49 C 22.626 49 15 41.374 15 32 C 15 22.626 22.626 15 32 15 z M 32 18 C 24.28 18 18 24.28 18 32 C 18 39.72 24.28 46 32 46 C 39.72 46 46 39.72 46 32 C 46 24.28 39.72 18 32 18 z"/></svg>